%TF.GenerationSoftware,KiCad,Pcbnew,(5.1.9)-1*%
%TF.CreationDate,2021-10-08T16:41:08-07:00*%
%TF.ProjectId,LED-Controller-ESP-12F,4c45442d-436f-46e7-9472-6f6c6c65722d,A*%
%TF.SameCoordinates,Original*%
%TF.FileFunction,Legend,Top*%
%TF.FilePolarity,Positive*%
%FSLAX46Y46*%
G04 Gerber Fmt 4.6, Leading zero omitted, Abs format (unit mm)*
G04 Created by KiCad (PCBNEW (5.1.9)-1) date 2021-10-08 16:41:08*
%MOMM*%
%LPD*%
G01*
G04 APERTURE LIST*
%ADD10C,0.075000*%
%ADD11C,0.150000*%
%ADD12C,0.120000*%
G04 APERTURE END LIST*
D10*
X111880178Y-130462785D02*
X112308750Y-130462785D01*
X112094464Y-131212785D02*
X112094464Y-130462785D01*
X112558750Y-131141357D02*
X112594464Y-131177071D01*
X112558750Y-131212785D01*
X112523035Y-131177071D01*
X112558750Y-131141357D01*
X112558750Y-131212785D01*
X113737321Y-130819928D02*
X113844464Y-130855642D01*
X113880178Y-130891357D01*
X113915892Y-130962785D01*
X113915892Y-131069928D01*
X113880178Y-131141357D01*
X113844464Y-131177071D01*
X113773035Y-131212785D01*
X113487321Y-131212785D01*
X113487321Y-130462785D01*
X113737321Y-130462785D01*
X113808750Y-130498500D01*
X113844464Y-130534214D01*
X113880178Y-130605642D01*
X113880178Y-130677071D01*
X113844464Y-130748500D01*
X113808750Y-130784214D01*
X113737321Y-130819928D01*
X113487321Y-130819928D01*
X114344464Y-131212785D02*
X114273035Y-131177071D01*
X114237321Y-131141357D01*
X114201607Y-131069928D01*
X114201607Y-130855642D01*
X114237321Y-130784214D01*
X114273035Y-130748500D01*
X114344464Y-130712785D01*
X114451607Y-130712785D01*
X114523035Y-130748500D01*
X114558750Y-130784214D01*
X114594464Y-130855642D01*
X114594464Y-131069928D01*
X114558750Y-131141357D01*
X114523035Y-131177071D01*
X114451607Y-131212785D01*
X114344464Y-131212785D01*
X115237321Y-130712785D02*
X115237321Y-131212785D01*
X114915892Y-130712785D02*
X114915892Y-131105642D01*
X114951607Y-131177071D01*
X115023035Y-131212785D01*
X115130178Y-131212785D01*
X115201607Y-131177071D01*
X115237321Y-131141357D01*
X115701607Y-131212785D02*
X115630178Y-131177071D01*
X115594464Y-131105642D01*
X115594464Y-130462785D01*
X116308750Y-131212785D02*
X116308750Y-130819928D01*
X116273035Y-130748500D01*
X116201607Y-130712785D01*
X116058750Y-130712785D01*
X115987321Y-130748500D01*
X116308750Y-131177071D02*
X116237321Y-131212785D01*
X116058750Y-131212785D01*
X115987321Y-131177071D01*
X115951607Y-131105642D01*
X115951607Y-131034214D01*
X115987321Y-130962785D01*
X116058750Y-130927071D01*
X116237321Y-130927071D01*
X116308750Y-130891357D01*
X116665892Y-130712785D02*
X116665892Y-131212785D01*
X116665892Y-130784214D02*
X116701607Y-130748500D01*
X116773035Y-130712785D01*
X116880178Y-130712785D01*
X116951607Y-130748500D01*
X116987321Y-130819928D01*
X116987321Y-131212785D01*
X117665892Y-130712785D02*
X117665892Y-131319928D01*
X117630178Y-131391357D01*
X117594464Y-131427071D01*
X117523035Y-131462785D01*
X117415892Y-131462785D01*
X117344464Y-131427071D01*
X117665892Y-131177071D02*
X117594464Y-131212785D01*
X117451607Y-131212785D01*
X117380178Y-131177071D01*
X117344464Y-131141357D01*
X117308750Y-131069928D01*
X117308750Y-130855642D01*
X117344464Y-130784214D01*
X117380178Y-130748500D01*
X117451607Y-130712785D01*
X117594464Y-130712785D01*
X117665892Y-130748500D01*
X118308750Y-131177071D02*
X118237321Y-131212785D01*
X118094464Y-131212785D01*
X118023035Y-131177071D01*
X117987321Y-131105642D01*
X117987321Y-130819928D01*
X118023035Y-130748500D01*
X118094464Y-130712785D01*
X118237321Y-130712785D01*
X118308750Y-130748500D01*
X118344464Y-130819928D01*
X118344464Y-130891357D01*
X117987321Y-130962785D01*
X118665892Y-131212785D02*
X118665892Y-130712785D01*
X118665892Y-130855642D02*
X118701607Y-130784214D01*
X118737321Y-130748500D01*
X118808750Y-130712785D01*
X118880178Y-130712785D01*
X106819964Y-130041285D02*
X106462821Y-130041285D01*
X106462821Y-129291285D01*
X107069964Y-129648428D02*
X107319964Y-129648428D01*
X107427107Y-130041285D02*
X107069964Y-130041285D01*
X107069964Y-129291285D01*
X107427107Y-129291285D01*
X107748535Y-130041285D02*
X107748535Y-129291285D01*
X107927107Y-129291285D01*
X108034250Y-129327000D01*
X108105678Y-129398428D01*
X108141392Y-129469857D01*
X108177107Y-129612714D01*
X108177107Y-129719857D01*
X108141392Y-129862714D01*
X108105678Y-129934142D01*
X108034250Y-130005571D01*
X107927107Y-130041285D01*
X107748535Y-130041285D01*
X109498535Y-129969857D02*
X109462821Y-130005571D01*
X109355678Y-130041285D01*
X109284250Y-130041285D01*
X109177107Y-130005571D01*
X109105678Y-129934142D01*
X109069964Y-129862714D01*
X109034250Y-129719857D01*
X109034250Y-129612714D01*
X109069964Y-129469857D01*
X109105678Y-129398428D01*
X109177107Y-129327000D01*
X109284250Y-129291285D01*
X109355678Y-129291285D01*
X109462821Y-129327000D01*
X109498535Y-129362714D01*
X109927107Y-130041285D02*
X109855678Y-130005571D01*
X109819964Y-129969857D01*
X109784250Y-129898428D01*
X109784250Y-129684142D01*
X109819964Y-129612714D01*
X109855678Y-129577000D01*
X109927107Y-129541285D01*
X110034250Y-129541285D01*
X110105678Y-129577000D01*
X110141392Y-129612714D01*
X110177107Y-129684142D01*
X110177107Y-129898428D01*
X110141392Y-129969857D01*
X110105678Y-130005571D01*
X110034250Y-130041285D01*
X109927107Y-130041285D01*
X110498535Y-129541285D02*
X110498535Y-130041285D01*
X110498535Y-129612714D02*
X110534250Y-129577000D01*
X110605678Y-129541285D01*
X110712821Y-129541285D01*
X110784250Y-129577000D01*
X110819964Y-129648428D01*
X110819964Y-130041285D01*
X111069964Y-129541285D02*
X111355678Y-129541285D01*
X111177107Y-129291285D02*
X111177107Y-129934142D01*
X111212821Y-130005571D01*
X111284250Y-130041285D01*
X111355678Y-130041285D01*
X111605678Y-130041285D02*
X111605678Y-129541285D01*
X111605678Y-129684142D02*
X111641392Y-129612714D01*
X111677107Y-129577000D01*
X111748535Y-129541285D01*
X111819964Y-129541285D01*
X112177107Y-130041285D02*
X112105678Y-130005571D01*
X112069964Y-129969857D01*
X112034250Y-129898428D01*
X112034250Y-129684142D01*
X112069964Y-129612714D01*
X112105678Y-129577000D01*
X112177107Y-129541285D01*
X112284250Y-129541285D01*
X112355678Y-129577000D01*
X112391392Y-129612714D01*
X112427107Y-129684142D01*
X112427107Y-129898428D01*
X112391392Y-129969857D01*
X112355678Y-130005571D01*
X112284250Y-130041285D01*
X112177107Y-130041285D01*
X112855678Y-130041285D02*
X112784250Y-130005571D01*
X112748535Y-129934142D01*
X112748535Y-129291285D01*
X113248535Y-130041285D02*
X113177107Y-130005571D01*
X113141392Y-129934142D01*
X113141392Y-129291285D01*
X113819964Y-130005571D02*
X113748535Y-130041285D01*
X113605678Y-130041285D01*
X113534250Y-130005571D01*
X113498535Y-129934142D01*
X113498535Y-129648428D01*
X113534250Y-129577000D01*
X113605678Y-129541285D01*
X113748535Y-129541285D01*
X113819964Y-129577000D01*
X113855678Y-129648428D01*
X113855678Y-129719857D01*
X113498535Y-129791285D01*
X114177107Y-130041285D02*
X114177107Y-129541285D01*
X114177107Y-129684142D02*
X114212821Y-129612714D01*
X114248535Y-129577000D01*
X114319964Y-129541285D01*
X114391392Y-129541285D01*
X106891392Y-131241285D02*
X106641392Y-130884142D01*
X106462821Y-131241285D02*
X106462821Y-130491285D01*
X106748535Y-130491285D01*
X106819964Y-130527000D01*
X106855678Y-130562714D01*
X106891392Y-130634142D01*
X106891392Y-130741285D01*
X106855678Y-130812714D01*
X106819964Y-130848428D01*
X106748535Y-130884142D01*
X106462821Y-130884142D01*
X107498535Y-131205571D02*
X107427107Y-131241285D01*
X107284250Y-131241285D01*
X107212821Y-131205571D01*
X107177107Y-131134142D01*
X107177107Y-130848428D01*
X107212821Y-130777000D01*
X107284250Y-130741285D01*
X107427107Y-130741285D01*
X107498535Y-130777000D01*
X107534250Y-130848428D01*
X107534250Y-130919857D01*
X107177107Y-130991285D01*
X107784250Y-130741285D02*
X107962821Y-131241285D01*
X108141392Y-130741285D01*
X108962821Y-131027000D02*
X109319964Y-131027000D01*
X108891392Y-131241285D02*
X109141392Y-130491285D01*
X109391392Y-131241285D01*
D11*
X138223809Y-130325880D02*
X138842857Y-130325880D01*
X138509523Y-130706833D01*
X138652380Y-130706833D01*
X138747619Y-130754452D01*
X138795238Y-130802071D01*
X138842857Y-130897309D01*
X138842857Y-131135404D01*
X138795238Y-131230642D01*
X138747619Y-131278261D01*
X138652380Y-131325880D01*
X138366666Y-131325880D01*
X138271428Y-131278261D01*
X138223809Y-131230642D01*
X139271428Y-131230642D02*
X139319047Y-131278261D01*
X139271428Y-131325880D01*
X139223809Y-131278261D01*
X139271428Y-131230642D01*
X139271428Y-131325880D01*
X139652380Y-130325880D02*
X140271428Y-130325880D01*
X139938095Y-130706833D01*
X140080952Y-130706833D01*
X140176190Y-130754452D01*
X140223809Y-130802071D01*
X140271428Y-130897309D01*
X140271428Y-131135404D01*
X140223809Y-131230642D01*
X140176190Y-131278261D01*
X140080952Y-131325880D01*
X139795238Y-131325880D01*
X139700000Y-131278261D01*
X139652380Y-131230642D01*
X140557142Y-130325880D02*
X140890476Y-131325880D01*
X141223809Y-130325880D01*
X115657500Y-101480880D02*
X115657500Y-100480880D01*
X115895595Y-100480880D01*
X116038452Y-100528500D01*
X116133690Y-100623738D01*
X116181309Y-100718976D01*
X116228928Y-100909452D01*
X116228928Y-101052309D01*
X116181309Y-101242785D01*
X116133690Y-101338023D01*
X116038452Y-101433261D01*
X115895595Y-101480880D01*
X115657500Y-101480880D01*
X116609880Y-101195166D02*
X117086071Y-101195166D01*
X116514642Y-101480880D02*
X116847976Y-100480880D01*
X117181309Y-101480880D01*
X117371785Y-100480880D02*
X117943214Y-100480880D01*
X117657500Y-101480880D02*
X117657500Y-100480880D01*
X118228928Y-101195166D02*
X118705119Y-101195166D01*
X118133690Y-101480880D02*
X118467023Y-100480880D01*
X118800357Y-101480880D01*
X112014095Y-100528500D02*
X111918857Y-100480880D01*
X111776000Y-100480880D01*
X111633142Y-100528500D01*
X111537904Y-100623738D01*
X111490285Y-100718976D01*
X111442666Y-100909452D01*
X111442666Y-101052309D01*
X111490285Y-101242785D01*
X111537904Y-101338023D01*
X111633142Y-101433261D01*
X111776000Y-101480880D01*
X111871238Y-101480880D01*
X112014095Y-101433261D01*
X112061714Y-101385642D01*
X112061714Y-101052309D01*
X111871238Y-101052309D01*
X112490285Y-101480880D02*
X112490285Y-100480880D01*
X113061714Y-101480880D01*
X113061714Y-100480880D01*
X113537904Y-101480880D02*
X113537904Y-100480880D01*
X113776000Y-100480880D01*
X113918857Y-100528500D01*
X114014095Y-100623738D01*
X114061714Y-100718976D01*
X114109333Y-100909452D01*
X114109333Y-101052309D01*
X114061714Y-101242785D01*
X114014095Y-101338023D01*
X113918857Y-101433261D01*
X113776000Y-101480880D01*
X113537904Y-101480880D01*
X108267523Y-100480880D02*
X107791333Y-100480880D01*
X107743714Y-100957071D01*
X107791333Y-100909452D01*
X107886571Y-100861833D01*
X108124666Y-100861833D01*
X108219904Y-100909452D01*
X108267523Y-100957071D01*
X108315142Y-101052309D01*
X108315142Y-101290404D01*
X108267523Y-101385642D01*
X108219904Y-101433261D01*
X108124666Y-101480880D01*
X107886571Y-101480880D01*
X107791333Y-101433261D01*
X107743714Y-101385642D01*
X108600857Y-100480880D02*
X108934190Y-101480880D01*
X109267523Y-100480880D01*
X136802904Y-106672071D02*
X137136238Y-106672071D01*
X137279095Y-107195880D02*
X136802904Y-107195880D01*
X136802904Y-106195880D01*
X137279095Y-106195880D01*
X137707666Y-107195880D02*
X137707666Y-106195880D01*
X138279095Y-107195880D01*
X138279095Y-106195880D01*
X137469595Y-102115880D02*
X137469595Y-101115880D01*
X137850547Y-101115880D01*
X137945785Y-101163500D01*
X137993404Y-101211119D01*
X138041023Y-101306357D01*
X138041023Y-101449214D01*
X137993404Y-101544452D01*
X137945785Y-101592071D01*
X137850547Y-101639690D01*
X137469595Y-101639690D01*
D12*
%TO.C,J1*%
X139446000Y-129473000D02*
X138336000Y-129473000D01*
X138336000Y-129473000D02*
X138336000Y-128143000D01*
%TO.C,J2*%
X138303000Y-100330000D02*
X139573000Y-100330000D01*
X138303000Y-101600000D02*
X138303000Y-100330000D01*
%TO.C,R7*%
X115793436Y-108098000D02*
X117247564Y-108098000D01*
X115793436Y-106278000D02*
X117247564Y-106278000D01*
%TO.C,R6*%
X135297500Y-126971436D02*
X135297500Y-128425564D01*
X137117500Y-126971436D02*
X137117500Y-128425564D01*
%TO.C,R5*%
X126132000Y-128427564D02*
X126132000Y-126973436D01*
X124312000Y-128427564D02*
X124312000Y-126973436D01*
%TO.C,R4*%
X128545000Y-128427564D02*
X128545000Y-126973436D01*
X126725000Y-128427564D02*
X126725000Y-126973436D01*
%TO.C,R3*%
X134704500Y-128427564D02*
X134704500Y-126973436D01*
X132884500Y-128427564D02*
X132884500Y-126973436D01*
%TO.C,R2*%
X115793436Y-110511000D02*
X117247564Y-110511000D01*
X115793436Y-108691000D02*
X117247564Y-108691000D01*
%TO.C,R1*%
X115793436Y-112924000D02*
X117247564Y-112924000D01*
X115793436Y-111104000D02*
X117247564Y-111104000D01*
%TO.C,U1*%
X116337000Y-120694500D02*
X116337000Y-119434500D01*
X116337000Y-113874500D02*
X116337000Y-115134500D01*
X112577000Y-120694500D02*
X116337000Y-120694500D01*
X110327000Y-113874500D02*
X116337000Y-113874500D01*
%TO.C,C2*%
X117051500Y-123748748D02*
X117051500Y-125171252D01*
X115231500Y-123748748D02*
X115231500Y-125171252D01*
%TO.C,C1*%
X112225500Y-123748748D02*
X112225500Y-125171252D01*
X110405500Y-123748748D02*
X110405500Y-125171252D01*
%TO.C,Q1*%
X129986500Y-125610500D02*
X131446500Y-125610500D01*
X129986500Y-128770500D02*
X132146500Y-128770500D01*
X129986500Y-128770500D02*
X129986500Y-127840500D01*
X129986500Y-125610500D02*
X129986500Y-126540500D01*
%TO.C,TP1*%
X106758000Y-101868500D02*
X110158000Y-101868500D01*
X110158000Y-101868500D02*
X110158000Y-105268500D01*
X110158000Y-105268500D02*
X106758000Y-105268500D01*
X106758000Y-105268500D02*
X106758000Y-101868500D01*
%TO.C,TP2*%
X111076000Y-105268500D02*
X111076000Y-101868500D01*
X114476000Y-105268500D02*
X111076000Y-105268500D01*
X114476000Y-101868500D02*
X114476000Y-105268500D01*
X111076000Y-101868500D02*
X114476000Y-101868500D01*
%TO.C,TP3*%
X115394000Y-105268500D02*
X115394000Y-101868500D01*
X118794000Y-105268500D02*
X115394000Y-105268500D01*
X118794000Y-101868500D02*
X118794000Y-105268500D01*
X115394000Y-101868500D02*
X118794000Y-101868500D01*
%TO.C,U2*%
X120144501Y-107483501D02*
X119534501Y-107483501D01*
X120144501Y-107483501D02*
X120144501Y-99863501D01*
X120144501Y-124103501D02*
X120144501Y-123483501D01*
X122264501Y-124103501D02*
X120144501Y-124103501D01*
X136384501Y-124103501D02*
X134264501Y-124103501D01*
X136384501Y-123483501D02*
X136384501Y-124103501D01*
X136384501Y-99863501D02*
X136384501Y-107483501D01*
X120144501Y-99863501D02*
X136384501Y-99863501D01*
%TO.C,C3*%
X109041748Y-106278000D02*
X110464252Y-106278000D01*
X109041748Y-108098000D02*
X110464252Y-108098000D01*
%TO.C,J1*%
D11*
X139112666Y-112482380D02*
X139112666Y-113196666D01*
X139065047Y-113339523D01*
X138969809Y-113434761D01*
X138826952Y-113482380D01*
X138731714Y-113482380D01*
X140112666Y-113482380D02*
X139541238Y-113482380D01*
X139826952Y-113482380D02*
X139826952Y-112482380D01*
X139731714Y-112625238D01*
X139636476Y-112720476D01*
X139541238Y-112768095D01*
%TO.C,J2*%
X139239666Y-108672380D02*
X139239666Y-109386666D01*
X139192047Y-109529523D01*
X139096809Y-109624761D01*
X138953952Y-109672380D01*
X138858714Y-109672380D01*
X139668238Y-108767619D02*
X139715857Y-108720000D01*
X139811095Y-108672380D01*
X140049190Y-108672380D01*
X140144428Y-108720000D01*
X140192047Y-108767619D01*
X140239666Y-108862857D01*
X140239666Y-108958095D01*
X140192047Y-109100952D01*
X139620619Y-109672380D01*
X140239666Y-109672380D01*
%TO.C,R7*%
X112990333Y-107640380D02*
X112657000Y-107164190D01*
X112418904Y-107640380D02*
X112418904Y-106640380D01*
X112799857Y-106640380D01*
X112895095Y-106688000D01*
X112942714Y-106735619D01*
X112990333Y-106830857D01*
X112990333Y-106973714D01*
X112942714Y-107068952D01*
X112895095Y-107116571D01*
X112799857Y-107164190D01*
X112418904Y-107164190D01*
X113323666Y-106640380D02*
X113990333Y-106640380D01*
X113561761Y-107640380D01*
%TO.C,R6*%
X136040833Y-131325880D02*
X135707500Y-130849690D01*
X135469404Y-131325880D02*
X135469404Y-130325880D01*
X135850357Y-130325880D01*
X135945595Y-130373500D01*
X135993214Y-130421119D01*
X136040833Y-130516357D01*
X136040833Y-130659214D01*
X135993214Y-130754452D01*
X135945595Y-130802071D01*
X135850357Y-130849690D01*
X135469404Y-130849690D01*
X136897976Y-130325880D02*
X136707500Y-130325880D01*
X136612261Y-130373500D01*
X136564642Y-130421119D01*
X136469404Y-130563976D01*
X136421785Y-130754452D01*
X136421785Y-131135404D01*
X136469404Y-131230642D01*
X136517023Y-131278261D01*
X136612261Y-131325880D01*
X136802738Y-131325880D01*
X136897976Y-131278261D01*
X136945595Y-131230642D01*
X136993214Y-131135404D01*
X136993214Y-130897309D01*
X136945595Y-130802071D01*
X136897976Y-130754452D01*
X136802738Y-130706833D01*
X136612261Y-130706833D01*
X136517023Y-130754452D01*
X136469404Y-130802071D01*
X136421785Y-130897309D01*
%TO.C,R5*%
X125055333Y-131325880D02*
X124722000Y-130849690D01*
X124483904Y-131325880D02*
X124483904Y-130325880D01*
X124864857Y-130325880D01*
X124960095Y-130373500D01*
X125007714Y-130421119D01*
X125055333Y-130516357D01*
X125055333Y-130659214D01*
X125007714Y-130754452D01*
X124960095Y-130802071D01*
X124864857Y-130849690D01*
X124483904Y-130849690D01*
X125960095Y-130325880D02*
X125483904Y-130325880D01*
X125436285Y-130802071D01*
X125483904Y-130754452D01*
X125579142Y-130706833D01*
X125817238Y-130706833D01*
X125912476Y-130754452D01*
X125960095Y-130802071D01*
X126007714Y-130897309D01*
X126007714Y-131135404D01*
X125960095Y-131230642D01*
X125912476Y-131278261D01*
X125817238Y-131325880D01*
X125579142Y-131325880D01*
X125483904Y-131278261D01*
X125436285Y-131230642D01*
%TO.C,R4*%
X127468333Y-131325880D02*
X127135000Y-130849690D01*
X126896904Y-131325880D02*
X126896904Y-130325880D01*
X127277857Y-130325880D01*
X127373095Y-130373500D01*
X127420714Y-130421119D01*
X127468333Y-130516357D01*
X127468333Y-130659214D01*
X127420714Y-130754452D01*
X127373095Y-130802071D01*
X127277857Y-130849690D01*
X126896904Y-130849690D01*
X128325476Y-130659214D02*
X128325476Y-131325880D01*
X128087380Y-130278261D02*
X127849285Y-130992547D01*
X128468333Y-130992547D01*
%TO.C,R3*%
X133627833Y-131325880D02*
X133294500Y-130849690D01*
X133056404Y-131325880D02*
X133056404Y-130325880D01*
X133437357Y-130325880D01*
X133532595Y-130373500D01*
X133580214Y-130421119D01*
X133627833Y-130516357D01*
X133627833Y-130659214D01*
X133580214Y-130754452D01*
X133532595Y-130802071D01*
X133437357Y-130849690D01*
X133056404Y-130849690D01*
X133961166Y-130325880D02*
X134580214Y-130325880D01*
X134246880Y-130706833D01*
X134389738Y-130706833D01*
X134484976Y-130754452D01*
X134532595Y-130802071D01*
X134580214Y-130897309D01*
X134580214Y-131135404D01*
X134532595Y-131230642D01*
X134484976Y-131278261D01*
X134389738Y-131325880D01*
X134104023Y-131325880D01*
X134008785Y-131278261D01*
X133961166Y-131230642D01*
%TO.C,R2*%
X112990333Y-110053380D02*
X112657000Y-109577190D01*
X112418904Y-110053380D02*
X112418904Y-109053380D01*
X112799857Y-109053380D01*
X112895095Y-109101000D01*
X112942714Y-109148619D01*
X112990333Y-109243857D01*
X112990333Y-109386714D01*
X112942714Y-109481952D01*
X112895095Y-109529571D01*
X112799857Y-109577190D01*
X112418904Y-109577190D01*
X113371285Y-109148619D02*
X113418904Y-109101000D01*
X113514142Y-109053380D01*
X113752238Y-109053380D01*
X113847476Y-109101000D01*
X113895095Y-109148619D01*
X113942714Y-109243857D01*
X113942714Y-109339095D01*
X113895095Y-109481952D01*
X113323666Y-110053380D01*
X113942714Y-110053380D01*
%TO.C,R1*%
X112990333Y-112466380D02*
X112657000Y-111990190D01*
X112418904Y-112466380D02*
X112418904Y-111466380D01*
X112799857Y-111466380D01*
X112895095Y-111514000D01*
X112942714Y-111561619D01*
X112990333Y-111656857D01*
X112990333Y-111799714D01*
X112942714Y-111894952D01*
X112895095Y-111942571D01*
X112799857Y-111990190D01*
X112418904Y-111990190D01*
X113942714Y-112466380D02*
X113371285Y-112466380D01*
X113657000Y-112466380D02*
X113657000Y-111466380D01*
X113561761Y-111609238D01*
X113466523Y-111704476D01*
X113371285Y-111752095D01*
%TO.C,U1*%
X110363095Y-112545880D02*
X110363095Y-113355404D01*
X110410714Y-113450642D01*
X110458333Y-113498261D01*
X110553571Y-113545880D01*
X110744047Y-113545880D01*
X110839285Y-113498261D01*
X110886904Y-113450642D01*
X110934523Y-113355404D01*
X110934523Y-112545880D01*
X111934523Y-113545880D02*
X111363095Y-113545880D01*
X111648809Y-113545880D02*
X111648809Y-112545880D01*
X111553571Y-112688738D01*
X111458333Y-112783976D01*
X111363095Y-112831595D01*
%TO.C,C2*%
X115974833Y-128055642D02*
X115927214Y-128103261D01*
X115784357Y-128150880D01*
X115689119Y-128150880D01*
X115546261Y-128103261D01*
X115451023Y-128008023D01*
X115403404Y-127912785D01*
X115355785Y-127722309D01*
X115355785Y-127579452D01*
X115403404Y-127388976D01*
X115451023Y-127293738D01*
X115546261Y-127198500D01*
X115689119Y-127150880D01*
X115784357Y-127150880D01*
X115927214Y-127198500D01*
X115974833Y-127246119D01*
X116355785Y-127246119D02*
X116403404Y-127198500D01*
X116498642Y-127150880D01*
X116736738Y-127150880D01*
X116831976Y-127198500D01*
X116879595Y-127246119D01*
X116927214Y-127341357D01*
X116927214Y-127436595D01*
X116879595Y-127579452D01*
X116308166Y-128150880D01*
X116927214Y-128150880D01*
%TO.C,C1*%
X111148833Y-128055642D02*
X111101214Y-128103261D01*
X110958357Y-128150880D01*
X110863119Y-128150880D01*
X110720261Y-128103261D01*
X110625023Y-128008023D01*
X110577404Y-127912785D01*
X110529785Y-127722309D01*
X110529785Y-127579452D01*
X110577404Y-127388976D01*
X110625023Y-127293738D01*
X110720261Y-127198500D01*
X110863119Y-127150880D01*
X110958357Y-127150880D01*
X111101214Y-127198500D01*
X111148833Y-127246119D01*
X112101214Y-128150880D02*
X111529785Y-128150880D01*
X111815500Y-128150880D02*
X111815500Y-127150880D01*
X111720261Y-127293738D01*
X111625023Y-127388976D01*
X111529785Y-127436595D01*
%TO.C,Q1*%
X130651261Y-130238119D02*
X130556023Y-130190500D01*
X130460785Y-130095261D01*
X130317928Y-129952404D01*
X130222690Y-129904785D01*
X130127452Y-129904785D01*
X130175071Y-130142880D02*
X130079833Y-130095261D01*
X129984595Y-130000023D01*
X129936976Y-129809547D01*
X129936976Y-129476214D01*
X129984595Y-129285738D01*
X130079833Y-129190500D01*
X130175071Y-129142880D01*
X130365547Y-129142880D01*
X130460785Y-129190500D01*
X130556023Y-129285738D01*
X130603642Y-129476214D01*
X130603642Y-129809547D01*
X130556023Y-130000023D01*
X130460785Y-130095261D01*
X130365547Y-130142880D01*
X130175071Y-130142880D01*
X131556023Y-130142880D02*
X130984595Y-130142880D01*
X131270309Y-130142880D02*
X131270309Y-129142880D01*
X131175071Y-129285738D01*
X131079833Y-129380976D01*
X130984595Y-129428595D01*
%TO.C,U2*%
X127508095Y-111466380D02*
X127508095Y-112275904D01*
X127555714Y-112371142D01*
X127603333Y-112418761D01*
X127698571Y-112466380D01*
X127889047Y-112466380D01*
X127984285Y-112418761D01*
X128031904Y-112371142D01*
X128079523Y-112275904D01*
X128079523Y-111466380D01*
X128508095Y-111561619D02*
X128555714Y-111514000D01*
X128650952Y-111466380D01*
X128889047Y-111466380D01*
X128984285Y-111514000D01*
X129031904Y-111561619D01*
X129079523Y-111656857D01*
X129079523Y-111752095D01*
X129031904Y-111894952D01*
X128460476Y-112466380D01*
X129079523Y-112466380D01*
%TO.C,C3*%
X109561333Y-109386642D02*
X109513714Y-109434261D01*
X109370857Y-109481880D01*
X109275619Y-109481880D01*
X109132761Y-109434261D01*
X109037523Y-109339023D01*
X108989904Y-109243785D01*
X108942285Y-109053309D01*
X108942285Y-108910452D01*
X108989904Y-108719976D01*
X109037523Y-108624738D01*
X109132761Y-108529500D01*
X109275619Y-108481880D01*
X109370857Y-108481880D01*
X109513714Y-108529500D01*
X109561333Y-108577119D01*
X109894666Y-108481880D02*
X110513714Y-108481880D01*
X110180380Y-108862833D01*
X110323238Y-108862833D01*
X110418476Y-108910452D01*
X110466095Y-108958071D01*
X110513714Y-109053309D01*
X110513714Y-109291404D01*
X110466095Y-109386642D01*
X110418476Y-109434261D01*
X110323238Y-109481880D01*
X110037523Y-109481880D01*
X109942285Y-109434261D01*
X109894666Y-109386642D01*
%TD*%
M02*
