%TF.GenerationSoftware,KiCad,Pcbnew,(5.1.9)-1*%
%TF.CreationDate,2021-10-08T16:41:08-07:00*%
%TF.ProjectId,LED-Controller-ESP-12F,4c45442d-436f-46e7-9472-6f6c6c65722d,A*%
%TF.SameCoordinates,Original*%
%TF.FileFunction,Copper,L1,Top*%
%TF.FilePolarity,Positive*%
%FSLAX46Y46*%
G04 Gerber Fmt 4.6, Leading zero omitted, Abs format (unit mm)*
G04 Created by KiCad (PCBNEW (5.1.9)-1) date 2021-10-08 16:41:08*
%MOMM*%
%LPD*%
G01*
G04 APERTURE LIST*
%TA.AperFunction,ComponentPad*%
%ADD10R,1.700000X1.700000*%
%TD*%
%TA.AperFunction,ComponentPad*%
%ADD11O,1.700000X1.700000*%
%TD*%
%TA.AperFunction,SMDPad,CuDef*%
%ADD12R,2.000000X1.500000*%
%TD*%
%TA.AperFunction,SMDPad,CuDef*%
%ADD13R,2.000000X3.800000*%
%TD*%
%TA.AperFunction,SMDPad,CuDef*%
%ADD14R,0.900000X0.800000*%
%TD*%
%TA.AperFunction,SMDPad,CuDef*%
%ADD15R,3.000000X3.000000*%
%TD*%
%TA.AperFunction,SMDPad,CuDef*%
%ADD16R,2.500000X1.000000*%
%TD*%
%TA.AperFunction,SMDPad,CuDef*%
%ADD17R,1.000000X1.800000*%
%TD*%
%TA.AperFunction,Conductor*%
%ADD18C,1.152000*%
%TD*%
%TA.AperFunction,Conductor*%
%ADD19C,0.250000*%
%TD*%
%TA.AperFunction,Conductor*%
%ADD20C,0.300387*%
%TD*%
%TA.AperFunction,Conductor*%
%ADD21C,0.500000*%
%TD*%
%TA.AperFunction,Conductor*%
%ADD22C,0.254000*%
%TD*%
%TA.AperFunction,Conductor*%
%ADD23C,0.100000*%
%TD*%
G04 APERTURE END LIST*
D10*
%TO.P,J1,1*%
%TO.N,+3V3*%
X139446000Y-128143000D03*
D11*
%TO.P,J1,2*%
%TO.N,GND*%
X139446000Y-125603000D03*
%TO.P,J1,3*%
%TO.N,/TX*%
X139446000Y-123063000D03*
%TO.P,J1,4*%
%TO.N,/RX*%
X139446000Y-120523000D03*
%TO.P,J1,5*%
%TO.N,/RTS*%
X139446000Y-117983000D03*
%TO.P,J1,6*%
%TO.N,Net-(J1-Pad6)*%
X139446000Y-115443000D03*
%TD*%
D10*
%TO.P,J2,1*%
%TO.N,GND*%
X139573000Y-101600000D03*
D11*
%TO.P,J2,2*%
%TO.N,Net-(J2-Pad2)*%
X139573000Y-104140000D03*
%TO.P,J2,3*%
%TO.N,Net-(J2-Pad3)*%
X139573000Y-106680000D03*
%TD*%
%TO.P,R7,2*%
%TO.N,Net-(J2-Pad3)*%
%TA.AperFunction,SMDPad,CuDef*%
G36*
G01*
X117420500Y-107813001D02*
X117420500Y-106562999D01*
G75*
G02*
X117670499Y-106313000I249999J0D01*
G01*
X118470501Y-106313000D01*
G75*
G02*
X118720500Y-106562999I0J-249999D01*
G01*
X118720500Y-107813001D01*
G75*
G02*
X118470501Y-108063000I-249999J0D01*
G01*
X117670499Y-108063000D01*
G75*
G02*
X117420500Y-107813001I0J249999D01*
G01*
G37*
%TD.AperFunction*%
%TO.P,R7,1*%
%TO.N,+3V3*%
%TA.AperFunction,SMDPad,CuDef*%
G36*
G01*
X114320500Y-107813001D02*
X114320500Y-106562999D01*
G75*
G02*
X114570499Y-106313000I249999J0D01*
G01*
X115370501Y-106313000D01*
G75*
G02*
X115620500Y-106562999I0J-249999D01*
G01*
X115620500Y-107813001D01*
G75*
G02*
X115370501Y-108063000I-249999J0D01*
G01*
X114570499Y-108063000D01*
G75*
G02*
X114320500Y-107813001I0J249999D01*
G01*
G37*
%TD.AperFunction*%
%TD*%
%TO.P,R6,2*%
%TO.N,GND*%
%TA.AperFunction,SMDPad,CuDef*%
G36*
G01*
X135582499Y-128598500D02*
X136832501Y-128598500D01*
G75*
G02*
X137082500Y-128848499I0J-249999D01*
G01*
X137082500Y-129648501D01*
G75*
G02*
X136832501Y-129898500I-249999J0D01*
G01*
X135582499Y-129898500D01*
G75*
G02*
X135332500Y-129648501I0J249999D01*
G01*
X135332500Y-128848499D01*
G75*
G02*
X135582499Y-128598500I249999J0D01*
G01*
G37*
%TD.AperFunction*%
%TO.P,R6,1*%
%TO.N,Net-(R6-Pad1)*%
%TA.AperFunction,SMDPad,CuDef*%
G36*
G01*
X135582499Y-125498500D02*
X136832501Y-125498500D01*
G75*
G02*
X137082500Y-125748499I0J-249999D01*
G01*
X137082500Y-126548501D01*
G75*
G02*
X136832501Y-126798500I-249999J0D01*
G01*
X135582499Y-126798500D01*
G75*
G02*
X135332500Y-126548501I0J249999D01*
G01*
X135332500Y-125748499D01*
G75*
G02*
X135582499Y-125498500I249999J0D01*
G01*
G37*
%TD.AperFunction*%
%TD*%
%TO.P,R5,2*%
%TO.N,Net-(Q1-Pad3)*%
%TA.AperFunction,SMDPad,CuDef*%
G36*
G01*
X125847001Y-126800500D02*
X124596999Y-126800500D01*
G75*
G02*
X124347000Y-126550501I0J249999D01*
G01*
X124347000Y-125750499D01*
G75*
G02*
X124596999Y-125500500I249999J0D01*
G01*
X125847001Y-125500500D01*
G75*
G02*
X126097000Y-125750499I0J-249999D01*
G01*
X126097000Y-126550501D01*
G75*
G02*
X125847001Y-126800500I-249999J0D01*
G01*
G37*
%TD.AperFunction*%
%TO.P,R5,1*%
%TO.N,Net-(R5-Pad1)*%
%TA.AperFunction,SMDPad,CuDef*%
G36*
G01*
X125847001Y-129900500D02*
X124596999Y-129900500D01*
G75*
G02*
X124347000Y-129650501I0J249999D01*
G01*
X124347000Y-128850499D01*
G75*
G02*
X124596999Y-128600500I249999J0D01*
G01*
X125847001Y-128600500D01*
G75*
G02*
X126097000Y-128850499I0J-249999D01*
G01*
X126097000Y-129650501D01*
G75*
G02*
X125847001Y-129900500I-249999J0D01*
G01*
G37*
%TD.AperFunction*%
%TD*%
%TO.P,R4,2*%
%TO.N,Net-(Q1-Pad3)*%
%TA.AperFunction,SMDPad,CuDef*%
G36*
G01*
X128260001Y-126800500D02*
X127009999Y-126800500D01*
G75*
G02*
X126760000Y-126550501I0J249999D01*
G01*
X126760000Y-125750499D01*
G75*
G02*
X127009999Y-125500500I249999J0D01*
G01*
X128260001Y-125500500D01*
G75*
G02*
X128510000Y-125750499I0J-249999D01*
G01*
X128510000Y-126550501D01*
G75*
G02*
X128260001Y-126800500I-249999J0D01*
G01*
G37*
%TD.AperFunction*%
%TO.P,R4,1*%
%TO.N,+5V*%
%TA.AperFunction,SMDPad,CuDef*%
G36*
G01*
X128260001Y-129900500D02*
X127009999Y-129900500D01*
G75*
G02*
X126760000Y-129650501I0J249999D01*
G01*
X126760000Y-128850499D01*
G75*
G02*
X127009999Y-128600500I249999J0D01*
G01*
X128260001Y-128600500D01*
G75*
G02*
X128510000Y-128850499I0J-249999D01*
G01*
X128510000Y-129650501D01*
G75*
G02*
X128260001Y-129900500I-249999J0D01*
G01*
G37*
%TD.AperFunction*%
%TD*%
%TO.P,R3,2*%
%TO.N,Net-(Q1-Pad2)*%
%TA.AperFunction,SMDPad,CuDef*%
G36*
G01*
X134419501Y-126800500D02*
X133169499Y-126800500D01*
G75*
G02*
X132919500Y-126550501I0J249999D01*
G01*
X132919500Y-125750499D01*
G75*
G02*
X133169499Y-125500500I249999J0D01*
G01*
X134419501Y-125500500D01*
G75*
G02*
X134669500Y-125750499I0J-249999D01*
G01*
X134669500Y-126550501D01*
G75*
G02*
X134419501Y-126800500I-249999J0D01*
G01*
G37*
%TD.AperFunction*%
%TO.P,R3,1*%
%TO.N,+3V3*%
%TA.AperFunction,SMDPad,CuDef*%
G36*
G01*
X134419501Y-129900500D02*
X133169499Y-129900500D01*
G75*
G02*
X132919500Y-129650501I0J249999D01*
G01*
X132919500Y-128850499D01*
G75*
G02*
X133169499Y-128600500I249999J0D01*
G01*
X134419501Y-128600500D01*
G75*
G02*
X134669500Y-128850499I0J-249999D01*
G01*
X134669500Y-129650501D01*
G75*
G02*
X134419501Y-129900500I-249999J0D01*
G01*
G37*
%TD.AperFunction*%
%TD*%
%TO.P,R2,2*%
%TO.N,/RTS*%
%TA.AperFunction,SMDPad,CuDef*%
G36*
G01*
X117420500Y-110226001D02*
X117420500Y-108975999D01*
G75*
G02*
X117670499Y-108726000I249999J0D01*
G01*
X118470501Y-108726000D01*
G75*
G02*
X118720500Y-108975999I0J-249999D01*
G01*
X118720500Y-110226001D01*
G75*
G02*
X118470501Y-110476000I-249999J0D01*
G01*
X117670499Y-110476000D01*
G75*
G02*
X117420500Y-110226001I0J249999D01*
G01*
G37*
%TD.AperFunction*%
%TO.P,R2,1*%
%TO.N,+3V3*%
%TA.AperFunction,SMDPad,CuDef*%
G36*
G01*
X114320500Y-110226001D02*
X114320500Y-108975999D01*
G75*
G02*
X114570499Y-108726000I249999J0D01*
G01*
X115370501Y-108726000D01*
G75*
G02*
X115620500Y-108975999I0J-249999D01*
G01*
X115620500Y-110226001D01*
G75*
G02*
X115370501Y-110476000I-249999J0D01*
G01*
X114570499Y-110476000D01*
G75*
G02*
X114320500Y-110226001I0J249999D01*
G01*
G37*
%TD.AperFunction*%
%TD*%
%TO.P,R1,2*%
%TO.N,Net-(R1-Pad2)*%
%TA.AperFunction,SMDPad,CuDef*%
G36*
G01*
X117420500Y-112639001D02*
X117420500Y-111388999D01*
G75*
G02*
X117670499Y-111139000I249999J0D01*
G01*
X118470501Y-111139000D01*
G75*
G02*
X118720500Y-111388999I0J-249999D01*
G01*
X118720500Y-112639001D01*
G75*
G02*
X118470501Y-112889000I-249999J0D01*
G01*
X117670499Y-112889000D01*
G75*
G02*
X117420500Y-112639001I0J249999D01*
G01*
G37*
%TD.AperFunction*%
%TO.P,R1,1*%
%TO.N,+3V3*%
%TA.AperFunction,SMDPad,CuDef*%
G36*
G01*
X114320500Y-112639001D02*
X114320500Y-111388999D01*
G75*
G02*
X114570499Y-111139000I249999J0D01*
G01*
X115370501Y-111139000D01*
G75*
G02*
X115620500Y-111388999I0J-249999D01*
G01*
X115620500Y-112639001D01*
G75*
G02*
X115370501Y-112889000I-249999J0D01*
G01*
X114570499Y-112889000D01*
G75*
G02*
X114320500Y-112639001I0J249999D01*
G01*
G37*
%TD.AperFunction*%
%TD*%
D12*
%TO.P,U1,1*%
%TO.N,GND*%
X111277000Y-114984500D03*
%TO.P,U1,3*%
%TO.N,+5V*%
X111277000Y-119584500D03*
%TO.P,U1,2*%
%TO.N,+3V3*%
X111277000Y-117284500D03*
D13*
X117577000Y-117284500D03*
%TD*%
%TO.P,C2,2*%
%TO.N,GND*%
%TA.AperFunction,SMDPad,CuDef*%
G36*
G01*
X115491498Y-125360000D02*
X116791502Y-125360000D01*
G75*
G02*
X117041500Y-125609998I0J-249998D01*
G01*
X117041500Y-126435002D01*
G75*
G02*
X116791502Y-126685000I-249998J0D01*
G01*
X115491498Y-126685000D01*
G75*
G02*
X115241500Y-126435002I0J249998D01*
G01*
X115241500Y-125609998D01*
G75*
G02*
X115491498Y-125360000I249998J0D01*
G01*
G37*
%TD.AperFunction*%
%TO.P,C2,1*%
%TO.N,+3V3*%
%TA.AperFunction,SMDPad,CuDef*%
G36*
G01*
X115491498Y-122235000D02*
X116791502Y-122235000D01*
G75*
G02*
X117041500Y-122484998I0J-249998D01*
G01*
X117041500Y-123310002D01*
G75*
G02*
X116791502Y-123560000I-249998J0D01*
G01*
X115491498Y-123560000D01*
G75*
G02*
X115241500Y-123310002I0J249998D01*
G01*
X115241500Y-122484998D01*
G75*
G02*
X115491498Y-122235000I249998J0D01*
G01*
G37*
%TD.AperFunction*%
%TD*%
%TO.P,C1,2*%
%TO.N,GND*%
%TA.AperFunction,SMDPad,CuDef*%
G36*
G01*
X110665498Y-125360000D02*
X111965502Y-125360000D01*
G75*
G02*
X112215500Y-125609998I0J-249998D01*
G01*
X112215500Y-126435002D01*
G75*
G02*
X111965502Y-126685000I-249998J0D01*
G01*
X110665498Y-126685000D01*
G75*
G02*
X110415500Y-126435002I0J249998D01*
G01*
X110415500Y-125609998D01*
G75*
G02*
X110665498Y-125360000I249998J0D01*
G01*
G37*
%TD.AperFunction*%
%TO.P,C1,1*%
%TO.N,+5V*%
%TA.AperFunction,SMDPad,CuDef*%
G36*
G01*
X110665498Y-122235000D02*
X111965502Y-122235000D01*
G75*
G02*
X112215500Y-122484998I0J-249998D01*
G01*
X112215500Y-123310002D01*
G75*
G02*
X111965502Y-123560000I-249998J0D01*
G01*
X110665498Y-123560000D01*
G75*
G02*
X110415500Y-123310002I0J249998D01*
G01*
X110415500Y-122484998D01*
G75*
G02*
X110665498Y-122235000I249998J0D01*
G01*
G37*
%TD.AperFunction*%
%TD*%
D14*
%TO.P,Q1,1*%
%TO.N,+3V3*%
X131746500Y-128140500D03*
%TO.P,Q1,2*%
%TO.N,Net-(Q1-Pad2)*%
X131746500Y-126240500D03*
%TO.P,Q1,3*%
%TO.N,Net-(Q1-Pad3)*%
X129746500Y-127190500D03*
%TD*%
D15*
%TO.P,TP1,1*%
%TO.N,+5V*%
X108458000Y-103568500D03*
%TD*%
%TO.P,TP2,1*%
%TO.N,GND*%
X112776000Y-103568500D03*
%TD*%
%TO.P,TP3,1*%
%TO.N,Net-(R5-Pad1)*%
X117094000Y-103568500D03*
%TD*%
D16*
%TO.P,U2,1*%
%TO.N,/RTS*%
X120664501Y-108483501D03*
%TO.P,U2,2*%
%TO.N,Net-(U2-Pad2)*%
X120664501Y-110483501D03*
%TO.P,U2,3*%
%TO.N,Net-(R1-Pad2)*%
X120664501Y-112483501D03*
%TO.P,U2,4*%
%TO.N,Net-(U2-Pad4)*%
X120664501Y-114483501D03*
%TO.P,U2,5*%
%TO.N,Net-(U2-Pad5)*%
X120664501Y-116483501D03*
%TO.P,U2,6*%
%TO.N,Net-(U2-Pad6)*%
X120664501Y-118483501D03*
%TO.P,U2,7*%
%TO.N,Net-(U2-Pad7)*%
X120664501Y-120483501D03*
%TO.P,U2,8*%
%TO.N,+3V3*%
X120664501Y-122483501D03*
D17*
%TO.P,U2,9*%
%TO.N,Net-(U2-Pad9)*%
X123264501Y-123983501D03*
%TO.P,U2,10*%
%TO.N,Net-(U2-Pad10)*%
X125264501Y-123983501D03*
%TO.P,U2,11*%
%TO.N,Net-(U2-Pad11)*%
X127264501Y-123983501D03*
%TO.P,U2,12*%
%TO.N,Net-(U2-Pad12)*%
X129264501Y-123983501D03*
%TO.P,U2,13*%
%TO.N,Net-(U2-Pad13)*%
X131264501Y-123983501D03*
%TO.P,U2,14*%
%TO.N,Net-(U2-Pad14)*%
X133264501Y-123983501D03*
D16*
%TO.P,U2,15*%
%TO.N,GND*%
X135864501Y-122483501D03*
%TO.P,U2,16*%
%TO.N,Net-(R6-Pad1)*%
X135864501Y-120483501D03*
%TO.P,U2,17*%
%TO.N,Net-(U2-Pad17)*%
X135864501Y-118483501D03*
%TO.P,U2,18*%
%TO.N,Net-(J2-Pad2)*%
X135864501Y-116483501D03*
%TO.P,U2,19*%
%TO.N,Net-(Q1-Pad2)*%
X135864501Y-114483501D03*
%TO.P,U2,20*%
%TO.N,Net-(U2-Pad20)*%
X135864501Y-112483501D03*
%TO.P,U2,21*%
%TO.N,/TX*%
X135864501Y-110483501D03*
%TO.P,U2,22*%
%TO.N,/RX*%
X135864501Y-108483501D03*
%TD*%
%TO.P,C3,1*%
%TO.N,+5V*%
%TA.AperFunction,SMDPad,CuDef*%
G36*
G01*
X107528000Y-107838001D02*
X107528000Y-106537999D01*
G75*
G02*
X107777999Y-106288000I249999J0D01*
G01*
X108603001Y-106288000D01*
G75*
G02*
X108853000Y-106537999I0J-249999D01*
G01*
X108853000Y-107838001D01*
G75*
G02*
X108603001Y-108088000I-249999J0D01*
G01*
X107777999Y-108088000D01*
G75*
G02*
X107528000Y-107838001I0J249999D01*
G01*
G37*
%TD.AperFunction*%
%TO.P,C3,2*%
%TO.N,GND*%
%TA.AperFunction,SMDPad,CuDef*%
G36*
G01*
X110653000Y-107838001D02*
X110653000Y-106537999D01*
G75*
G02*
X110902999Y-106288000I249999J0D01*
G01*
X111728001Y-106288000D01*
G75*
G02*
X111978000Y-106537999I0J-249999D01*
G01*
X111978000Y-107838001D01*
G75*
G02*
X111728001Y-108088000I-249999J0D01*
G01*
X110902999Y-108088000D01*
G75*
G02*
X110653000Y-107838001I0J249999D01*
G01*
G37*
%TD.AperFunction*%
%TD*%
D18*
%TO.N,GND*%
X111315500Y-105029000D02*
X112776000Y-103568500D01*
X111315500Y-107188000D02*
X111315500Y-105029000D01*
X111315500Y-114946000D02*
X111277000Y-114984500D01*
X111315500Y-107188000D02*
X111315500Y-114946000D01*
X112776000Y-103568500D02*
X112776000Y-100901500D01*
D19*
%TO.N,/TX*%
X141071010Y-111355008D02*
X141071010Y-121437990D01*
X137374502Y-107658500D02*
X141071010Y-111355008D01*
X134149500Y-107658500D02*
X137374502Y-107658500D01*
X133921500Y-107886500D02*
X134149500Y-107658500D01*
X133921500Y-110350002D02*
X133921500Y-107886500D01*
X141071010Y-121437990D02*
X139446000Y-123063000D01*
X134054999Y-110483501D02*
X133921500Y-110350002D01*
X135864501Y-110483501D02*
X134054999Y-110483501D01*
%TO.N,/RX*%
X140621001Y-119347999D02*
X139446000Y-120523000D01*
X140621001Y-111740001D02*
X140621001Y-119347999D01*
X137364501Y-108483501D02*
X140621001Y-111740001D01*
X135864501Y-108483501D02*
X137364501Y-108483501D01*
%TO.N,/RTS*%
X119100499Y-108483501D02*
X117983000Y-109601000D01*
X120664501Y-108483501D02*
X119100499Y-108483501D01*
X120664501Y-108483501D02*
X127660501Y-108483501D01*
X127660501Y-108483501D02*
X132651500Y-113474500D01*
X137190502Y-113474500D02*
X137922000Y-114205998D01*
X132651500Y-113474500D02*
X137190502Y-113474500D01*
X137922000Y-116459000D02*
X139446000Y-117983000D01*
X137922000Y-114205998D02*
X137922000Y-116459000D01*
%TO.N,Net-(J2-Pad2)*%
X141521019Y-123019981D02*
X141521019Y-106088019D01*
X141521019Y-106088019D02*
X139573000Y-104140000D01*
X137922000Y-117791000D02*
X137922000Y-123380500D01*
X136614501Y-116483501D02*
X137922000Y-117791000D01*
X135864501Y-116483501D02*
X136614501Y-116483501D01*
X140208000Y-124333000D02*
X141521019Y-123019981D01*
X138874500Y-124333000D02*
X140208000Y-124333000D01*
X137922000Y-123380500D02*
X138874500Y-124333000D01*
%TO.N,Net-(J2-Pad3)*%
X139065000Y-107188000D02*
X139573000Y-106680000D01*
X117983000Y-107188000D02*
X139065000Y-107188000D01*
D20*
%TO.N,Net-(Q1-Pad2)*%
X133704500Y-126240500D02*
X133794500Y-126150500D01*
X131746500Y-126240500D02*
X133704500Y-126240500D01*
D19*
X134364501Y-114483501D02*
X132270500Y-116577502D01*
X135864501Y-114483501D02*
X134364501Y-114483501D01*
X132270500Y-125716500D02*
X131746500Y-126240500D01*
X132270500Y-116577502D02*
X132270500Y-125716500D01*
D20*
%TO.N,Net-(Q1-Pad3)*%
X128675000Y-127190500D02*
X127635000Y-126150500D01*
X129746500Y-127190500D02*
X128675000Y-127190500D01*
X127635000Y-126150500D02*
X125222000Y-126150500D01*
D19*
%TO.N,Net-(R1-Pad2)*%
X118452501Y-112483501D02*
X117983000Y-112014000D01*
X120664501Y-112483501D02*
X118452501Y-112483501D01*
D20*
%TO.N,Net-(R5-Pad1)*%
X115284250Y-124110750D02*
X118967250Y-124110750D01*
X118967250Y-124110750D02*
X124107000Y-129250500D01*
X117094000Y-103568500D02*
X115143999Y-105518501D01*
X112966500Y-116141500D02*
X110039648Y-116141500D01*
X113538000Y-106235500D02*
X113538000Y-115570000D01*
X113538000Y-115570000D02*
X112966500Y-116141500D01*
X124107000Y-129250500D02*
X125222000Y-129250500D01*
X115143999Y-105518501D02*
X114254999Y-105518501D01*
X110039648Y-116141500D02*
X109664500Y-116516648D01*
X114254999Y-105518501D02*
X113538000Y-106235500D01*
X109664500Y-116516648D02*
X109664500Y-118010872D01*
X112966500Y-118427500D02*
X114427000Y-119888000D01*
X109664500Y-118010872D02*
X110081128Y-118427500D01*
X110081128Y-118427500D02*
X112966500Y-118427500D01*
X114427000Y-119888000D02*
X114427000Y-123253500D01*
X114427000Y-123253500D02*
X115284250Y-124110750D01*
D19*
%TO.N,Net-(R6-Pad1)*%
X136207500Y-126148500D02*
X136207500Y-125793500D01*
X136207500Y-125793500D02*
X134239000Y-123825000D01*
X134364501Y-120483501D02*
X135864501Y-120483501D01*
X134239000Y-120609002D02*
X134364501Y-120483501D01*
X134239000Y-123825000D02*
X134239000Y-120609002D01*
D18*
%TO.N,+5V*%
X108190500Y-107632500D02*
X108190500Y-103836000D01*
X108190500Y-107632500D02*
X108190500Y-118350500D01*
X109424500Y-119584500D02*
X111277000Y-119584500D01*
X108190500Y-118350500D02*
X109424500Y-119584500D01*
X111277000Y-122859000D02*
X111315500Y-122897500D01*
X111277000Y-119584500D02*
X111277000Y-122859000D01*
D21*
X126393000Y-130492500D02*
X127635000Y-129250500D01*
X124142500Y-130492500D02*
X126393000Y-130492500D01*
X118360953Y-124710953D02*
X124142500Y-130492500D01*
X114550953Y-124710953D02*
X118360953Y-124710953D01*
X113347500Y-123507500D02*
X114550953Y-124710953D01*
X113347500Y-120650000D02*
X113347500Y-123507500D01*
X112282000Y-119584500D02*
X113347500Y-120650000D01*
X111277000Y-119584500D02*
X112282000Y-119584500D01*
D19*
%TO.N,+3V3*%
X115058000Y-112014000D02*
X115058000Y-109601000D01*
X115058000Y-109601000D02*
X115058000Y-107188000D01*
D21*
X132772000Y-128140500D02*
X133794500Y-129163000D01*
X131746500Y-128140500D02*
X132772000Y-128140500D01*
D18*
X117577000Y-117284500D02*
X111277000Y-117284500D01*
X116141500Y-118720000D02*
X117577000Y-117284500D01*
X116141500Y-122897500D02*
X116141500Y-118720000D01*
D21*
X118914501Y-122483501D02*
X120664501Y-122483501D01*
X117577000Y-121146000D02*
X118914501Y-122483501D01*
X117577000Y-117284500D02*
X117577000Y-121146000D01*
D20*
X117577000Y-114620500D02*
X114970500Y-112014000D01*
X117577000Y-117284500D02*
X117577000Y-114620500D01*
D21*
X120664501Y-123966501D02*
X120664501Y-122483501D01*
X124396500Y-127698500D02*
X120664501Y-123966501D01*
X128333500Y-127698500D02*
X124396500Y-127698500D01*
X128775500Y-128140500D02*
X128333500Y-127698500D01*
X131746500Y-128140500D02*
X128775500Y-128140500D01*
X133794500Y-129250500D02*
X133794500Y-129159000D01*
X133794500Y-129159000D02*
X135191500Y-127762000D01*
X139065000Y-127762000D02*
X139446000Y-128143000D01*
X135191500Y-127762000D02*
X139065000Y-127762000D01*
%TD*%
D22*
%TO.N,GND*%
X118618000Y-101432792D02*
X118594000Y-101430428D01*
X115594000Y-101430428D01*
X115469518Y-101442688D01*
X115349820Y-101478998D01*
X115239506Y-101537963D01*
X115142815Y-101617315D01*
X115063463Y-101714006D01*
X115004498Y-101824320D01*
X114968188Y-101944018D01*
X114955928Y-102068500D01*
X114955928Y-104394000D01*
X114912366Y-104394000D01*
X114911000Y-103854250D01*
X114752250Y-103695500D01*
X112903000Y-103695500D01*
X112903000Y-103715500D01*
X112649000Y-103715500D01*
X112649000Y-103695500D01*
X110799750Y-103695500D01*
X110641000Y-103854250D01*
X110639634Y-104394000D01*
X110596072Y-104394000D01*
X110596072Y-102068500D01*
X110637928Y-102068500D01*
X110641000Y-103282750D01*
X110799750Y-103441500D01*
X112649000Y-103441500D01*
X112649000Y-101592250D01*
X112903000Y-101592250D01*
X112903000Y-103441500D01*
X114752250Y-103441500D01*
X114911000Y-103282750D01*
X114914072Y-102068500D01*
X114901812Y-101944018D01*
X114865502Y-101824320D01*
X114806537Y-101714006D01*
X114727185Y-101617315D01*
X114630494Y-101537963D01*
X114520180Y-101478998D01*
X114400482Y-101442688D01*
X114276000Y-101430428D01*
X113061750Y-101433500D01*
X112903000Y-101592250D01*
X112649000Y-101592250D01*
X112490250Y-101433500D01*
X111276000Y-101430428D01*
X111151518Y-101442688D01*
X111031820Y-101478998D01*
X110921506Y-101537963D01*
X110824815Y-101617315D01*
X110745463Y-101714006D01*
X110686498Y-101824320D01*
X110650188Y-101944018D01*
X110637928Y-102068500D01*
X110596072Y-102068500D01*
X110583812Y-101944018D01*
X110547502Y-101824320D01*
X110488537Y-101714006D01*
X110409185Y-101617315D01*
X110312494Y-101537963D01*
X110202180Y-101478998D01*
X110082482Y-101442688D01*
X109958000Y-101430428D01*
X106958000Y-101430428D01*
X106833518Y-101442688D01*
X106713820Y-101478998D01*
X106603506Y-101537963D01*
X106506815Y-101617315D01*
X106427463Y-101714006D01*
X106368498Y-101824320D01*
X106332188Y-101944018D01*
X106319928Y-102068500D01*
X106319928Y-105068500D01*
X106332188Y-105192982D01*
X106368498Y-105312680D01*
X106427463Y-105422994D01*
X106506815Y-105519685D01*
X106603506Y-105599037D01*
X106713820Y-105658002D01*
X106833518Y-105694312D01*
X106958000Y-105706572D01*
X106979501Y-105706572D01*
X106979500Y-106157042D01*
X106957528Y-106198149D01*
X106906992Y-106364745D01*
X106889928Y-106537999D01*
X106889928Y-107838001D01*
X106906992Y-108011255D01*
X106957528Y-108177851D01*
X106979500Y-108218958D01*
X106979501Y-118291012D01*
X106973642Y-118350500D01*
X106997023Y-118587896D01*
X107066269Y-118816171D01*
X107081726Y-118845089D01*
X107178720Y-119026551D01*
X107202686Y-119055753D01*
X107292131Y-119164743D01*
X107292134Y-119164746D01*
X107330052Y-119210949D01*
X107376254Y-119248866D01*
X108526133Y-120398746D01*
X108564051Y-120444949D01*
X108610254Y-120482867D01*
X108610256Y-120482869D01*
X108718459Y-120571669D01*
X108748449Y-120596281D01*
X108958828Y-120708731D01*
X109187103Y-120777977D01*
X109365014Y-120795500D01*
X109365021Y-120795500D01*
X109424500Y-120801358D01*
X109483979Y-120795500D01*
X109837775Y-120795500D01*
X109922506Y-120865037D01*
X110032820Y-120924002D01*
X110066000Y-120934067D01*
X110066001Y-121833679D01*
X110037538Y-121857038D01*
X109927095Y-121991613D01*
X109845028Y-122145148D01*
X109794492Y-122311744D01*
X109777428Y-122484998D01*
X109777428Y-123310002D01*
X109794492Y-123483256D01*
X109845028Y-123649852D01*
X109927095Y-123803387D01*
X110037538Y-123937962D01*
X110172113Y-124048405D01*
X110325648Y-124130472D01*
X110492244Y-124181008D01*
X110665498Y-124198072D01*
X111965502Y-124198072D01*
X112138756Y-124181008D01*
X112305352Y-124130472D01*
X112458887Y-124048405D01*
X112580002Y-123949009D01*
X112608090Y-124001559D01*
X112690968Y-124102546D01*
X112690971Y-124102549D01*
X112718684Y-124136317D01*
X112752451Y-124164029D01*
X113894423Y-125306002D01*
X113922136Y-125339770D01*
X113955904Y-125367483D01*
X113955906Y-125367485D01*
X114056894Y-125450364D01*
X114210639Y-125532542D01*
X114325925Y-125567514D01*
X114377463Y-125583148D01*
X114507476Y-125595953D01*
X114507484Y-125595953D01*
X114550953Y-125600234D01*
X114594422Y-125595953D01*
X114605352Y-125595953D01*
X114606500Y-125736750D01*
X114765250Y-125895500D01*
X116014500Y-125895500D01*
X116014500Y-125875500D01*
X116268500Y-125875500D01*
X116268500Y-125895500D01*
X117517750Y-125895500D01*
X117676500Y-125736750D01*
X117677648Y-125595953D01*
X117994375Y-125595953D01*
X123485970Y-131087549D01*
X123513683Y-131121317D01*
X123547451Y-131149030D01*
X123547453Y-131149032D01*
X123618952Y-131207710D01*
X123648441Y-131231911D01*
X123802187Y-131314089D01*
X123969010Y-131364695D01*
X124099023Y-131377500D01*
X124099033Y-131377500D01*
X124142499Y-131381781D01*
X124185965Y-131377500D01*
X126349531Y-131377500D01*
X126393000Y-131381781D01*
X126436469Y-131377500D01*
X126436477Y-131377500D01*
X126566490Y-131364695D01*
X126733313Y-131314089D01*
X126887059Y-131231911D01*
X127021817Y-131121317D01*
X127049534Y-131087544D01*
X127598506Y-130538572D01*
X128260001Y-130538572D01*
X128433255Y-130521508D01*
X128599851Y-130470972D01*
X128753387Y-130388905D01*
X128887962Y-130278462D01*
X128998405Y-130143887D01*
X129080472Y-129990351D01*
X129131008Y-129823755D01*
X129148072Y-129650501D01*
X129148072Y-129025500D01*
X130886519Y-129025500D01*
X130942006Y-129071037D01*
X131052320Y-129130002D01*
X131172018Y-129166312D01*
X131296500Y-129178572D01*
X132196500Y-129178572D01*
X132281428Y-129170208D01*
X132281428Y-129650501D01*
X132298492Y-129823755D01*
X132349028Y-129990351D01*
X132431095Y-130143887D01*
X132541538Y-130278462D01*
X132676113Y-130388905D01*
X132829649Y-130470972D01*
X132996245Y-130521508D01*
X133169499Y-130538572D01*
X134419501Y-130538572D01*
X134592755Y-130521508D01*
X134759351Y-130470972D01*
X134912887Y-130388905D01*
X134920996Y-130382250D01*
X134978006Y-130429037D01*
X135088320Y-130488002D01*
X135208018Y-130524312D01*
X135332500Y-130536572D01*
X135921750Y-130533500D01*
X136080500Y-130374750D01*
X136080500Y-129375500D01*
X136334500Y-129375500D01*
X136334500Y-130374750D01*
X136493250Y-130533500D01*
X137082500Y-130536572D01*
X137206982Y-130524312D01*
X137326680Y-130488002D01*
X137436994Y-130429037D01*
X137533685Y-130349685D01*
X137613037Y-130252994D01*
X137672002Y-130142680D01*
X137708312Y-130022982D01*
X137720572Y-129898500D01*
X137717500Y-129534250D01*
X137558750Y-129375500D01*
X136334500Y-129375500D01*
X136080500Y-129375500D01*
X136060500Y-129375500D01*
X136060500Y-129121500D01*
X136080500Y-129121500D01*
X136080500Y-129101500D01*
X136334500Y-129101500D01*
X136334500Y-129121500D01*
X137558750Y-129121500D01*
X137717500Y-128962750D01*
X137720163Y-128647000D01*
X137957928Y-128647000D01*
X137957928Y-128993000D01*
X137970188Y-129117482D01*
X138006498Y-129237180D01*
X138065463Y-129347494D01*
X138144815Y-129444185D01*
X138241506Y-129523537D01*
X138351820Y-129582502D01*
X138471518Y-129618812D01*
X138596000Y-129631072D01*
X140296000Y-129631072D01*
X140420482Y-129618812D01*
X140540180Y-129582502D01*
X140650494Y-129523537D01*
X140747185Y-129444185D01*
X140826537Y-129347494D01*
X140885502Y-129237180D01*
X140921812Y-129117482D01*
X140934072Y-128993000D01*
X140934072Y-127293000D01*
X140921812Y-127168518D01*
X140885502Y-127048820D01*
X140826537Y-126938506D01*
X140747185Y-126841815D01*
X140650494Y-126762463D01*
X140540180Y-126703498D01*
X140459534Y-126679034D01*
X140543588Y-126603269D01*
X140717641Y-126369920D01*
X140842825Y-126107099D01*
X140887476Y-125959890D01*
X140766155Y-125730000D01*
X139573000Y-125730000D01*
X139573000Y-125750000D01*
X139319000Y-125750000D01*
X139319000Y-125730000D01*
X138125845Y-125730000D01*
X138004524Y-125959890D01*
X138049175Y-126107099D01*
X138174359Y-126369920D01*
X138348412Y-126603269D01*
X138432466Y-126679034D01*
X138351820Y-126703498D01*
X138241506Y-126762463D01*
X138144815Y-126841815D01*
X138115940Y-126877000D01*
X137656415Y-126877000D01*
X137703508Y-126721755D01*
X137720572Y-126548501D01*
X137720572Y-125748499D01*
X137703508Y-125575245D01*
X137652972Y-125408649D01*
X137570905Y-125255113D01*
X137460462Y-125120538D01*
X137325887Y-125010095D01*
X137172351Y-124928028D01*
X137005755Y-124877492D01*
X136832501Y-124860428D01*
X136349231Y-124860428D01*
X135108800Y-123619998D01*
X135578751Y-123618501D01*
X135737501Y-123459751D01*
X135737501Y-122610501D01*
X135717501Y-122610501D01*
X135717501Y-122356501D01*
X135737501Y-122356501D01*
X135737501Y-122336501D01*
X135991501Y-122336501D01*
X135991501Y-122356501D01*
X136011501Y-122356501D01*
X136011501Y-122610501D01*
X135991501Y-122610501D01*
X135991501Y-123459751D01*
X136150251Y-123618501D01*
X137114501Y-123621573D01*
X137198424Y-123613308D01*
X137216454Y-123672746D01*
X137287026Y-123804776D01*
X137356447Y-123889365D01*
X137382000Y-123920501D01*
X137410998Y-123944299D01*
X138229223Y-124762525D01*
X138174359Y-124836080D01*
X138049175Y-125098901D01*
X138004524Y-125246110D01*
X138125845Y-125476000D01*
X139319000Y-125476000D01*
X139319000Y-125456000D01*
X139573000Y-125456000D01*
X139573000Y-125476000D01*
X140766155Y-125476000D01*
X140887476Y-125246110D01*
X140842825Y-125098901D01*
X140738817Y-124880538D01*
X140748001Y-124873001D01*
X140771804Y-124843997D01*
X142032023Y-123583779D01*
X142061020Y-123559982D01*
X142155993Y-123444257D01*
X142226565Y-123312228D01*
X142270022Y-123168967D01*
X142281019Y-123057314D01*
X142281019Y-123057305D01*
X142284695Y-123019982D01*
X142281019Y-122982659D01*
X142281019Y-106125342D01*
X142284695Y-106088019D01*
X142281019Y-106050696D01*
X142281019Y-106050686D01*
X142270022Y-105939033D01*
X142226565Y-105795772D01*
X142177244Y-105703500D01*
X142155993Y-105663742D01*
X142084818Y-105577016D01*
X142061020Y-105548018D01*
X142032022Y-105524220D01*
X141014209Y-104506408D01*
X141058000Y-104286260D01*
X141058000Y-103993740D01*
X141000932Y-103706842D01*
X140888990Y-103436589D01*
X140726475Y-103193368D01*
X140594620Y-103061513D01*
X140667180Y-103039502D01*
X140777494Y-102980537D01*
X140874185Y-102901185D01*
X140953537Y-102804494D01*
X141012502Y-102694180D01*
X141048812Y-102574482D01*
X141061072Y-102450000D01*
X141058000Y-101885750D01*
X140899250Y-101727000D01*
X139700000Y-101727000D01*
X139700000Y-101747000D01*
X139446000Y-101747000D01*
X139446000Y-101727000D01*
X138246750Y-101727000D01*
X138088000Y-101885750D01*
X138084928Y-102450000D01*
X138097188Y-102574482D01*
X138133498Y-102694180D01*
X138192463Y-102804494D01*
X138271815Y-102901185D01*
X138368506Y-102980537D01*
X138478820Y-103039502D01*
X138551380Y-103061513D01*
X138419525Y-103193368D01*
X138257010Y-103436589D01*
X138145068Y-103706842D01*
X138088000Y-103993740D01*
X138088000Y-104286260D01*
X138145068Y-104573158D01*
X138257010Y-104843411D01*
X138419525Y-105086632D01*
X138626368Y-105293475D01*
X138800760Y-105410000D01*
X138626368Y-105526525D01*
X138419525Y-105733368D01*
X138257010Y-105976589D01*
X138145068Y-106246842D01*
X138109033Y-106428000D01*
X137922000Y-106428000D01*
X137922000Y-100750000D01*
X138084928Y-100750000D01*
X138088000Y-101314250D01*
X138246750Y-101473000D01*
X139446000Y-101473000D01*
X139446000Y-100273750D01*
X139700000Y-100273750D01*
X139700000Y-101473000D01*
X140899250Y-101473000D01*
X141058000Y-101314250D01*
X141061072Y-100750000D01*
X141048812Y-100625518D01*
X141012502Y-100505820D01*
X140953537Y-100395506D01*
X140874185Y-100298815D01*
X140777494Y-100219463D01*
X140667180Y-100160498D01*
X140547482Y-100124188D01*
X140423000Y-100111928D01*
X139858750Y-100115000D01*
X139700000Y-100273750D01*
X139446000Y-100273750D01*
X139287250Y-100115000D01*
X138723000Y-100111928D01*
X138598518Y-100124188D01*
X138478820Y-100160498D01*
X138368506Y-100219463D01*
X138271815Y-100298815D01*
X138192463Y-100395506D01*
X138133498Y-100505820D01*
X138097188Y-100625518D01*
X138084928Y-100750000D01*
X137922000Y-100750000D01*
X137922000Y-100101000D01*
X142723001Y-100101000D01*
X142723000Y-131801000D01*
X105879500Y-131801000D01*
X105879500Y-126685000D01*
X109777428Y-126685000D01*
X109789688Y-126809482D01*
X109825998Y-126929180D01*
X109884963Y-127039494D01*
X109964315Y-127136185D01*
X110061006Y-127215537D01*
X110171320Y-127274502D01*
X110291018Y-127310812D01*
X110415500Y-127323072D01*
X111029750Y-127320000D01*
X111188500Y-127161250D01*
X111188500Y-126149500D01*
X111442500Y-126149500D01*
X111442500Y-127161250D01*
X111601250Y-127320000D01*
X112215500Y-127323072D01*
X112339982Y-127310812D01*
X112459680Y-127274502D01*
X112569994Y-127215537D01*
X112666685Y-127136185D01*
X112746037Y-127039494D01*
X112805002Y-126929180D01*
X112841312Y-126809482D01*
X112853572Y-126685000D01*
X114603428Y-126685000D01*
X114615688Y-126809482D01*
X114651998Y-126929180D01*
X114710963Y-127039494D01*
X114790315Y-127136185D01*
X114887006Y-127215537D01*
X114997320Y-127274502D01*
X115117018Y-127310812D01*
X115241500Y-127323072D01*
X115855750Y-127320000D01*
X116014500Y-127161250D01*
X116014500Y-126149500D01*
X116268500Y-126149500D01*
X116268500Y-127161250D01*
X116427250Y-127320000D01*
X117041500Y-127323072D01*
X117165982Y-127310812D01*
X117285680Y-127274502D01*
X117395994Y-127215537D01*
X117492685Y-127136185D01*
X117572037Y-127039494D01*
X117631002Y-126929180D01*
X117667312Y-126809482D01*
X117679572Y-126685000D01*
X117676500Y-126308250D01*
X117517750Y-126149500D01*
X116268500Y-126149500D01*
X116014500Y-126149500D01*
X114765250Y-126149500D01*
X114606500Y-126308250D01*
X114603428Y-126685000D01*
X112853572Y-126685000D01*
X112850500Y-126308250D01*
X112691750Y-126149500D01*
X111442500Y-126149500D01*
X111188500Y-126149500D01*
X109939250Y-126149500D01*
X109780500Y-126308250D01*
X109777428Y-126685000D01*
X105879500Y-126685000D01*
X105879500Y-125360000D01*
X109777428Y-125360000D01*
X109780500Y-125736750D01*
X109939250Y-125895500D01*
X111188500Y-125895500D01*
X111188500Y-124883750D01*
X111442500Y-124883750D01*
X111442500Y-125895500D01*
X112691750Y-125895500D01*
X112850500Y-125736750D01*
X112853572Y-125360000D01*
X112841312Y-125235518D01*
X112805002Y-125115820D01*
X112746037Y-125005506D01*
X112666685Y-124908815D01*
X112569994Y-124829463D01*
X112459680Y-124770498D01*
X112339982Y-124734188D01*
X112215500Y-124721928D01*
X111601250Y-124725000D01*
X111442500Y-124883750D01*
X111188500Y-124883750D01*
X111029750Y-124725000D01*
X110415500Y-124721928D01*
X110291018Y-124734188D01*
X110171320Y-124770498D01*
X110061006Y-124829463D01*
X109964315Y-124908815D01*
X109884963Y-125005506D01*
X109825998Y-125115820D01*
X109789688Y-125235518D01*
X109777428Y-125360000D01*
X105879500Y-125360000D01*
X105879500Y-100101000D01*
X118618000Y-100101000D01*
X118618000Y-101432792D01*
%TA.AperFunction,Conductor*%
D23*
G36*
X118618000Y-101432792D02*
G01*
X118594000Y-101430428D01*
X115594000Y-101430428D01*
X115469518Y-101442688D01*
X115349820Y-101478998D01*
X115239506Y-101537963D01*
X115142815Y-101617315D01*
X115063463Y-101714006D01*
X115004498Y-101824320D01*
X114968188Y-101944018D01*
X114955928Y-102068500D01*
X114955928Y-104394000D01*
X114912366Y-104394000D01*
X114911000Y-103854250D01*
X114752250Y-103695500D01*
X112903000Y-103695500D01*
X112903000Y-103715500D01*
X112649000Y-103715500D01*
X112649000Y-103695500D01*
X110799750Y-103695500D01*
X110641000Y-103854250D01*
X110639634Y-104394000D01*
X110596072Y-104394000D01*
X110596072Y-102068500D01*
X110637928Y-102068500D01*
X110641000Y-103282750D01*
X110799750Y-103441500D01*
X112649000Y-103441500D01*
X112649000Y-101592250D01*
X112903000Y-101592250D01*
X112903000Y-103441500D01*
X114752250Y-103441500D01*
X114911000Y-103282750D01*
X114914072Y-102068500D01*
X114901812Y-101944018D01*
X114865502Y-101824320D01*
X114806537Y-101714006D01*
X114727185Y-101617315D01*
X114630494Y-101537963D01*
X114520180Y-101478998D01*
X114400482Y-101442688D01*
X114276000Y-101430428D01*
X113061750Y-101433500D01*
X112903000Y-101592250D01*
X112649000Y-101592250D01*
X112490250Y-101433500D01*
X111276000Y-101430428D01*
X111151518Y-101442688D01*
X111031820Y-101478998D01*
X110921506Y-101537963D01*
X110824815Y-101617315D01*
X110745463Y-101714006D01*
X110686498Y-101824320D01*
X110650188Y-101944018D01*
X110637928Y-102068500D01*
X110596072Y-102068500D01*
X110583812Y-101944018D01*
X110547502Y-101824320D01*
X110488537Y-101714006D01*
X110409185Y-101617315D01*
X110312494Y-101537963D01*
X110202180Y-101478998D01*
X110082482Y-101442688D01*
X109958000Y-101430428D01*
X106958000Y-101430428D01*
X106833518Y-101442688D01*
X106713820Y-101478998D01*
X106603506Y-101537963D01*
X106506815Y-101617315D01*
X106427463Y-101714006D01*
X106368498Y-101824320D01*
X106332188Y-101944018D01*
X106319928Y-102068500D01*
X106319928Y-105068500D01*
X106332188Y-105192982D01*
X106368498Y-105312680D01*
X106427463Y-105422994D01*
X106506815Y-105519685D01*
X106603506Y-105599037D01*
X106713820Y-105658002D01*
X106833518Y-105694312D01*
X106958000Y-105706572D01*
X106979501Y-105706572D01*
X106979500Y-106157042D01*
X106957528Y-106198149D01*
X106906992Y-106364745D01*
X106889928Y-106537999D01*
X106889928Y-107838001D01*
X106906992Y-108011255D01*
X106957528Y-108177851D01*
X106979500Y-108218958D01*
X106979501Y-118291012D01*
X106973642Y-118350500D01*
X106997023Y-118587896D01*
X107066269Y-118816171D01*
X107081726Y-118845089D01*
X107178720Y-119026551D01*
X107202686Y-119055753D01*
X107292131Y-119164743D01*
X107292134Y-119164746D01*
X107330052Y-119210949D01*
X107376254Y-119248866D01*
X108526133Y-120398746D01*
X108564051Y-120444949D01*
X108610254Y-120482867D01*
X108610256Y-120482869D01*
X108718459Y-120571669D01*
X108748449Y-120596281D01*
X108958828Y-120708731D01*
X109187103Y-120777977D01*
X109365014Y-120795500D01*
X109365021Y-120795500D01*
X109424500Y-120801358D01*
X109483979Y-120795500D01*
X109837775Y-120795500D01*
X109922506Y-120865037D01*
X110032820Y-120924002D01*
X110066000Y-120934067D01*
X110066001Y-121833679D01*
X110037538Y-121857038D01*
X109927095Y-121991613D01*
X109845028Y-122145148D01*
X109794492Y-122311744D01*
X109777428Y-122484998D01*
X109777428Y-123310002D01*
X109794492Y-123483256D01*
X109845028Y-123649852D01*
X109927095Y-123803387D01*
X110037538Y-123937962D01*
X110172113Y-124048405D01*
X110325648Y-124130472D01*
X110492244Y-124181008D01*
X110665498Y-124198072D01*
X111965502Y-124198072D01*
X112138756Y-124181008D01*
X112305352Y-124130472D01*
X112458887Y-124048405D01*
X112580002Y-123949009D01*
X112608090Y-124001559D01*
X112690968Y-124102546D01*
X112690971Y-124102549D01*
X112718684Y-124136317D01*
X112752451Y-124164029D01*
X113894423Y-125306002D01*
X113922136Y-125339770D01*
X113955904Y-125367483D01*
X113955906Y-125367485D01*
X114056894Y-125450364D01*
X114210639Y-125532542D01*
X114325925Y-125567514D01*
X114377463Y-125583148D01*
X114507476Y-125595953D01*
X114507484Y-125595953D01*
X114550953Y-125600234D01*
X114594422Y-125595953D01*
X114605352Y-125595953D01*
X114606500Y-125736750D01*
X114765250Y-125895500D01*
X116014500Y-125895500D01*
X116014500Y-125875500D01*
X116268500Y-125875500D01*
X116268500Y-125895500D01*
X117517750Y-125895500D01*
X117676500Y-125736750D01*
X117677648Y-125595953D01*
X117994375Y-125595953D01*
X123485970Y-131087549D01*
X123513683Y-131121317D01*
X123547451Y-131149030D01*
X123547453Y-131149032D01*
X123618952Y-131207710D01*
X123648441Y-131231911D01*
X123802187Y-131314089D01*
X123969010Y-131364695D01*
X124099023Y-131377500D01*
X124099033Y-131377500D01*
X124142499Y-131381781D01*
X124185965Y-131377500D01*
X126349531Y-131377500D01*
X126393000Y-131381781D01*
X126436469Y-131377500D01*
X126436477Y-131377500D01*
X126566490Y-131364695D01*
X126733313Y-131314089D01*
X126887059Y-131231911D01*
X127021817Y-131121317D01*
X127049534Y-131087544D01*
X127598506Y-130538572D01*
X128260001Y-130538572D01*
X128433255Y-130521508D01*
X128599851Y-130470972D01*
X128753387Y-130388905D01*
X128887962Y-130278462D01*
X128998405Y-130143887D01*
X129080472Y-129990351D01*
X129131008Y-129823755D01*
X129148072Y-129650501D01*
X129148072Y-129025500D01*
X130886519Y-129025500D01*
X130942006Y-129071037D01*
X131052320Y-129130002D01*
X131172018Y-129166312D01*
X131296500Y-129178572D01*
X132196500Y-129178572D01*
X132281428Y-129170208D01*
X132281428Y-129650501D01*
X132298492Y-129823755D01*
X132349028Y-129990351D01*
X132431095Y-130143887D01*
X132541538Y-130278462D01*
X132676113Y-130388905D01*
X132829649Y-130470972D01*
X132996245Y-130521508D01*
X133169499Y-130538572D01*
X134419501Y-130538572D01*
X134592755Y-130521508D01*
X134759351Y-130470972D01*
X134912887Y-130388905D01*
X134920996Y-130382250D01*
X134978006Y-130429037D01*
X135088320Y-130488002D01*
X135208018Y-130524312D01*
X135332500Y-130536572D01*
X135921750Y-130533500D01*
X136080500Y-130374750D01*
X136080500Y-129375500D01*
X136334500Y-129375500D01*
X136334500Y-130374750D01*
X136493250Y-130533500D01*
X137082500Y-130536572D01*
X137206982Y-130524312D01*
X137326680Y-130488002D01*
X137436994Y-130429037D01*
X137533685Y-130349685D01*
X137613037Y-130252994D01*
X137672002Y-130142680D01*
X137708312Y-130022982D01*
X137720572Y-129898500D01*
X137717500Y-129534250D01*
X137558750Y-129375500D01*
X136334500Y-129375500D01*
X136080500Y-129375500D01*
X136060500Y-129375500D01*
X136060500Y-129121500D01*
X136080500Y-129121500D01*
X136080500Y-129101500D01*
X136334500Y-129101500D01*
X136334500Y-129121500D01*
X137558750Y-129121500D01*
X137717500Y-128962750D01*
X137720163Y-128647000D01*
X137957928Y-128647000D01*
X137957928Y-128993000D01*
X137970188Y-129117482D01*
X138006498Y-129237180D01*
X138065463Y-129347494D01*
X138144815Y-129444185D01*
X138241506Y-129523537D01*
X138351820Y-129582502D01*
X138471518Y-129618812D01*
X138596000Y-129631072D01*
X140296000Y-129631072D01*
X140420482Y-129618812D01*
X140540180Y-129582502D01*
X140650494Y-129523537D01*
X140747185Y-129444185D01*
X140826537Y-129347494D01*
X140885502Y-129237180D01*
X140921812Y-129117482D01*
X140934072Y-128993000D01*
X140934072Y-127293000D01*
X140921812Y-127168518D01*
X140885502Y-127048820D01*
X140826537Y-126938506D01*
X140747185Y-126841815D01*
X140650494Y-126762463D01*
X140540180Y-126703498D01*
X140459534Y-126679034D01*
X140543588Y-126603269D01*
X140717641Y-126369920D01*
X140842825Y-126107099D01*
X140887476Y-125959890D01*
X140766155Y-125730000D01*
X139573000Y-125730000D01*
X139573000Y-125750000D01*
X139319000Y-125750000D01*
X139319000Y-125730000D01*
X138125845Y-125730000D01*
X138004524Y-125959890D01*
X138049175Y-126107099D01*
X138174359Y-126369920D01*
X138348412Y-126603269D01*
X138432466Y-126679034D01*
X138351820Y-126703498D01*
X138241506Y-126762463D01*
X138144815Y-126841815D01*
X138115940Y-126877000D01*
X137656415Y-126877000D01*
X137703508Y-126721755D01*
X137720572Y-126548501D01*
X137720572Y-125748499D01*
X137703508Y-125575245D01*
X137652972Y-125408649D01*
X137570905Y-125255113D01*
X137460462Y-125120538D01*
X137325887Y-125010095D01*
X137172351Y-124928028D01*
X137005755Y-124877492D01*
X136832501Y-124860428D01*
X136349231Y-124860428D01*
X135108800Y-123619998D01*
X135578751Y-123618501D01*
X135737501Y-123459751D01*
X135737501Y-122610501D01*
X135717501Y-122610501D01*
X135717501Y-122356501D01*
X135737501Y-122356501D01*
X135737501Y-122336501D01*
X135991501Y-122336501D01*
X135991501Y-122356501D01*
X136011501Y-122356501D01*
X136011501Y-122610501D01*
X135991501Y-122610501D01*
X135991501Y-123459751D01*
X136150251Y-123618501D01*
X137114501Y-123621573D01*
X137198424Y-123613308D01*
X137216454Y-123672746D01*
X137287026Y-123804776D01*
X137356447Y-123889365D01*
X137382000Y-123920501D01*
X137410998Y-123944299D01*
X138229223Y-124762525D01*
X138174359Y-124836080D01*
X138049175Y-125098901D01*
X138004524Y-125246110D01*
X138125845Y-125476000D01*
X139319000Y-125476000D01*
X139319000Y-125456000D01*
X139573000Y-125456000D01*
X139573000Y-125476000D01*
X140766155Y-125476000D01*
X140887476Y-125246110D01*
X140842825Y-125098901D01*
X140738817Y-124880538D01*
X140748001Y-124873001D01*
X140771804Y-124843997D01*
X142032023Y-123583779D01*
X142061020Y-123559982D01*
X142155993Y-123444257D01*
X142226565Y-123312228D01*
X142270022Y-123168967D01*
X142281019Y-123057314D01*
X142281019Y-123057305D01*
X142284695Y-123019982D01*
X142281019Y-122982659D01*
X142281019Y-106125342D01*
X142284695Y-106088019D01*
X142281019Y-106050696D01*
X142281019Y-106050686D01*
X142270022Y-105939033D01*
X142226565Y-105795772D01*
X142177244Y-105703500D01*
X142155993Y-105663742D01*
X142084818Y-105577016D01*
X142061020Y-105548018D01*
X142032022Y-105524220D01*
X141014209Y-104506408D01*
X141058000Y-104286260D01*
X141058000Y-103993740D01*
X141000932Y-103706842D01*
X140888990Y-103436589D01*
X140726475Y-103193368D01*
X140594620Y-103061513D01*
X140667180Y-103039502D01*
X140777494Y-102980537D01*
X140874185Y-102901185D01*
X140953537Y-102804494D01*
X141012502Y-102694180D01*
X141048812Y-102574482D01*
X141061072Y-102450000D01*
X141058000Y-101885750D01*
X140899250Y-101727000D01*
X139700000Y-101727000D01*
X139700000Y-101747000D01*
X139446000Y-101747000D01*
X139446000Y-101727000D01*
X138246750Y-101727000D01*
X138088000Y-101885750D01*
X138084928Y-102450000D01*
X138097188Y-102574482D01*
X138133498Y-102694180D01*
X138192463Y-102804494D01*
X138271815Y-102901185D01*
X138368506Y-102980537D01*
X138478820Y-103039502D01*
X138551380Y-103061513D01*
X138419525Y-103193368D01*
X138257010Y-103436589D01*
X138145068Y-103706842D01*
X138088000Y-103993740D01*
X138088000Y-104286260D01*
X138145068Y-104573158D01*
X138257010Y-104843411D01*
X138419525Y-105086632D01*
X138626368Y-105293475D01*
X138800760Y-105410000D01*
X138626368Y-105526525D01*
X138419525Y-105733368D01*
X138257010Y-105976589D01*
X138145068Y-106246842D01*
X138109033Y-106428000D01*
X137922000Y-106428000D01*
X137922000Y-100750000D01*
X138084928Y-100750000D01*
X138088000Y-101314250D01*
X138246750Y-101473000D01*
X139446000Y-101473000D01*
X139446000Y-100273750D01*
X139700000Y-100273750D01*
X139700000Y-101473000D01*
X140899250Y-101473000D01*
X141058000Y-101314250D01*
X141061072Y-100750000D01*
X141048812Y-100625518D01*
X141012502Y-100505820D01*
X140953537Y-100395506D01*
X140874185Y-100298815D01*
X140777494Y-100219463D01*
X140667180Y-100160498D01*
X140547482Y-100124188D01*
X140423000Y-100111928D01*
X139858750Y-100115000D01*
X139700000Y-100273750D01*
X139446000Y-100273750D01*
X139287250Y-100115000D01*
X138723000Y-100111928D01*
X138598518Y-100124188D01*
X138478820Y-100160498D01*
X138368506Y-100219463D01*
X138271815Y-100298815D01*
X138192463Y-100395506D01*
X138133498Y-100505820D01*
X138097188Y-100625518D01*
X138084928Y-100750000D01*
X137922000Y-100750000D01*
X137922000Y-100101000D01*
X142723001Y-100101000D01*
X142723000Y-131801000D01*
X105879500Y-131801000D01*
X105879500Y-126685000D01*
X109777428Y-126685000D01*
X109789688Y-126809482D01*
X109825998Y-126929180D01*
X109884963Y-127039494D01*
X109964315Y-127136185D01*
X110061006Y-127215537D01*
X110171320Y-127274502D01*
X110291018Y-127310812D01*
X110415500Y-127323072D01*
X111029750Y-127320000D01*
X111188500Y-127161250D01*
X111188500Y-126149500D01*
X111442500Y-126149500D01*
X111442500Y-127161250D01*
X111601250Y-127320000D01*
X112215500Y-127323072D01*
X112339982Y-127310812D01*
X112459680Y-127274502D01*
X112569994Y-127215537D01*
X112666685Y-127136185D01*
X112746037Y-127039494D01*
X112805002Y-126929180D01*
X112841312Y-126809482D01*
X112853572Y-126685000D01*
X114603428Y-126685000D01*
X114615688Y-126809482D01*
X114651998Y-126929180D01*
X114710963Y-127039494D01*
X114790315Y-127136185D01*
X114887006Y-127215537D01*
X114997320Y-127274502D01*
X115117018Y-127310812D01*
X115241500Y-127323072D01*
X115855750Y-127320000D01*
X116014500Y-127161250D01*
X116014500Y-126149500D01*
X116268500Y-126149500D01*
X116268500Y-127161250D01*
X116427250Y-127320000D01*
X117041500Y-127323072D01*
X117165982Y-127310812D01*
X117285680Y-127274502D01*
X117395994Y-127215537D01*
X117492685Y-127136185D01*
X117572037Y-127039494D01*
X117631002Y-126929180D01*
X117667312Y-126809482D01*
X117679572Y-126685000D01*
X117676500Y-126308250D01*
X117517750Y-126149500D01*
X116268500Y-126149500D01*
X116014500Y-126149500D01*
X114765250Y-126149500D01*
X114606500Y-126308250D01*
X114603428Y-126685000D01*
X112853572Y-126685000D01*
X112850500Y-126308250D01*
X112691750Y-126149500D01*
X111442500Y-126149500D01*
X111188500Y-126149500D01*
X109939250Y-126149500D01*
X109780500Y-126308250D01*
X109777428Y-126685000D01*
X105879500Y-126685000D01*
X105879500Y-125360000D01*
X109777428Y-125360000D01*
X109780500Y-125736750D01*
X109939250Y-125895500D01*
X111188500Y-125895500D01*
X111188500Y-124883750D01*
X111442500Y-124883750D01*
X111442500Y-125895500D01*
X112691750Y-125895500D01*
X112850500Y-125736750D01*
X112853572Y-125360000D01*
X112841312Y-125235518D01*
X112805002Y-125115820D01*
X112746037Y-125005506D01*
X112666685Y-124908815D01*
X112569994Y-124829463D01*
X112459680Y-124770498D01*
X112339982Y-124734188D01*
X112215500Y-124721928D01*
X111601250Y-124725000D01*
X111442500Y-124883750D01*
X111188500Y-124883750D01*
X111029750Y-124725000D01*
X110415500Y-124721928D01*
X110291018Y-124734188D01*
X110171320Y-124770498D01*
X110061006Y-124829463D01*
X109964315Y-124908815D01*
X109884963Y-125005506D01*
X109825998Y-125115820D01*
X109789688Y-125235518D01*
X109777428Y-125360000D01*
X105879500Y-125360000D01*
X105879500Y-100101000D01*
X118618000Y-100101000D01*
X118618000Y-101432792D01*
G37*
%TD.AperFunction*%
%TD*%
M02*
