%TF.GenerationSoftware,KiCad,Pcbnew,(5.1.9)-1*%
%TF.CreationDate,2021-10-20T11:11:32-07:00*%
%TF.ProjectId,LED-Controller-ESP-12F,4c45442d-436f-46e7-9472-6f6c6c65722d,A*%
%TF.SameCoordinates,Original*%
%TF.FileFunction,Copper,L1,Top*%
%TF.FilePolarity,Positive*%
%FSLAX46Y46*%
G04 Gerber Fmt 4.6, Leading zero omitted, Abs format (unit mm)*
G04 Created by KiCad (PCBNEW (5.1.9)-1) date 2021-10-20 11:11:32*
%MOMM*%
%LPD*%
G01*
G04 APERTURE LIST*
%TA.AperFunction,ComponentPad*%
%ADD10R,1.700000X1.700000*%
%TD*%
%TA.AperFunction,ComponentPad*%
%ADD11O,1.700000X1.700000*%
%TD*%
%TA.AperFunction,SMDPad,CuDef*%
%ADD12R,2.100000X1.400000*%
%TD*%
%TA.AperFunction,SMDPad,CuDef*%
%ADD13R,1.060000X0.650000*%
%TD*%
%TA.AperFunction,SMDPad,CuDef*%
%ADD14R,2.500000X1.000000*%
%TD*%
%TA.AperFunction,SMDPad,CuDef*%
%ADD15R,1.000000X1.800000*%
%TD*%
%TA.AperFunction,ComponentPad*%
%ADD16C,2.000000*%
%TD*%
%TA.AperFunction,ViaPad*%
%ADD17C,0.800000*%
%TD*%
%TA.AperFunction,Conductor*%
%ADD18C,0.300387*%
%TD*%
%TA.AperFunction,Conductor*%
%ADD19C,1.152000*%
%TD*%
%TA.AperFunction,Conductor*%
%ADD20C,0.250000*%
%TD*%
%TA.AperFunction,Conductor*%
%ADD21C,0.254000*%
%TD*%
%TA.AperFunction,Conductor*%
%ADD22C,0.100000*%
%TD*%
G04 APERTURE END LIST*
%TO.P,C1,1*%
%TO.N,5V*%
%TA.AperFunction,SMDPad,CuDef*%
G36*
G01*
X109859500Y-112997000D02*
X109859500Y-112047000D01*
G75*
G02*
X110109500Y-111797000I250000J0D01*
G01*
X110784500Y-111797000D01*
G75*
G02*
X111034500Y-112047000I0J-250000D01*
G01*
X111034500Y-112997000D01*
G75*
G02*
X110784500Y-113247000I-250000J0D01*
G01*
X110109500Y-113247000D01*
G75*
G02*
X109859500Y-112997000I0J250000D01*
G01*
G37*
%TD.AperFunction*%
%TO.P,C1,2*%
%TO.N,GROUND*%
%TA.AperFunction,SMDPad,CuDef*%
G36*
G01*
X111934500Y-112997000D02*
X111934500Y-112047000D01*
G75*
G02*
X112184500Y-111797000I250000J0D01*
G01*
X112859500Y-111797000D01*
G75*
G02*
X113109500Y-112047000I0J-250000D01*
G01*
X113109500Y-112997000D01*
G75*
G02*
X112859500Y-113247000I-250000J0D01*
G01*
X112184500Y-113247000D01*
G75*
G02*
X111934500Y-112997000I0J250000D01*
G01*
G37*
%TD.AperFunction*%
%TD*%
%TO.P,C2,2*%
%TO.N,GROUND*%
%TA.AperFunction,SMDPad,CuDef*%
G36*
G01*
X111934500Y-115029000D02*
X111934500Y-114079000D01*
G75*
G02*
X112184500Y-113829000I250000J0D01*
G01*
X112859500Y-113829000D01*
G75*
G02*
X113109500Y-114079000I0J-250000D01*
G01*
X113109500Y-115029000D01*
G75*
G02*
X112859500Y-115279000I-250000J0D01*
G01*
X112184500Y-115279000D01*
G75*
G02*
X111934500Y-115029000I0J250000D01*
G01*
G37*
%TD.AperFunction*%
%TO.P,C2,1*%
%TO.N,Net-(C2-Pad1)*%
%TA.AperFunction,SMDPad,CuDef*%
G36*
G01*
X109859500Y-115029000D02*
X109859500Y-114079000D01*
G75*
G02*
X110109500Y-113829000I250000J0D01*
G01*
X110784500Y-113829000D01*
G75*
G02*
X111034500Y-114079000I0J-250000D01*
G01*
X111034500Y-115029000D01*
G75*
G02*
X110784500Y-115279000I-250000J0D01*
G01*
X110109500Y-115279000D01*
G75*
G02*
X109859500Y-115029000I0J250000D01*
G01*
G37*
%TD.AperFunction*%
%TD*%
%TO.P,C3,1*%
%TO.N,3V3*%
%TA.AperFunction,SMDPad,CuDef*%
G36*
G01*
X109859500Y-117061000D02*
X109859500Y-116111000D01*
G75*
G02*
X110109500Y-115861000I250000J0D01*
G01*
X110784500Y-115861000D01*
G75*
G02*
X111034500Y-116111000I0J-250000D01*
G01*
X111034500Y-117061000D01*
G75*
G02*
X110784500Y-117311000I-250000J0D01*
G01*
X110109500Y-117311000D01*
G75*
G02*
X109859500Y-117061000I0J250000D01*
G01*
G37*
%TD.AperFunction*%
%TO.P,C3,2*%
%TO.N,GROUND*%
%TA.AperFunction,SMDPad,CuDef*%
G36*
G01*
X111934500Y-117061000D02*
X111934500Y-116111000D01*
G75*
G02*
X112184500Y-115861000I250000J0D01*
G01*
X112859500Y-115861000D01*
G75*
G02*
X113109500Y-116111000I0J-250000D01*
G01*
X113109500Y-117061000D01*
G75*
G02*
X112859500Y-117311000I-250000J0D01*
G01*
X112184500Y-117311000D01*
G75*
G02*
X111934500Y-117061000I0J250000D01*
G01*
G37*
%TD.AperFunction*%
%TD*%
D10*
%TO.P,J1,1*%
%TO.N,5V*%
X111252000Y-105664000D03*
D11*
%TO.P,J1,2*%
%TO.N,GROUND*%
X113792000Y-105664000D03*
%TD*%
D10*
%TO.P,J2,1*%
%TO.N,5V*%
X111252000Y-101854000D03*
D11*
%TO.P,J2,2*%
%TO.N,DATA*%
X113792000Y-101854000D03*
%TO.P,J2,3*%
%TO.N,GROUND*%
X116332000Y-101854000D03*
%TD*%
D10*
%TO.P,J3,1*%
%TO.N,3V3*%
X140970000Y-101854000D03*
D11*
%TO.P,J3,2*%
%TO.N,GROUND*%
X140970000Y-104394000D03*
%TO.P,J3,3*%
%TO.N,RX*%
X140970000Y-106934000D03*
%TO.P,J3,4*%
%TO.N,TX*%
X140970000Y-109474000D03*
%TO.P,J3,5*%
%TO.N,RESET*%
X140970000Y-112014000D03*
%TO.P,J3,6*%
%TO.N,Net-(J3-Pad6)*%
X140970000Y-114554000D03*
%TD*%
%TO.P,R1,2*%
%TO.N,RESET*%
%TA.AperFunction,SMDPad,CuDef*%
G36*
G01*
X118018000Y-109162001D02*
X118018000Y-108261999D01*
G75*
G02*
X118267999Y-108012000I249999J0D01*
G01*
X118968001Y-108012000D01*
G75*
G02*
X119218000Y-108261999I0J-249999D01*
G01*
X119218000Y-109162001D01*
G75*
G02*
X118968001Y-109412000I-249999J0D01*
G01*
X118267999Y-109412000D01*
G75*
G02*
X118018000Y-109162001I0J249999D01*
G01*
G37*
%TD.AperFunction*%
%TO.P,R1,1*%
%TO.N,3V3*%
%TA.AperFunction,SMDPad,CuDef*%
G36*
G01*
X116018000Y-109162001D02*
X116018000Y-108261999D01*
G75*
G02*
X116267999Y-108012000I249999J0D01*
G01*
X116968001Y-108012000D01*
G75*
G02*
X117218000Y-108261999I0J-249999D01*
G01*
X117218000Y-109162001D01*
G75*
G02*
X116968001Y-109412000I-249999J0D01*
G01*
X116267999Y-109412000D01*
G75*
G02*
X116018000Y-109162001I0J249999D01*
G01*
G37*
%TD.AperFunction*%
%TD*%
%TO.P,R2,1*%
%TO.N,3V3*%
%TA.AperFunction,SMDPad,CuDef*%
G36*
G01*
X116018000Y-111194001D02*
X116018000Y-110293999D01*
G75*
G02*
X116267999Y-110044000I249999J0D01*
G01*
X116968001Y-110044000D01*
G75*
G02*
X117218000Y-110293999I0J-249999D01*
G01*
X117218000Y-111194001D01*
G75*
G02*
X116968001Y-111444000I-249999J0D01*
G01*
X116267999Y-111444000D01*
G75*
G02*
X116018000Y-111194001I0J249999D01*
G01*
G37*
%TD.AperFunction*%
%TO.P,R2,2*%
%TO.N,ENABLE*%
%TA.AperFunction,SMDPad,CuDef*%
G36*
G01*
X118018000Y-111194001D02*
X118018000Y-110293999D01*
G75*
G02*
X118267999Y-110044000I249999J0D01*
G01*
X118968001Y-110044000D01*
G75*
G02*
X119218000Y-110293999I0J-249999D01*
G01*
X119218000Y-111194001D01*
G75*
G02*
X118968001Y-111444000I-249999J0D01*
G01*
X118267999Y-111444000D01*
G75*
G02*
X118018000Y-111194001I0J249999D01*
G01*
G37*
%TD.AperFunction*%
%TD*%
%TO.P,R3,2*%
%TO.N,GPIO2*%
%TA.AperFunction,SMDPad,CuDef*%
G36*
G01*
X140570000Y-121215999D02*
X140570000Y-122116001D01*
G75*
G02*
X140320001Y-122366000I-249999J0D01*
G01*
X139619999Y-122366000D01*
G75*
G02*
X139370000Y-122116001I0J249999D01*
G01*
X139370000Y-121215999D01*
G75*
G02*
X139619999Y-120966000I249999J0D01*
G01*
X140320001Y-120966000D01*
G75*
G02*
X140570000Y-121215999I0J-249999D01*
G01*
G37*
%TD.AperFunction*%
%TO.P,R3,1*%
%TO.N,3V3*%
%TA.AperFunction,SMDPad,CuDef*%
G36*
G01*
X142570000Y-121215999D02*
X142570000Y-122116001D01*
G75*
G02*
X142320001Y-122366000I-249999J0D01*
G01*
X141619999Y-122366000D01*
G75*
G02*
X141370000Y-122116001I0J249999D01*
G01*
X141370000Y-121215999D01*
G75*
G02*
X141619999Y-120966000I249999J0D01*
G01*
X142320001Y-120966000D01*
G75*
G02*
X142570000Y-121215999I0J-249999D01*
G01*
G37*
%TD.AperFunction*%
%TD*%
%TO.P,R4,1*%
%TO.N,GPIO0*%
%TA.AperFunction,SMDPad,CuDef*%
G36*
G01*
X139386000Y-120084001D02*
X139386000Y-119183999D01*
G75*
G02*
X139635999Y-118934000I249999J0D01*
G01*
X140336001Y-118934000D01*
G75*
G02*
X140586000Y-119183999I0J-249999D01*
G01*
X140586000Y-120084001D01*
G75*
G02*
X140336001Y-120334000I-249999J0D01*
G01*
X139635999Y-120334000D01*
G75*
G02*
X139386000Y-120084001I0J249999D01*
G01*
G37*
%TD.AperFunction*%
%TO.P,R4,2*%
%TO.N,3V3*%
%TA.AperFunction,SMDPad,CuDef*%
G36*
G01*
X141386000Y-120084001D02*
X141386000Y-119183999D01*
G75*
G02*
X141635999Y-118934000I249999J0D01*
G01*
X142336001Y-118934000D01*
G75*
G02*
X142586000Y-119183999I0J-249999D01*
G01*
X142586000Y-120084001D01*
G75*
G02*
X142336001Y-120334000I-249999J0D01*
G01*
X141635999Y-120334000D01*
G75*
G02*
X141386000Y-120084001I0J249999D01*
G01*
G37*
%TD.AperFunction*%
%TD*%
%TO.P,R5,1*%
%TO.N,GROUND*%
%TA.AperFunction,SMDPad,CuDef*%
G36*
G01*
X142586000Y-123247999D02*
X142586000Y-124148001D01*
G75*
G02*
X142336001Y-124398000I-249999J0D01*
G01*
X141635999Y-124398000D01*
G75*
G02*
X141386000Y-124148001I0J249999D01*
G01*
X141386000Y-123247999D01*
G75*
G02*
X141635999Y-122998000I249999J0D01*
G01*
X142336001Y-122998000D01*
G75*
G02*
X142586000Y-123247999I0J-249999D01*
G01*
G37*
%TD.AperFunction*%
%TO.P,R5,2*%
%TO.N,GPIO15*%
%TA.AperFunction,SMDPad,CuDef*%
G36*
G01*
X140586000Y-123247999D02*
X140586000Y-124148001D01*
G75*
G02*
X140336001Y-124398000I-249999J0D01*
G01*
X139635999Y-124398000D01*
G75*
G02*
X139386000Y-124148001I0J249999D01*
G01*
X139386000Y-123247999D01*
G75*
G02*
X139635999Y-122998000I249999J0D01*
G01*
X140336001Y-122998000D01*
G75*
G02*
X140586000Y-123247999I0J-249999D01*
G01*
G37*
%TD.AperFunction*%
%TD*%
%TO.P,R6,2*%
%TO.N,GPIO0*%
%TA.AperFunction,SMDPad,CuDef*%
G36*
G01*
X140570000Y-117151999D02*
X140570000Y-118052001D01*
G75*
G02*
X140320001Y-118302000I-249999J0D01*
G01*
X139619999Y-118302000D01*
G75*
G02*
X139370000Y-118052001I0J249999D01*
G01*
X139370000Y-117151999D01*
G75*
G02*
X139619999Y-116902000I249999J0D01*
G01*
X140320001Y-116902000D01*
G75*
G02*
X140570000Y-117151999I0J-249999D01*
G01*
G37*
%TD.AperFunction*%
%TO.P,R6,1*%
%TO.N,Net-(R6-Pad1)*%
%TA.AperFunction,SMDPad,CuDef*%
G36*
G01*
X142570000Y-117151999D02*
X142570000Y-118052001D01*
G75*
G02*
X142320001Y-118302000I-249999J0D01*
G01*
X141619999Y-118302000D01*
G75*
G02*
X141370000Y-118052001I0J249999D01*
G01*
X141370000Y-117151999D01*
G75*
G02*
X141619999Y-116902000I249999J0D01*
G01*
X142320001Y-116902000D01*
G75*
G02*
X142570000Y-117151999I0J-249999D01*
G01*
G37*
%TD.AperFunction*%
%TD*%
D12*
%TO.P,SW1,1*%
%TO.N,Net-(SW1-Pad1)*%
X111046000Y-119670000D03*
%TO.P,SW1,2*%
%TO.N,GROUND*%
X117046000Y-119670000D03*
%TO.P,SW1,3*%
%TO.N,Net-(SW1-Pad3)*%
X111046000Y-124170000D03*
%TO.P,SW1,4*%
%TO.N,Net-(R6-Pad1)*%
X117046000Y-124170000D03*
%TD*%
D13*
%TO.P,U1,5*%
%TO.N,3V3*%
X112606000Y-108524000D03*
%TO.P,U1,4*%
%TO.N,Net-(C2-Pad1)*%
X112606000Y-110424000D03*
%TO.P,U1,3*%
%TO.N,5V*%
X110406000Y-110424000D03*
%TO.P,U1,2*%
%TO.N,GROUND*%
X110406000Y-109474000D03*
%TO.P,U1,1*%
%TO.N,5V*%
X110406000Y-108524000D03*
%TD*%
%TO.P,U2,1*%
%TO.N,Net-(U2-Pad1)*%
X116502000Y-113604000D03*
%TO.P,U2,2*%
%TO.N,GPIO4*%
X116502000Y-114554000D03*
%TO.P,U2,3*%
%TO.N,GROUND*%
X116502000Y-115504000D03*
%TO.P,U2,4*%
%TO.N,DATA*%
X118702000Y-115504000D03*
%TO.P,U2,5*%
%TO.N,5V*%
X118702000Y-113604000D03*
%TD*%
D14*
%TO.P,U3,1*%
%TO.N,RESET*%
X121686000Y-108768000D03*
%TO.P,U3,2*%
%TO.N,Net-(U3-Pad2)*%
X121686000Y-110768000D03*
%TO.P,U3,3*%
%TO.N,ENABLE*%
X121686000Y-112768000D03*
%TO.P,U3,4*%
%TO.N,Net-(U3-Pad4)*%
X121686000Y-114768000D03*
%TO.P,U3,5*%
%TO.N,Net-(U3-Pad5)*%
X121686000Y-116768000D03*
%TO.P,U3,6*%
%TO.N,Net-(U3-Pad6)*%
X121686000Y-118768000D03*
%TO.P,U3,7*%
%TO.N,Net-(U3-Pad7)*%
X121686000Y-120768000D03*
%TO.P,U3,8*%
%TO.N,3V3*%
X121686000Y-122768000D03*
D15*
%TO.P,U3,9*%
%TO.N,Net-(U3-Pad9)*%
X124286000Y-124268000D03*
%TO.P,U3,10*%
%TO.N,Net-(U3-Pad10)*%
X126286000Y-124268000D03*
%TO.P,U3,11*%
%TO.N,Net-(U3-Pad11)*%
X128286000Y-124268000D03*
%TO.P,U3,12*%
%TO.N,Net-(U3-Pad12)*%
X130286000Y-124268000D03*
%TO.P,U3,13*%
%TO.N,Net-(U3-Pad13)*%
X132286000Y-124268000D03*
%TO.P,U3,14*%
%TO.N,Net-(U3-Pad14)*%
X134286000Y-124268000D03*
D14*
%TO.P,U3,15*%
%TO.N,GROUND*%
X136886000Y-122768000D03*
%TO.P,U3,16*%
%TO.N,GPIO15*%
X136886000Y-120768000D03*
%TO.P,U3,17*%
%TO.N,GPIO2*%
X136886000Y-118768000D03*
%TO.P,U3,18*%
%TO.N,GPIO0*%
X136886000Y-116768000D03*
%TO.P,U3,19*%
%TO.N,GPIO4*%
X136886000Y-114768000D03*
%TO.P,U3,20*%
%TO.N,Net-(U3-Pad20)*%
X136886000Y-112768000D03*
%TO.P,U3,21*%
%TO.N,RX*%
X136886000Y-110768000D03*
%TO.P,U3,22*%
%TO.N,TX*%
X136886000Y-108768000D03*
%TD*%
D16*
%TO.P,TP1,1*%
%TO.N,GPIO4*%
X117856000Y-105664000D03*
%TD*%
D17*
%TO.N,5V*%
X113792000Y-109474000D03*
X117094000Y-112268000D03*
%TO.N,GROUND*%
X115824000Y-116840000D03*
X134112000Y-121666000D03*
X113792000Y-114554000D03*
%TO.N,GPIO4*%
X133898000Y-114768000D03*
%TD*%
D18*
%TO.N,Net-(R6-Pad1)*%
X142240000Y-125730000D02*
X143256000Y-124714000D01*
X119888000Y-125730000D02*
X142240000Y-125730000D01*
X118328000Y-124170000D02*
X119888000Y-125730000D01*
X142936204Y-118568204D02*
X141970000Y-117602000D01*
X117046000Y-124170000D02*
X118328000Y-124170000D01*
X143240000Y-118872000D02*
X142936204Y-118568204D01*
X143256000Y-118872000D02*
X143240000Y-118872000D01*
X143256000Y-124714000D02*
X143256000Y-118872000D01*
%TO.N,5V*%
X111252000Y-107678000D02*
X110406000Y-108524000D01*
X111252000Y-105664000D02*
X111252000Y-107678000D01*
X111236387Y-108524000D02*
X111506000Y-108793613D01*
X110406000Y-108524000D02*
X111236387Y-108524000D01*
X111506000Y-110154387D02*
X111236387Y-110424000D01*
X111236387Y-110424000D02*
X110406000Y-110424000D01*
X110406000Y-112481000D02*
X110447000Y-112522000D01*
X110406000Y-110424000D02*
X110406000Y-112481000D01*
X111506000Y-108793613D02*
X111506000Y-109474000D01*
X111506000Y-109474000D02*
X111506000Y-110154387D01*
X111506000Y-109474000D02*
X113030000Y-109474000D01*
X113030000Y-109474000D02*
X113041806Y-109474000D01*
X113030000Y-109474000D02*
X113792000Y-109474000D01*
X113792000Y-109474000D02*
X113792000Y-109474000D01*
X118702000Y-113604000D02*
X118684000Y-113604000D01*
X118684000Y-113604000D02*
X117348000Y-112268000D01*
X117348000Y-112268000D02*
X117094000Y-112268000D01*
X117094000Y-112268000D02*
X117094000Y-112268000D01*
D19*
X111252000Y-101854000D02*
X111252000Y-105664000D01*
D18*
%TO.N,GROUND*%
X116502000Y-116162000D02*
X115824000Y-116840000D01*
X116502000Y-115504000D02*
X116502000Y-116162000D01*
X110406000Y-109474000D02*
X108966000Y-109474000D01*
X136906000Y-124460000D02*
X136906000Y-122788000D01*
X137414000Y-124968000D02*
X136906000Y-124460000D01*
X136906000Y-122788000D02*
X136886000Y-122768000D01*
X141224000Y-124968000D02*
X137414000Y-124968000D01*
X141986000Y-124206000D02*
X141224000Y-124968000D01*
X141986000Y-123698000D02*
X141986000Y-124206000D01*
D20*
%TO.N,Net-(C2-Pad1)*%
X110447000Y-114554000D02*
X110744000Y-114554000D01*
X110744000Y-114554000D02*
X111506000Y-113792000D01*
X111506000Y-111524000D02*
X112606000Y-110424000D01*
X111506000Y-113792000D02*
X111506000Y-111524000D01*
D18*
%TO.N,3V3*%
X116618000Y-108712000D02*
X116618000Y-110744000D01*
X112794000Y-108712000D02*
X112606000Y-108524000D01*
D20*
X141986000Y-121650000D02*
X141970000Y-121666000D01*
X141986000Y-119634000D02*
X141986000Y-121650000D01*
D18*
X116618000Y-108712000D02*
X114554000Y-108712000D01*
X114554000Y-108712000D02*
X112794000Y-108712000D01*
X119380000Y-122012387D02*
X120135613Y-122768000D01*
X120135613Y-122768000D02*
X121686000Y-122768000D01*
X119380000Y-118364000D02*
X119380000Y-122012387D01*
X114554000Y-108712000D02*
X114554000Y-117602000D01*
X110447000Y-117305000D02*
X110447000Y-116586000D01*
X110998000Y-117856000D02*
X110447000Y-117305000D01*
X114554000Y-117856000D02*
X110998000Y-117856000D01*
X114554000Y-117602000D02*
X114554000Y-117856000D01*
X118872000Y-117856000D02*
X119380000Y-118364000D01*
X114554000Y-117856000D02*
X118872000Y-117856000D01*
X123236387Y-122768000D02*
X130180387Y-115824000D01*
X121686000Y-122768000D02*
X123236387Y-122768000D01*
X130180387Y-115824000D02*
X140970000Y-115824000D01*
X140970000Y-118618000D02*
X141986000Y-119634000D01*
X140970000Y-115824000D02*
X140970000Y-118618000D01*
X142240000Y-102108000D02*
X141986000Y-101854000D01*
X142240000Y-115570000D02*
X142240000Y-102108000D01*
X141986000Y-115824000D02*
X142240000Y-115570000D01*
X141986000Y-101854000D02*
X140970000Y-101854000D01*
X140970000Y-115824000D02*
X141986000Y-115824000D01*
%TO.N,DATA*%
X118702000Y-115504000D02*
X118702000Y-115486000D01*
X118702000Y-115486000D02*
X119761000Y-114427000D01*
X118019386Y-111794204D02*
X117602000Y-111376818D01*
X118377556Y-111794204D02*
X118019386Y-111794204D01*
X119761000Y-113177648D02*
X118377556Y-111794204D01*
X119761000Y-114427000D02*
X119761000Y-113177648D01*
X117602000Y-108047182D02*
X117123818Y-107569000D01*
X117602000Y-111376818D02*
X117602000Y-108047182D01*
X117123818Y-107569000D02*
X116078000Y-107569000D01*
X116078000Y-107569000D02*
X115697000Y-107188000D01*
X115697000Y-103759000D02*
X113792000Y-101854000D01*
X115697000Y-107188000D02*
X115697000Y-103759000D01*
D20*
%TO.N,RX*%
X135152000Y-110768000D02*
X136886000Y-110768000D01*
X134874000Y-110490000D02*
X135152000Y-110768000D01*
X134874000Y-108204000D02*
X134874000Y-110490000D01*
X135135001Y-107942999D02*
X134874000Y-108204000D01*
X139961001Y-107942999D02*
X135135001Y-107942999D01*
X140970000Y-106934000D02*
X139961001Y-107942999D01*
%TO.N,TX*%
X137592000Y-109474000D02*
X136886000Y-108768000D01*
X140970000Y-109474000D02*
X137592000Y-109474000D01*
D18*
%TO.N,RESET*%
X121630000Y-108712000D02*
X121686000Y-108768000D01*
X118618000Y-108712000D02*
X121630000Y-108712000D01*
D20*
X140970000Y-112014000D02*
X140716000Y-111760000D01*
X140716000Y-111760000D02*
X131572000Y-111760000D01*
X128580000Y-108768000D02*
X121686000Y-108768000D01*
X131572000Y-111760000D02*
X128580000Y-108768000D01*
D18*
%TO.N,ENABLE*%
X120642000Y-112768000D02*
X121686000Y-112768000D01*
X118618000Y-110744000D02*
X120642000Y-112768000D01*
D20*
%TO.N,GPIO2*%
X139970000Y-121666000D02*
X139954000Y-121666000D01*
X139954000Y-121666000D02*
X138684000Y-120396000D01*
X138386000Y-118768000D02*
X136886000Y-118768000D01*
X138684000Y-119066000D02*
X138386000Y-118768000D01*
X138684000Y-120396000D02*
X138684000Y-119066000D01*
%TO.N,GPIO0*%
X139136000Y-116768000D02*
X139970000Y-117602000D01*
X136886000Y-116768000D02*
X139136000Y-116768000D01*
X139970000Y-119618000D02*
X139986000Y-119634000D01*
X139970000Y-117602000D02*
X139970000Y-119618000D01*
%TO.N,GPIO15*%
X138040000Y-120768000D02*
X136886000Y-120768000D01*
X138684000Y-121412000D02*
X138040000Y-120768000D01*
X139954000Y-123500998D02*
X138684000Y-122230998D01*
X139954000Y-123698000D02*
X139954000Y-123500998D01*
X138684000Y-122230998D02*
X138684000Y-121412000D01*
X139986000Y-123698000D02*
X139954000Y-123698000D01*
D18*
%TO.N,GPIO4*%
X136886000Y-114768000D02*
X133898000Y-114768000D01*
X124754000Y-114768000D02*
X123698000Y-115824000D01*
X120249648Y-115824000D02*
X119741648Y-116332000D01*
X123698000Y-115824000D02*
X120249648Y-115824000D01*
X119741648Y-116332000D02*
X117856000Y-116332000D01*
X117856000Y-116332000D02*
X117602000Y-116078000D01*
X117602000Y-116078000D02*
X117602000Y-115062000D01*
X117094000Y-114554000D02*
X116502000Y-114554000D01*
X117602000Y-115062000D02*
X117094000Y-114554000D01*
X133898000Y-114768000D02*
X124754000Y-114768000D01*
%TD*%
D21*
%TO.N,GROUND*%
X120015000Y-107792043D02*
X119984815Y-107816815D01*
X119905463Y-107913506D01*
X119898353Y-107926807D01*
X119789885Y-107926807D01*
X119788472Y-107922149D01*
X119706405Y-107768613D01*
X119595962Y-107634038D01*
X119461387Y-107523595D01*
X119307851Y-107441528D01*
X119141255Y-107390992D01*
X118968001Y-107373928D01*
X118267999Y-107373928D01*
X118094745Y-107390992D01*
X118065202Y-107399954D01*
X117964248Y-107299000D01*
X118017033Y-107299000D01*
X118332912Y-107236168D01*
X118630463Y-107112918D01*
X118898252Y-106933987D01*
X119125987Y-106706252D01*
X119304918Y-106438463D01*
X119428168Y-106140912D01*
X119491000Y-105825033D01*
X119491000Y-105502967D01*
X119428168Y-105187088D01*
X119304918Y-104889537D01*
X119125987Y-104621748D01*
X118898252Y-104394013D01*
X118630463Y-104215082D01*
X118332912Y-104091832D01*
X118017033Y-104029000D01*
X117694967Y-104029000D01*
X117379088Y-104091832D01*
X117081537Y-104215082D01*
X116813748Y-104394013D01*
X116586013Y-104621748D01*
X116482193Y-104777126D01*
X116482193Y-103797570D01*
X116485992Y-103759000D01*
X116482193Y-103720427D01*
X116470832Y-103605075D01*
X116425934Y-103457066D01*
X116362826Y-103339000D01*
X116459002Y-103339000D01*
X116459002Y-103174156D01*
X116688890Y-103295476D01*
X116836099Y-103250825D01*
X117098920Y-103125641D01*
X117332269Y-102951588D01*
X117527178Y-102735355D01*
X117676157Y-102485252D01*
X117773481Y-102210891D01*
X117652814Y-101981000D01*
X116459000Y-101981000D01*
X116459000Y-102001000D01*
X116205000Y-102001000D01*
X116205000Y-101981000D01*
X116185000Y-101981000D01*
X116185000Y-101727000D01*
X116205000Y-101727000D01*
X116205000Y-100533845D01*
X116459000Y-100533845D01*
X116459000Y-101727000D01*
X117652814Y-101727000D01*
X117773481Y-101497109D01*
X117676157Y-101222748D01*
X117527178Y-100972645D01*
X117332269Y-100756412D01*
X117098920Y-100582359D01*
X116836099Y-100457175D01*
X116688890Y-100412524D01*
X116459000Y-100533845D01*
X116205000Y-100533845D01*
X115975110Y-100412524D01*
X115827901Y-100457175D01*
X115565080Y-100582359D01*
X115331731Y-100756412D01*
X115136822Y-100972645D01*
X115067195Y-101089534D01*
X114945475Y-100907368D01*
X114738632Y-100700525D01*
X114495411Y-100538010D01*
X114225158Y-100426068D01*
X113938260Y-100369000D01*
X113645740Y-100369000D01*
X113358842Y-100426068D01*
X113088589Y-100538010D01*
X112845368Y-100700525D01*
X112713513Y-100832380D01*
X112691502Y-100759820D01*
X112632537Y-100649506D01*
X112553185Y-100552815D01*
X112456494Y-100473463D01*
X112346180Y-100414498D01*
X112226482Y-100378188D01*
X112102000Y-100365928D01*
X110402000Y-100365928D01*
X110277518Y-100378188D01*
X110157820Y-100414498D01*
X110047506Y-100473463D01*
X109950815Y-100552815D01*
X109871463Y-100649506D01*
X109812498Y-100759820D01*
X109776188Y-100879518D01*
X109763928Y-101004000D01*
X109763928Y-102704000D01*
X109776188Y-102828482D01*
X109812498Y-102948180D01*
X109871463Y-103058494D01*
X109950815Y-103155185D01*
X110041000Y-103229198D01*
X110041001Y-104288802D01*
X109950815Y-104362815D01*
X109871463Y-104459506D01*
X109812498Y-104569820D01*
X109776188Y-104689518D01*
X109763928Y-104814000D01*
X109763928Y-106514000D01*
X109776188Y-106638482D01*
X109812498Y-106758180D01*
X109871463Y-106868494D01*
X109950815Y-106965185D01*
X110047506Y-107044537D01*
X110157820Y-107103502D01*
X110277518Y-107139812D01*
X110402000Y-107152072D01*
X110466808Y-107152072D01*
X110466808Y-107352762D01*
X110258642Y-107560928D01*
X109876000Y-107560928D01*
X109751518Y-107573188D01*
X109631820Y-107609498D01*
X109521506Y-107668463D01*
X109424815Y-107747815D01*
X109345463Y-107844506D01*
X109286498Y-107954820D01*
X109250188Y-108074518D01*
X109237928Y-108199000D01*
X109237928Y-108849000D01*
X109250188Y-108973482D01*
X109257929Y-108999000D01*
X109250188Y-109024518D01*
X109237928Y-109149000D01*
X109241000Y-109188250D01*
X109399750Y-109347000D01*
X109481859Y-109347000D01*
X109521506Y-109379537D01*
X109631820Y-109438502D01*
X109748841Y-109474000D01*
X109631820Y-109509498D01*
X109521506Y-109568463D01*
X109481859Y-109601000D01*
X109399750Y-109601000D01*
X109241000Y-109759750D01*
X109237928Y-109799000D01*
X109250188Y-109923482D01*
X109257929Y-109949000D01*
X109250188Y-109974518D01*
X109237928Y-110099000D01*
X109237928Y-110749000D01*
X109250188Y-110873482D01*
X109286498Y-110993180D01*
X109345463Y-111103494D01*
X109424815Y-111200185D01*
X109521506Y-111279537D01*
X109600240Y-111321622D01*
X109481538Y-111419038D01*
X109371095Y-111553614D01*
X109289028Y-111707150D01*
X109238492Y-111873746D01*
X109221428Y-112047000D01*
X109221428Y-112997000D01*
X109238492Y-113170254D01*
X109289028Y-113336850D01*
X109371095Y-113490386D01*
X109410171Y-113538000D01*
X109371095Y-113585614D01*
X109289028Y-113739150D01*
X109238492Y-113905746D01*
X109221428Y-114079000D01*
X109221428Y-115029000D01*
X109238492Y-115202254D01*
X109289028Y-115368850D01*
X109371095Y-115522386D01*
X109410171Y-115570000D01*
X109371095Y-115617614D01*
X109289028Y-115771150D01*
X109238492Y-115937746D01*
X109221428Y-116111000D01*
X109221428Y-117061000D01*
X109238492Y-117234254D01*
X109289028Y-117400850D01*
X109371095Y-117554386D01*
X109481538Y-117688962D01*
X109616114Y-117799405D01*
X109769650Y-117881472D01*
X109936246Y-117932008D01*
X109966564Y-117934994D01*
X110363498Y-118331928D01*
X109996000Y-118331928D01*
X109871518Y-118344188D01*
X109751820Y-118380498D01*
X109641506Y-118439463D01*
X109544815Y-118518815D01*
X109465463Y-118615506D01*
X109406498Y-118725820D01*
X109370188Y-118845518D01*
X109357928Y-118970000D01*
X109357928Y-120370000D01*
X109370188Y-120494482D01*
X109406498Y-120614180D01*
X109465463Y-120724494D01*
X109544815Y-120821185D01*
X109641506Y-120900537D01*
X109751820Y-120959502D01*
X109871518Y-120995812D01*
X109996000Y-121008072D01*
X112096000Y-121008072D01*
X112220482Y-120995812D01*
X112340180Y-120959502D01*
X112450494Y-120900537D01*
X112547185Y-120821185D01*
X112626537Y-120724494D01*
X112685502Y-120614180D01*
X112721812Y-120494482D01*
X112734072Y-120370000D01*
X115357928Y-120370000D01*
X115370188Y-120494482D01*
X115406498Y-120614180D01*
X115465463Y-120724494D01*
X115544815Y-120821185D01*
X115641506Y-120900537D01*
X115751820Y-120959502D01*
X115871518Y-120995812D01*
X115996000Y-121008072D01*
X116760250Y-121005000D01*
X116919000Y-120846250D01*
X116919000Y-119797000D01*
X115519750Y-119797000D01*
X115361000Y-119955750D01*
X115357928Y-120370000D01*
X112734072Y-120370000D01*
X112734072Y-118970000D01*
X112721812Y-118845518D01*
X112685502Y-118725820D01*
X112640267Y-118641193D01*
X114515428Y-118641193D01*
X114554000Y-118644992D01*
X114592573Y-118641193D01*
X115451733Y-118641193D01*
X115406498Y-118725820D01*
X115370188Y-118845518D01*
X115357928Y-118970000D01*
X115361000Y-119384250D01*
X115519750Y-119543000D01*
X116919000Y-119543000D01*
X116919000Y-119523000D01*
X117173000Y-119523000D01*
X117173000Y-119543000D01*
X117193000Y-119543000D01*
X117193000Y-119797000D01*
X117173000Y-119797000D01*
X117173000Y-120846250D01*
X117331750Y-121005000D01*
X118096000Y-121008072D01*
X118220482Y-120995812D01*
X118340180Y-120959502D01*
X118450494Y-120900537D01*
X118547185Y-120821185D01*
X118594808Y-120763156D01*
X118594808Y-121973807D01*
X118591008Y-122012387D01*
X118606169Y-122166312D01*
X118651067Y-122314321D01*
X118723977Y-122450727D01*
X118783491Y-122523245D01*
X118822099Y-122570289D01*
X118852060Y-122594877D01*
X119553122Y-123295940D01*
X119577711Y-123325902D01*
X119609528Y-123352013D01*
X119697272Y-123424023D01*
X119770183Y-123462994D01*
X119833679Y-123496934D01*
X119842704Y-123499672D01*
X119846498Y-123512180D01*
X119905463Y-123622494D01*
X119984815Y-123719185D01*
X120081506Y-123798537D01*
X120191820Y-123857502D01*
X120311518Y-123893812D01*
X120436000Y-123906072D01*
X122936000Y-123906072D01*
X123060482Y-123893812D01*
X123147928Y-123867286D01*
X123147928Y-124944807D01*
X120213238Y-124944807D01*
X118910495Y-123642065D01*
X118885902Y-123612098D01*
X118766340Y-123513977D01*
X118734072Y-123496729D01*
X118734072Y-123470000D01*
X118721812Y-123345518D01*
X118685502Y-123225820D01*
X118626537Y-123115506D01*
X118547185Y-123018815D01*
X118450494Y-122939463D01*
X118340180Y-122880498D01*
X118220482Y-122844188D01*
X118096000Y-122831928D01*
X115996000Y-122831928D01*
X115871518Y-122844188D01*
X115751820Y-122880498D01*
X115641506Y-122939463D01*
X115544815Y-123018815D01*
X115465463Y-123115506D01*
X115406498Y-123225820D01*
X115370188Y-123345518D01*
X115357928Y-123470000D01*
X115357928Y-124870000D01*
X115370188Y-124994482D01*
X115406498Y-125114180D01*
X115465463Y-125224494D01*
X115544815Y-125321185D01*
X115641506Y-125400537D01*
X115751820Y-125459502D01*
X115871518Y-125495812D01*
X115996000Y-125508072D01*
X118096000Y-125508072D01*
X118220482Y-125495812D01*
X118340180Y-125459502D01*
X118448938Y-125401369D01*
X118854569Y-125807000D01*
X108889000Y-125807000D01*
X108889000Y-123470000D01*
X109357928Y-123470000D01*
X109357928Y-124870000D01*
X109370188Y-124994482D01*
X109406498Y-125114180D01*
X109465463Y-125224494D01*
X109544815Y-125321185D01*
X109641506Y-125400537D01*
X109751820Y-125459502D01*
X109871518Y-125495812D01*
X109996000Y-125508072D01*
X112096000Y-125508072D01*
X112220482Y-125495812D01*
X112340180Y-125459502D01*
X112450494Y-125400537D01*
X112547185Y-125321185D01*
X112626537Y-125224494D01*
X112685502Y-125114180D01*
X112721812Y-124994482D01*
X112734072Y-124870000D01*
X112734072Y-123470000D01*
X112721812Y-123345518D01*
X112685502Y-123225820D01*
X112626537Y-123115506D01*
X112547185Y-123018815D01*
X112450494Y-122939463D01*
X112340180Y-122880498D01*
X112220482Y-122844188D01*
X112096000Y-122831928D01*
X109996000Y-122831928D01*
X109871518Y-122844188D01*
X109751820Y-122880498D01*
X109641506Y-122939463D01*
X109544815Y-123018815D01*
X109465463Y-123115506D01*
X109406498Y-123225820D01*
X109370188Y-123345518D01*
X109357928Y-123470000D01*
X108889000Y-123470000D01*
X108889000Y-99491000D01*
X120015000Y-99491000D01*
X120015000Y-107792043D01*
%TA.AperFunction,Conductor*%
D22*
G36*
X120015000Y-107792043D02*
G01*
X119984815Y-107816815D01*
X119905463Y-107913506D01*
X119898353Y-107926807D01*
X119789885Y-107926807D01*
X119788472Y-107922149D01*
X119706405Y-107768613D01*
X119595962Y-107634038D01*
X119461387Y-107523595D01*
X119307851Y-107441528D01*
X119141255Y-107390992D01*
X118968001Y-107373928D01*
X118267999Y-107373928D01*
X118094745Y-107390992D01*
X118065202Y-107399954D01*
X117964248Y-107299000D01*
X118017033Y-107299000D01*
X118332912Y-107236168D01*
X118630463Y-107112918D01*
X118898252Y-106933987D01*
X119125987Y-106706252D01*
X119304918Y-106438463D01*
X119428168Y-106140912D01*
X119491000Y-105825033D01*
X119491000Y-105502967D01*
X119428168Y-105187088D01*
X119304918Y-104889537D01*
X119125987Y-104621748D01*
X118898252Y-104394013D01*
X118630463Y-104215082D01*
X118332912Y-104091832D01*
X118017033Y-104029000D01*
X117694967Y-104029000D01*
X117379088Y-104091832D01*
X117081537Y-104215082D01*
X116813748Y-104394013D01*
X116586013Y-104621748D01*
X116482193Y-104777126D01*
X116482193Y-103797570D01*
X116485992Y-103759000D01*
X116482193Y-103720427D01*
X116470832Y-103605075D01*
X116425934Y-103457066D01*
X116362826Y-103339000D01*
X116459002Y-103339000D01*
X116459002Y-103174156D01*
X116688890Y-103295476D01*
X116836099Y-103250825D01*
X117098920Y-103125641D01*
X117332269Y-102951588D01*
X117527178Y-102735355D01*
X117676157Y-102485252D01*
X117773481Y-102210891D01*
X117652814Y-101981000D01*
X116459000Y-101981000D01*
X116459000Y-102001000D01*
X116205000Y-102001000D01*
X116205000Y-101981000D01*
X116185000Y-101981000D01*
X116185000Y-101727000D01*
X116205000Y-101727000D01*
X116205000Y-100533845D01*
X116459000Y-100533845D01*
X116459000Y-101727000D01*
X117652814Y-101727000D01*
X117773481Y-101497109D01*
X117676157Y-101222748D01*
X117527178Y-100972645D01*
X117332269Y-100756412D01*
X117098920Y-100582359D01*
X116836099Y-100457175D01*
X116688890Y-100412524D01*
X116459000Y-100533845D01*
X116205000Y-100533845D01*
X115975110Y-100412524D01*
X115827901Y-100457175D01*
X115565080Y-100582359D01*
X115331731Y-100756412D01*
X115136822Y-100972645D01*
X115067195Y-101089534D01*
X114945475Y-100907368D01*
X114738632Y-100700525D01*
X114495411Y-100538010D01*
X114225158Y-100426068D01*
X113938260Y-100369000D01*
X113645740Y-100369000D01*
X113358842Y-100426068D01*
X113088589Y-100538010D01*
X112845368Y-100700525D01*
X112713513Y-100832380D01*
X112691502Y-100759820D01*
X112632537Y-100649506D01*
X112553185Y-100552815D01*
X112456494Y-100473463D01*
X112346180Y-100414498D01*
X112226482Y-100378188D01*
X112102000Y-100365928D01*
X110402000Y-100365928D01*
X110277518Y-100378188D01*
X110157820Y-100414498D01*
X110047506Y-100473463D01*
X109950815Y-100552815D01*
X109871463Y-100649506D01*
X109812498Y-100759820D01*
X109776188Y-100879518D01*
X109763928Y-101004000D01*
X109763928Y-102704000D01*
X109776188Y-102828482D01*
X109812498Y-102948180D01*
X109871463Y-103058494D01*
X109950815Y-103155185D01*
X110041000Y-103229198D01*
X110041001Y-104288802D01*
X109950815Y-104362815D01*
X109871463Y-104459506D01*
X109812498Y-104569820D01*
X109776188Y-104689518D01*
X109763928Y-104814000D01*
X109763928Y-106514000D01*
X109776188Y-106638482D01*
X109812498Y-106758180D01*
X109871463Y-106868494D01*
X109950815Y-106965185D01*
X110047506Y-107044537D01*
X110157820Y-107103502D01*
X110277518Y-107139812D01*
X110402000Y-107152072D01*
X110466808Y-107152072D01*
X110466808Y-107352762D01*
X110258642Y-107560928D01*
X109876000Y-107560928D01*
X109751518Y-107573188D01*
X109631820Y-107609498D01*
X109521506Y-107668463D01*
X109424815Y-107747815D01*
X109345463Y-107844506D01*
X109286498Y-107954820D01*
X109250188Y-108074518D01*
X109237928Y-108199000D01*
X109237928Y-108849000D01*
X109250188Y-108973482D01*
X109257929Y-108999000D01*
X109250188Y-109024518D01*
X109237928Y-109149000D01*
X109241000Y-109188250D01*
X109399750Y-109347000D01*
X109481859Y-109347000D01*
X109521506Y-109379537D01*
X109631820Y-109438502D01*
X109748841Y-109474000D01*
X109631820Y-109509498D01*
X109521506Y-109568463D01*
X109481859Y-109601000D01*
X109399750Y-109601000D01*
X109241000Y-109759750D01*
X109237928Y-109799000D01*
X109250188Y-109923482D01*
X109257929Y-109949000D01*
X109250188Y-109974518D01*
X109237928Y-110099000D01*
X109237928Y-110749000D01*
X109250188Y-110873482D01*
X109286498Y-110993180D01*
X109345463Y-111103494D01*
X109424815Y-111200185D01*
X109521506Y-111279537D01*
X109600240Y-111321622D01*
X109481538Y-111419038D01*
X109371095Y-111553614D01*
X109289028Y-111707150D01*
X109238492Y-111873746D01*
X109221428Y-112047000D01*
X109221428Y-112997000D01*
X109238492Y-113170254D01*
X109289028Y-113336850D01*
X109371095Y-113490386D01*
X109410171Y-113538000D01*
X109371095Y-113585614D01*
X109289028Y-113739150D01*
X109238492Y-113905746D01*
X109221428Y-114079000D01*
X109221428Y-115029000D01*
X109238492Y-115202254D01*
X109289028Y-115368850D01*
X109371095Y-115522386D01*
X109410171Y-115570000D01*
X109371095Y-115617614D01*
X109289028Y-115771150D01*
X109238492Y-115937746D01*
X109221428Y-116111000D01*
X109221428Y-117061000D01*
X109238492Y-117234254D01*
X109289028Y-117400850D01*
X109371095Y-117554386D01*
X109481538Y-117688962D01*
X109616114Y-117799405D01*
X109769650Y-117881472D01*
X109936246Y-117932008D01*
X109966564Y-117934994D01*
X110363498Y-118331928D01*
X109996000Y-118331928D01*
X109871518Y-118344188D01*
X109751820Y-118380498D01*
X109641506Y-118439463D01*
X109544815Y-118518815D01*
X109465463Y-118615506D01*
X109406498Y-118725820D01*
X109370188Y-118845518D01*
X109357928Y-118970000D01*
X109357928Y-120370000D01*
X109370188Y-120494482D01*
X109406498Y-120614180D01*
X109465463Y-120724494D01*
X109544815Y-120821185D01*
X109641506Y-120900537D01*
X109751820Y-120959502D01*
X109871518Y-120995812D01*
X109996000Y-121008072D01*
X112096000Y-121008072D01*
X112220482Y-120995812D01*
X112340180Y-120959502D01*
X112450494Y-120900537D01*
X112547185Y-120821185D01*
X112626537Y-120724494D01*
X112685502Y-120614180D01*
X112721812Y-120494482D01*
X112734072Y-120370000D01*
X115357928Y-120370000D01*
X115370188Y-120494482D01*
X115406498Y-120614180D01*
X115465463Y-120724494D01*
X115544815Y-120821185D01*
X115641506Y-120900537D01*
X115751820Y-120959502D01*
X115871518Y-120995812D01*
X115996000Y-121008072D01*
X116760250Y-121005000D01*
X116919000Y-120846250D01*
X116919000Y-119797000D01*
X115519750Y-119797000D01*
X115361000Y-119955750D01*
X115357928Y-120370000D01*
X112734072Y-120370000D01*
X112734072Y-118970000D01*
X112721812Y-118845518D01*
X112685502Y-118725820D01*
X112640267Y-118641193D01*
X114515428Y-118641193D01*
X114554000Y-118644992D01*
X114592573Y-118641193D01*
X115451733Y-118641193D01*
X115406498Y-118725820D01*
X115370188Y-118845518D01*
X115357928Y-118970000D01*
X115361000Y-119384250D01*
X115519750Y-119543000D01*
X116919000Y-119543000D01*
X116919000Y-119523000D01*
X117173000Y-119523000D01*
X117173000Y-119543000D01*
X117193000Y-119543000D01*
X117193000Y-119797000D01*
X117173000Y-119797000D01*
X117173000Y-120846250D01*
X117331750Y-121005000D01*
X118096000Y-121008072D01*
X118220482Y-120995812D01*
X118340180Y-120959502D01*
X118450494Y-120900537D01*
X118547185Y-120821185D01*
X118594808Y-120763156D01*
X118594808Y-121973807D01*
X118591008Y-122012387D01*
X118606169Y-122166312D01*
X118651067Y-122314321D01*
X118723977Y-122450727D01*
X118783491Y-122523245D01*
X118822099Y-122570289D01*
X118852060Y-122594877D01*
X119553122Y-123295940D01*
X119577711Y-123325902D01*
X119609528Y-123352013D01*
X119697272Y-123424023D01*
X119770183Y-123462994D01*
X119833679Y-123496934D01*
X119842704Y-123499672D01*
X119846498Y-123512180D01*
X119905463Y-123622494D01*
X119984815Y-123719185D01*
X120081506Y-123798537D01*
X120191820Y-123857502D01*
X120311518Y-123893812D01*
X120436000Y-123906072D01*
X122936000Y-123906072D01*
X123060482Y-123893812D01*
X123147928Y-123867286D01*
X123147928Y-124944807D01*
X120213238Y-124944807D01*
X118910495Y-123642065D01*
X118885902Y-123612098D01*
X118766340Y-123513977D01*
X118734072Y-123496729D01*
X118734072Y-123470000D01*
X118721812Y-123345518D01*
X118685502Y-123225820D01*
X118626537Y-123115506D01*
X118547185Y-123018815D01*
X118450494Y-122939463D01*
X118340180Y-122880498D01*
X118220482Y-122844188D01*
X118096000Y-122831928D01*
X115996000Y-122831928D01*
X115871518Y-122844188D01*
X115751820Y-122880498D01*
X115641506Y-122939463D01*
X115544815Y-123018815D01*
X115465463Y-123115506D01*
X115406498Y-123225820D01*
X115370188Y-123345518D01*
X115357928Y-123470000D01*
X115357928Y-124870000D01*
X115370188Y-124994482D01*
X115406498Y-125114180D01*
X115465463Y-125224494D01*
X115544815Y-125321185D01*
X115641506Y-125400537D01*
X115751820Y-125459502D01*
X115871518Y-125495812D01*
X115996000Y-125508072D01*
X118096000Y-125508072D01*
X118220482Y-125495812D01*
X118340180Y-125459502D01*
X118448938Y-125401369D01*
X118854569Y-125807000D01*
X108889000Y-125807000D01*
X108889000Y-123470000D01*
X109357928Y-123470000D01*
X109357928Y-124870000D01*
X109370188Y-124994482D01*
X109406498Y-125114180D01*
X109465463Y-125224494D01*
X109544815Y-125321185D01*
X109641506Y-125400537D01*
X109751820Y-125459502D01*
X109871518Y-125495812D01*
X109996000Y-125508072D01*
X112096000Y-125508072D01*
X112220482Y-125495812D01*
X112340180Y-125459502D01*
X112450494Y-125400537D01*
X112547185Y-125321185D01*
X112626537Y-125224494D01*
X112685502Y-125114180D01*
X112721812Y-124994482D01*
X112734072Y-124870000D01*
X112734072Y-123470000D01*
X112721812Y-123345518D01*
X112685502Y-123225820D01*
X112626537Y-123115506D01*
X112547185Y-123018815D01*
X112450494Y-122939463D01*
X112340180Y-122880498D01*
X112220482Y-122844188D01*
X112096000Y-122831928D01*
X109996000Y-122831928D01*
X109871518Y-122844188D01*
X109751820Y-122880498D01*
X109641506Y-122939463D01*
X109544815Y-123018815D01*
X109465463Y-123115506D01*
X109406498Y-123225820D01*
X109370188Y-123345518D01*
X109357928Y-123470000D01*
X108889000Y-123470000D01*
X108889000Y-99491000D01*
X120015000Y-99491000D01*
X120015000Y-107792043D01*
G37*
%TD.AperFunction*%
D21*
X134997928Y-117268000D02*
X135010188Y-117392482D01*
X135046498Y-117512180D01*
X135105463Y-117622494D01*
X135184815Y-117719185D01*
X135244296Y-117768000D01*
X135184815Y-117816815D01*
X135105463Y-117913506D01*
X135046498Y-118023820D01*
X135010188Y-118143518D01*
X134997928Y-118268000D01*
X134997928Y-119268000D01*
X135010188Y-119392482D01*
X135046498Y-119512180D01*
X135105463Y-119622494D01*
X135184815Y-119719185D01*
X135244296Y-119768000D01*
X135184815Y-119816815D01*
X135105463Y-119913506D01*
X135046498Y-120023820D01*
X135010188Y-120143518D01*
X134997928Y-120268000D01*
X134997928Y-121268000D01*
X135010188Y-121392482D01*
X135046498Y-121512180D01*
X135105463Y-121622494D01*
X135184815Y-121719185D01*
X135244296Y-121768000D01*
X135184815Y-121816815D01*
X135105463Y-121913506D01*
X135046498Y-122023820D01*
X135010188Y-122143518D01*
X134997928Y-122268000D01*
X135001000Y-122482250D01*
X135159750Y-122641000D01*
X136759000Y-122641000D01*
X136759000Y-122621000D01*
X137013000Y-122621000D01*
X137013000Y-122641000D01*
X137033000Y-122641000D01*
X137033000Y-122895000D01*
X137013000Y-122895000D01*
X137013000Y-123744250D01*
X137171750Y-123903000D01*
X138136000Y-123906072D01*
X138260482Y-123893812D01*
X138380180Y-123857502D01*
X138490494Y-123798537D01*
X138587185Y-123719185D01*
X138666537Y-123622494D01*
X138725502Y-123512180D01*
X138747928Y-123438251D01*
X138747928Y-124148001D01*
X138764992Y-124321255D01*
X138815528Y-124487851D01*
X138897595Y-124641387D01*
X139008038Y-124775962D01*
X139142613Y-124886405D01*
X139251875Y-124944807D01*
X135424072Y-124944807D01*
X135424072Y-123867286D01*
X135511518Y-123893812D01*
X135636000Y-123906072D01*
X136600250Y-123903000D01*
X136759000Y-123744250D01*
X136759000Y-122895000D01*
X135210603Y-122895000D01*
X135140494Y-122837463D01*
X135030180Y-122778498D01*
X134910482Y-122742188D01*
X134786000Y-122729928D01*
X133786000Y-122729928D01*
X133661518Y-122742188D01*
X133541820Y-122778498D01*
X133431506Y-122837463D01*
X133334815Y-122916815D01*
X133286000Y-122976296D01*
X133237185Y-122916815D01*
X133140494Y-122837463D01*
X133030180Y-122778498D01*
X132910482Y-122742188D01*
X132786000Y-122729928D01*
X131786000Y-122729928D01*
X131661518Y-122742188D01*
X131541820Y-122778498D01*
X131431506Y-122837463D01*
X131334815Y-122916815D01*
X131286000Y-122976296D01*
X131237185Y-122916815D01*
X131140494Y-122837463D01*
X131030180Y-122778498D01*
X130910482Y-122742188D01*
X130786000Y-122729928D01*
X129786000Y-122729928D01*
X129661518Y-122742188D01*
X129541820Y-122778498D01*
X129431506Y-122837463D01*
X129334815Y-122916815D01*
X129286000Y-122976296D01*
X129237185Y-122916815D01*
X129140494Y-122837463D01*
X129030180Y-122778498D01*
X128910482Y-122742188D01*
X128786000Y-122729928D01*
X127786000Y-122729928D01*
X127661518Y-122742188D01*
X127541820Y-122778498D01*
X127431506Y-122837463D01*
X127334815Y-122916815D01*
X127286000Y-122976296D01*
X127237185Y-122916815D01*
X127140494Y-122837463D01*
X127030180Y-122778498D01*
X126910482Y-122742188D01*
X126786000Y-122729928D01*
X125786000Y-122729928D01*
X125661518Y-122742188D01*
X125541820Y-122778498D01*
X125431506Y-122837463D01*
X125334815Y-122916815D01*
X125286000Y-122976296D01*
X125237185Y-122916815D01*
X125140494Y-122837463D01*
X125030180Y-122778498D01*
X124910482Y-122742188D01*
X124786000Y-122729928D01*
X124384889Y-122729928D01*
X130505625Y-116609193D01*
X134997928Y-116609193D01*
X134997928Y-117268000D01*
%TA.AperFunction,Conductor*%
D22*
G36*
X134997928Y-117268000D02*
G01*
X135010188Y-117392482D01*
X135046498Y-117512180D01*
X135105463Y-117622494D01*
X135184815Y-117719185D01*
X135244296Y-117768000D01*
X135184815Y-117816815D01*
X135105463Y-117913506D01*
X135046498Y-118023820D01*
X135010188Y-118143518D01*
X134997928Y-118268000D01*
X134997928Y-119268000D01*
X135010188Y-119392482D01*
X135046498Y-119512180D01*
X135105463Y-119622494D01*
X135184815Y-119719185D01*
X135244296Y-119768000D01*
X135184815Y-119816815D01*
X135105463Y-119913506D01*
X135046498Y-120023820D01*
X135010188Y-120143518D01*
X134997928Y-120268000D01*
X134997928Y-121268000D01*
X135010188Y-121392482D01*
X135046498Y-121512180D01*
X135105463Y-121622494D01*
X135184815Y-121719185D01*
X135244296Y-121768000D01*
X135184815Y-121816815D01*
X135105463Y-121913506D01*
X135046498Y-122023820D01*
X135010188Y-122143518D01*
X134997928Y-122268000D01*
X135001000Y-122482250D01*
X135159750Y-122641000D01*
X136759000Y-122641000D01*
X136759000Y-122621000D01*
X137013000Y-122621000D01*
X137013000Y-122641000D01*
X137033000Y-122641000D01*
X137033000Y-122895000D01*
X137013000Y-122895000D01*
X137013000Y-123744250D01*
X137171750Y-123903000D01*
X138136000Y-123906072D01*
X138260482Y-123893812D01*
X138380180Y-123857502D01*
X138490494Y-123798537D01*
X138587185Y-123719185D01*
X138666537Y-123622494D01*
X138725502Y-123512180D01*
X138747928Y-123438251D01*
X138747928Y-124148001D01*
X138764992Y-124321255D01*
X138815528Y-124487851D01*
X138897595Y-124641387D01*
X139008038Y-124775962D01*
X139142613Y-124886405D01*
X139251875Y-124944807D01*
X135424072Y-124944807D01*
X135424072Y-123867286D01*
X135511518Y-123893812D01*
X135636000Y-123906072D01*
X136600250Y-123903000D01*
X136759000Y-123744250D01*
X136759000Y-122895000D01*
X135210603Y-122895000D01*
X135140494Y-122837463D01*
X135030180Y-122778498D01*
X134910482Y-122742188D01*
X134786000Y-122729928D01*
X133786000Y-122729928D01*
X133661518Y-122742188D01*
X133541820Y-122778498D01*
X133431506Y-122837463D01*
X133334815Y-122916815D01*
X133286000Y-122976296D01*
X133237185Y-122916815D01*
X133140494Y-122837463D01*
X133030180Y-122778498D01*
X132910482Y-122742188D01*
X132786000Y-122729928D01*
X131786000Y-122729928D01*
X131661518Y-122742188D01*
X131541820Y-122778498D01*
X131431506Y-122837463D01*
X131334815Y-122916815D01*
X131286000Y-122976296D01*
X131237185Y-122916815D01*
X131140494Y-122837463D01*
X131030180Y-122778498D01*
X130910482Y-122742188D01*
X130786000Y-122729928D01*
X129786000Y-122729928D01*
X129661518Y-122742188D01*
X129541820Y-122778498D01*
X129431506Y-122837463D01*
X129334815Y-122916815D01*
X129286000Y-122976296D01*
X129237185Y-122916815D01*
X129140494Y-122837463D01*
X129030180Y-122778498D01*
X128910482Y-122742188D01*
X128786000Y-122729928D01*
X127786000Y-122729928D01*
X127661518Y-122742188D01*
X127541820Y-122778498D01*
X127431506Y-122837463D01*
X127334815Y-122916815D01*
X127286000Y-122976296D01*
X127237185Y-122916815D01*
X127140494Y-122837463D01*
X127030180Y-122778498D01*
X126910482Y-122742188D01*
X126786000Y-122729928D01*
X125786000Y-122729928D01*
X125661518Y-122742188D01*
X125541820Y-122778498D01*
X125431506Y-122837463D01*
X125334815Y-122916815D01*
X125286000Y-122976296D01*
X125237185Y-122916815D01*
X125140494Y-122837463D01*
X125030180Y-122778498D01*
X124910482Y-122742188D01*
X124786000Y-122729928D01*
X124384889Y-122729928D01*
X130505625Y-116609193D01*
X134997928Y-116609193D01*
X134997928Y-117268000D01*
G37*
%TD.AperFunction*%
D21*
X142113000Y-123571000D02*
X142133000Y-123571000D01*
X142133000Y-123825000D01*
X142113000Y-123825000D01*
X142113000Y-123845000D01*
X141859000Y-123845000D01*
X141859000Y-123825000D01*
X141839000Y-123825000D01*
X141839000Y-123571000D01*
X141859000Y-123571000D01*
X141859000Y-123551000D01*
X142113000Y-123551000D01*
X142113000Y-123571000D01*
%TA.AperFunction,Conductor*%
D22*
G36*
X142113000Y-123571000D02*
G01*
X142133000Y-123571000D01*
X142133000Y-123825000D01*
X142113000Y-123825000D01*
X142113000Y-123845000D01*
X141859000Y-123845000D01*
X141859000Y-123825000D01*
X141839000Y-123825000D01*
X141839000Y-123571000D01*
X141859000Y-123571000D01*
X141859000Y-123551000D01*
X142113000Y-123551000D01*
X142113000Y-123571000D01*
G37*
%TD.AperFunction*%
D21*
X143333001Y-117854571D02*
X143208072Y-117729642D01*
X143208072Y-117151999D01*
X143191008Y-116978745D01*
X143140472Y-116812149D01*
X143058405Y-116658613D01*
X142947962Y-116524038D01*
X142813387Y-116413595D01*
X142659851Y-116331528D01*
X142605415Y-116315015D01*
X142767936Y-116152494D01*
X142797902Y-116127902D01*
X142896023Y-116008340D01*
X142968934Y-115871934D01*
X143013832Y-115723925D01*
X143025193Y-115608573D01*
X143025193Y-115608571D01*
X143028992Y-115570001D01*
X143025193Y-115531431D01*
X143025193Y-102146569D01*
X143028992Y-102107999D01*
X143025193Y-102069427D01*
X143013832Y-101954075D01*
X142968934Y-101806066D01*
X142896023Y-101669660D01*
X142797902Y-101550098D01*
X142767935Y-101525505D01*
X142568495Y-101326065D01*
X142543902Y-101296098D01*
X142458072Y-101225660D01*
X142458072Y-101004000D01*
X142445812Y-100879518D01*
X142409502Y-100759820D01*
X142350537Y-100649506D01*
X142271185Y-100552815D01*
X142174494Y-100473463D01*
X142064180Y-100414498D01*
X141944482Y-100378188D01*
X141820000Y-100365928D01*
X140120000Y-100365928D01*
X139995518Y-100378188D01*
X139875820Y-100414498D01*
X139765506Y-100473463D01*
X139668815Y-100552815D01*
X139589463Y-100649506D01*
X139530498Y-100759820D01*
X139494188Y-100879518D01*
X139481928Y-101004000D01*
X139481928Y-102704000D01*
X139494188Y-102828482D01*
X139530498Y-102948180D01*
X139589463Y-103058494D01*
X139668815Y-103155185D01*
X139765506Y-103234537D01*
X139875820Y-103293502D01*
X139956466Y-103317966D01*
X139872412Y-103393731D01*
X139698359Y-103627080D01*
X139573175Y-103889901D01*
X139528524Y-104037110D01*
X139649845Y-104267000D01*
X140843000Y-104267000D01*
X140843000Y-104247000D01*
X141097000Y-104247000D01*
X141097000Y-104267000D01*
X141117000Y-104267000D01*
X141117000Y-104521000D01*
X141097000Y-104521000D01*
X141097000Y-104541000D01*
X140843000Y-104541000D01*
X140843000Y-104521000D01*
X139649845Y-104521000D01*
X139528524Y-104750890D01*
X139573175Y-104898099D01*
X139698359Y-105160920D01*
X139872412Y-105394269D01*
X140088645Y-105589178D01*
X140205534Y-105658805D01*
X140023368Y-105780525D01*
X139816525Y-105987368D01*
X139654010Y-106230589D01*
X139542068Y-106500842D01*
X139485000Y-106787740D01*
X139485000Y-107080260D01*
X139505436Y-107182999D01*
X138557000Y-107182999D01*
X138557000Y-99491000D01*
X143333000Y-99491000D01*
X143333001Y-117854571D01*
%TA.AperFunction,Conductor*%
D22*
G36*
X143333001Y-117854571D02*
G01*
X143208072Y-117729642D01*
X143208072Y-117151999D01*
X143191008Y-116978745D01*
X143140472Y-116812149D01*
X143058405Y-116658613D01*
X142947962Y-116524038D01*
X142813387Y-116413595D01*
X142659851Y-116331528D01*
X142605415Y-116315015D01*
X142767936Y-116152494D01*
X142797902Y-116127902D01*
X142896023Y-116008340D01*
X142968934Y-115871934D01*
X143013832Y-115723925D01*
X143025193Y-115608573D01*
X143025193Y-115608571D01*
X143028992Y-115570001D01*
X143025193Y-115531431D01*
X143025193Y-102146569D01*
X143028992Y-102107999D01*
X143025193Y-102069427D01*
X143013832Y-101954075D01*
X142968934Y-101806066D01*
X142896023Y-101669660D01*
X142797902Y-101550098D01*
X142767935Y-101525505D01*
X142568495Y-101326065D01*
X142543902Y-101296098D01*
X142458072Y-101225660D01*
X142458072Y-101004000D01*
X142445812Y-100879518D01*
X142409502Y-100759820D01*
X142350537Y-100649506D01*
X142271185Y-100552815D01*
X142174494Y-100473463D01*
X142064180Y-100414498D01*
X141944482Y-100378188D01*
X141820000Y-100365928D01*
X140120000Y-100365928D01*
X139995518Y-100378188D01*
X139875820Y-100414498D01*
X139765506Y-100473463D01*
X139668815Y-100552815D01*
X139589463Y-100649506D01*
X139530498Y-100759820D01*
X139494188Y-100879518D01*
X139481928Y-101004000D01*
X139481928Y-102704000D01*
X139494188Y-102828482D01*
X139530498Y-102948180D01*
X139589463Y-103058494D01*
X139668815Y-103155185D01*
X139765506Y-103234537D01*
X139875820Y-103293502D01*
X139956466Y-103317966D01*
X139872412Y-103393731D01*
X139698359Y-103627080D01*
X139573175Y-103889901D01*
X139528524Y-104037110D01*
X139649845Y-104267000D01*
X140843000Y-104267000D01*
X140843000Y-104247000D01*
X141097000Y-104247000D01*
X141097000Y-104267000D01*
X141117000Y-104267000D01*
X141117000Y-104521000D01*
X141097000Y-104521000D01*
X141097000Y-104541000D01*
X140843000Y-104541000D01*
X140843000Y-104521000D01*
X139649845Y-104521000D01*
X139528524Y-104750890D01*
X139573175Y-104898099D01*
X139698359Y-105160920D01*
X139872412Y-105394269D01*
X140088645Y-105589178D01*
X140205534Y-105658805D01*
X140023368Y-105780525D01*
X139816525Y-105987368D01*
X139654010Y-106230589D01*
X139542068Y-106500842D01*
X139485000Y-106787740D01*
X139485000Y-107080260D01*
X139505436Y-107182999D01*
X138557000Y-107182999D01*
X138557000Y-99491000D01*
X143333000Y-99491000D01*
X143333001Y-117854571D01*
G37*
%TD.AperFunction*%
D21*
X116649000Y-115631000D02*
X116629000Y-115631000D01*
X116629000Y-116305250D01*
X116787750Y-116464000D01*
X116918882Y-116465649D01*
X116945977Y-116516340D01*
X116952295Y-116524038D01*
X117044098Y-116635902D01*
X117074065Y-116660495D01*
X117273505Y-116859935D01*
X117298098Y-116889902D01*
X117417660Y-116988023D01*
X117554066Y-117060934D01*
X117586613Y-117070807D01*
X115339193Y-117070807D01*
X115339193Y-115882458D01*
X115346188Y-115953482D01*
X115382498Y-116073180D01*
X115441463Y-116183494D01*
X115520815Y-116280185D01*
X115617506Y-116359537D01*
X115727820Y-116418502D01*
X115847518Y-116454812D01*
X115972000Y-116467072D01*
X116216250Y-116464000D01*
X116375000Y-116305250D01*
X116375000Y-115631000D01*
X116355000Y-115631000D01*
X116355000Y-115517072D01*
X116649000Y-115517072D01*
X116649000Y-115631000D01*
%TA.AperFunction,Conductor*%
D22*
G36*
X116649000Y-115631000D02*
G01*
X116629000Y-115631000D01*
X116629000Y-116305250D01*
X116787750Y-116464000D01*
X116918882Y-116465649D01*
X116945977Y-116516340D01*
X116952295Y-116524038D01*
X117044098Y-116635902D01*
X117074065Y-116660495D01*
X117273505Y-116859935D01*
X117298098Y-116889902D01*
X117417660Y-116988023D01*
X117554066Y-117060934D01*
X117586613Y-117070807D01*
X115339193Y-117070807D01*
X115339193Y-115882458D01*
X115346188Y-115953482D01*
X115382498Y-116073180D01*
X115441463Y-116183494D01*
X115520815Y-116280185D01*
X115617506Y-116359537D01*
X115727820Y-116418502D01*
X115847518Y-116454812D01*
X115972000Y-116467072D01*
X116216250Y-116464000D01*
X116375000Y-116305250D01*
X116375000Y-115631000D01*
X116355000Y-115631000D01*
X116355000Y-115517072D01*
X116649000Y-115517072D01*
X116649000Y-115631000D01*
G37*
%TD.AperFunction*%
D21*
X113768808Y-117070807D02*
X113745892Y-117070807D01*
X113744500Y-116871750D01*
X113585750Y-116713000D01*
X112649000Y-116713000D01*
X112649000Y-116733000D01*
X112395000Y-116733000D01*
X112395000Y-116713000D01*
X112375000Y-116713000D01*
X112375000Y-116459000D01*
X112395000Y-116459000D01*
X112395000Y-114681000D01*
X112649000Y-114681000D01*
X112649000Y-116459000D01*
X113585750Y-116459000D01*
X113744500Y-116300250D01*
X113747572Y-115861000D01*
X113735312Y-115736518D01*
X113699002Y-115616820D01*
X113673976Y-115570000D01*
X113699002Y-115523180D01*
X113735312Y-115403482D01*
X113747572Y-115279000D01*
X113744500Y-114839750D01*
X113585750Y-114681000D01*
X112649000Y-114681000D01*
X112395000Y-114681000D01*
X112375000Y-114681000D01*
X112375000Y-114427000D01*
X112395000Y-114427000D01*
X112395000Y-112649000D01*
X112649000Y-112649000D01*
X112649000Y-114427000D01*
X113585750Y-114427000D01*
X113744500Y-114268250D01*
X113747572Y-113829000D01*
X113735312Y-113704518D01*
X113699002Y-113584820D01*
X113673976Y-113538000D01*
X113699002Y-113491180D01*
X113735312Y-113371482D01*
X113747572Y-113247000D01*
X113744500Y-112807750D01*
X113585750Y-112649000D01*
X112649000Y-112649000D01*
X112395000Y-112649000D01*
X112375000Y-112649000D01*
X112375000Y-112395000D01*
X112395000Y-112395000D01*
X112395000Y-112375000D01*
X112649000Y-112375000D01*
X112649000Y-112395000D01*
X113585750Y-112395000D01*
X113744500Y-112236250D01*
X113747572Y-111797000D01*
X113735312Y-111672518D01*
X113699002Y-111552820D01*
X113640037Y-111442506D01*
X113560685Y-111345815D01*
X113484094Y-111282958D01*
X113490494Y-111279537D01*
X113587185Y-111200185D01*
X113666537Y-111103494D01*
X113725502Y-110993180D01*
X113761812Y-110873482D01*
X113768807Y-110802456D01*
X113768808Y-117070807D01*
%TA.AperFunction,Conductor*%
D22*
G36*
X113768808Y-117070807D02*
G01*
X113745892Y-117070807D01*
X113744500Y-116871750D01*
X113585750Y-116713000D01*
X112649000Y-116713000D01*
X112649000Y-116733000D01*
X112395000Y-116733000D01*
X112395000Y-116713000D01*
X112375000Y-116713000D01*
X112375000Y-116459000D01*
X112395000Y-116459000D01*
X112395000Y-114681000D01*
X112649000Y-114681000D01*
X112649000Y-116459000D01*
X113585750Y-116459000D01*
X113744500Y-116300250D01*
X113747572Y-115861000D01*
X113735312Y-115736518D01*
X113699002Y-115616820D01*
X113673976Y-115570000D01*
X113699002Y-115523180D01*
X113735312Y-115403482D01*
X113747572Y-115279000D01*
X113744500Y-114839750D01*
X113585750Y-114681000D01*
X112649000Y-114681000D01*
X112395000Y-114681000D01*
X112375000Y-114681000D01*
X112375000Y-114427000D01*
X112395000Y-114427000D01*
X112395000Y-112649000D01*
X112649000Y-112649000D01*
X112649000Y-114427000D01*
X113585750Y-114427000D01*
X113744500Y-114268250D01*
X113747572Y-113829000D01*
X113735312Y-113704518D01*
X113699002Y-113584820D01*
X113673976Y-113538000D01*
X113699002Y-113491180D01*
X113735312Y-113371482D01*
X113747572Y-113247000D01*
X113744500Y-112807750D01*
X113585750Y-112649000D01*
X112649000Y-112649000D01*
X112395000Y-112649000D01*
X112375000Y-112649000D01*
X112375000Y-112395000D01*
X112395000Y-112395000D01*
X112395000Y-112375000D01*
X112649000Y-112375000D01*
X112649000Y-112395000D01*
X113585750Y-112395000D01*
X113744500Y-112236250D01*
X113747572Y-111797000D01*
X113735312Y-111672518D01*
X113699002Y-111552820D01*
X113640037Y-111442506D01*
X113560685Y-111345815D01*
X113484094Y-111282958D01*
X113490494Y-111279537D01*
X113587185Y-111200185D01*
X113666537Y-111103494D01*
X113725502Y-110993180D01*
X113761812Y-110873482D01*
X113768807Y-110802456D01*
X113768808Y-117070807D01*
G37*
%TD.AperFunction*%
D21*
X112845368Y-103007475D02*
X113088589Y-103169990D01*
X113358842Y-103281932D01*
X113645740Y-103339000D01*
X113938260Y-103339000D01*
X114128691Y-103301121D01*
X114911808Y-104084238D01*
X114911808Y-104699029D01*
X114792269Y-104566412D01*
X114558920Y-104392359D01*
X114296099Y-104267175D01*
X114148890Y-104222524D01*
X113919000Y-104343845D01*
X113919000Y-105537000D01*
X113939000Y-105537000D01*
X113939000Y-105791000D01*
X113919000Y-105791000D01*
X113919000Y-106984155D01*
X114148890Y-107105476D01*
X114296099Y-107060825D01*
X114558920Y-106935641D01*
X114792269Y-106761588D01*
X114911807Y-106628972D01*
X114911807Y-107149430D01*
X114908008Y-107188000D01*
X114911807Y-107226570D01*
X114911807Y-107226572D01*
X114923168Y-107341924D01*
X114968066Y-107489933D01*
X115002006Y-107553429D01*
X115040977Y-107626340D01*
X115071883Y-107663999D01*
X115139098Y-107745902D01*
X115169065Y-107770495D01*
X115325377Y-107926807D01*
X114592572Y-107926807D01*
X114554000Y-107923008D01*
X114515427Y-107926807D01*
X113710529Y-107926807D01*
X113666537Y-107844506D01*
X113587185Y-107747815D01*
X113490494Y-107668463D01*
X113380180Y-107609498D01*
X113260482Y-107573188D01*
X113136000Y-107560928D01*
X112076000Y-107560928D01*
X112037193Y-107564750D01*
X112037193Y-107152072D01*
X112102000Y-107152072D01*
X112226482Y-107139812D01*
X112346180Y-107103502D01*
X112456494Y-107044537D01*
X112553185Y-106965185D01*
X112632537Y-106868494D01*
X112691502Y-106758180D01*
X112715966Y-106677534D01*
X112791731Y-106761588D01*
X113025080Y-106935641D01*
X113287901Y-107060825D01*
X113435110Y-107105476D01*
X113665000Y-106984155D01*
X113665000Y-105791000D01*
X113645000Y-105791000D01*
X113645000Y-105537000D01*
X113665000Y-105537000D01*
X113665000Y-104343845D01*
X113435110Y-104222524D01*
X113287901Y-104267175D01*
X113025080Y-104392359D01*
X112791731Y-104566412D01*
X112715966Y-104650466D01*
X112691502Y-104569820D01*
X112632537Y-104459506D01*
X112553185Y-104362815D01*
X112463000Y-104288802D01*
X112463000Y-103229198D01*
X112553185Y-103155185D01*
X112632537Y-103058494D01*
X112691502Y-102948180D01*
X112713513Y-102875620D01*
X112845368Y-103007475D01*
%TA.AperFunction,Conductor*%
D22*
G36*
X112845368Y-103007475D02*
G01*
X113088589Y-103169990D01*
X113358842Y-103281932D01*
X113645740Y-103339000D01*
X113938260Y-103339000D01*
X114128691Y-103301121D01*
X114911808Y-104084238D01*
X114911808Y-104699029D01*
X114792269Y-104566412D01*
X114558920Y-104392359D01*
X114296099Y-104267175D01*
X114148890Y-104222524D01*
X113919000Y-104343845D01*
X113919000Y-105537000D01*
X113939000Y-105537000D01*
X113939000Y-105791000D01*
X113919000Y-105791000D01*
X113919000Y-106984155D01*
X114148890Y-107105476D01*
X114296099Y-107060825D01*
X114558920Y-106935641D01*
X114792269Y-106761588D01*
X114911807Y-106628972D01*
X114911807Y-107149430D01*
X114908008Y-107188000D01*
X114911807Y-107226570D01*
X114911807Y-107226572D01*
X114923168Y-107341924D01*
X114968066Y-107489933D01*
X115002006Y-107553429D01*
X115040977Y-107626340D01*
X115071883Y-107663999D01*
X115139098Y-107745902D01*
X115169065Y-107770495D01*
X115325377Y-107926807D01*
X114592572Y-107926807D01*
X114554000Y-107923008D01*
X114515427Y-107926807D01*
X113710529Y-107926807D01*
X113666537Y-107844506D01*
X113587185Y-107747815D01*
X113490494Y-107668463D01*
X113380180Y-107609498D01*
X113260482Y-107573188D01*
X113136000Y-107560928D01*
X112076000Y-107560928D01*
X112037193Y-107564750D01*
X112037193Y-107152072D01*
X112102000Y-107152072D01*
X112226482Y-107139812D01*
X112346180Y-107103502D01*
X112456494Y-107044537D01*
X112553185Y-106965185D01*
X112632537Y-106868494D01*
X112691502Y-106758180D01*
X112715966Y-106677534D01*
X112791731Y-106761588D01*
X113025080Y-106935641D01*
X113287901Y-107060825D01*
X113435110Y-107105476D01*
X113665000Y-106984155D01*
X113665000Y-105791000D01*
X113645000Y-105791000D01*
X113645000Y-105537000D01*
X113665000Y-105537000D01*
X113665000Y-104343845D01*
X113435110Y-104222524D01*
X113287901Y-104267175D01*
X113025080Y-104392359D01*
X112791731Y-104566412D01*
X112715966Y-104650466D01*
X112691502Y-104569820D01*
X112632537Y-104459506D01*
X112553185Y-104362815D01*
X112463000Y-104288802D01*
X112463000Y-103229198D01*
X112553185Y-103155185D01*
X112632537Y-103058494D01*
X112691502Y-102948180D01*
X112713513Y-102875620D01*
X112845368Y-103007475D01*
G37*
%TD.AperFunction*%
%TD*%
M02*
