%TF.GenerationSoftware,KiCad,Pcbnew,(5.1.9)-1*%
%TF.CreationDate,2021-10-20T11:11:32-07:00*%
%TF.ProjectId,LED-Controller-ESP-12F,4c45442d-436f-46e7-9472-6f6c6c65722d,A*%
%TF.SameCoordinates,Original*%
%TF.FileFunction,Legend,Top*%
%TF.FilePolarity,Positive*%
%FSLAX46Y46*%
G04 Gerber Fmt 4.6, Leading zero omitted, Abs format (unit mm)*
G04 Created by KiCad (PCBNEW (5.1.9)-1) date 2021-10-20 11:11:32*
%MOMM*%
%LPD*%
G01*
G04 APERTURE LIST*
%ADD10C,0.075000*%
%ADD11C,0.120000*%
%ADD12C,0.200000*%
%ADD13C,0.100000*%
G04 APERTURE END LIST*
D10*
X117129809Y-104239190D02*
X117129809Y-103739190D01*
X117248857Y-103739190D01*
X117320285Y-103763000D01*
X117367904Y-103810619D01*
X117391714Y-103858238D01*
X117415523Y-103953476D01*
X117415523Y-104024904D01*
X117391714Y-104120142D01*
X117367904Y-104167761D01*
X117320285Y-104215380D01*
X117248857Y-104239190D01*
X117129809Y-104239190D01*
X117844095Y-104239190D02*
X117844095Y-103977285D01*
X117820285Y-103929666D01*
X117772666Y-103905857D01*
X117677428Y-103905857D01*
X117629809Y-103929666D01*
X117844095Y-104215380D02*
X117796476Y-104239190D01*
X117677428Y-104239190D01*
X117629809Y-104215380D01*
X117606000Y-104167761D01*
X117606000Y-104120142D01*
X117629809Y-104072523D01*
X117677428Y-104048714D01*
X117796476Y-104048714D01*
X117844095Y-104024904D01*
X118010761Y-103905857D02*
X118201238Y-103905857D01*
X118082190Y-103739190D02*
X118082190Y-104167761D01*
X118106000Y-104215380D01*
X118153619Y-104239190D01*
X118201238Y-104239190D01*
X118582190Y-104239190D02*
X118582190Y-103977285D01*
X118558380Y-103929666D01*
X118510761Y-103905857D01*
X118415523Y-103905857D01*
X118367904Y-103929666D01*
X118582190Y-104215380D02*
X118534571Y-104239190D01*
X118415523Y-104239190D01*
X118367904Y-104215380D01*
X118344095Y-104167761D01*
X118344095Y-104120142D01*
X118367904Y-104072523D01*
X118415523Y-104048714D01*
X118534571Y-104048714D01*
X118582190Y-104024904D01*
X109319190Y-124503333D02*
X108819190Y-124503333D01*
X108819190Y-124312857D01*
X108843000Y-124265238D01*
X108866809Y-124241428D01*
X108914428Y-124217619D01*
X108985857Y-124217619D01*
X109033476Y-124241428D01*
X109057285Y-124265238D01*
X109081095Y-124312857D01*
X109081095Y-124503333D01*
X109319190Y-124003333D02*
X108985857Y-124003333D01*
X109081095Y-124003333D02*
X109033476Y-123979523D01*
X109009666Y-123955714D01*
X108985857Y-123908095D01*
X108985857Y-123860476D01*
X109295380Y-123503333D02*
X109319190Y-123550952D01*
X109319190Y-123646190D01*
X109295380Y-123693809D01*
X109247761Y-123717619D01*
X109057285Y-123717619D01*
X109009666Y-123693809D01*
X108985857Y-123646190D01*
X108985857Y-123550952D01*
X109009666Y-123503333D01*
X109057285Y-123479523D01*
X109104904Y-123479523D01*
X109152523Y-123717619D01*
X109295380Y-123289047D02*
X109319190Y-123241428D01*
X109319190Y-123146190D01*
X109295380Y-123098571D01*
X109247761Y-123074761D01*
X109223952Y-123074761D01*
X109176333Y-123098571D01*
X109152523Y-123146190D01*
X109152523Y-123217619D01*
X109128714Y-123265238D01*
X109081095Y-123289047D01*
X109057285Y-123289047D01*
X109009666Y-123265238D01*
X108985857Y-123217619D01*
X108985857Y-123146190D01*
X109009666Y-123098571D01*
X109295380Y-122884285D02*
X109319190Y-122836666D01*
X109319190Y-122741428D01*
X109295380Y-122693809D01*
X109247761Y-122670000D01*
X109223952Y-122670000D01*
X109176333Y-122693809D01*
X109152523Y-122741428D01*
X109152523Y-122812857D01*
X109128714Y-122860476D01*
X109081095Y-122884285D01*
X109057285Y-122884285D01*
X109009666Y-122860476D01*
X108985857Y-122812857D01*
X108985857Y-122741428D01*
X109009666Y-122693809D01*
X108985857Y-122146190D02*
X108985857Y-121955714D01*
X108819190Y-122074761D02*
X109247761Y-122074761D01*
X109295380Y-122050952D01*
X109319190Y-122003333D01*
X109319190Y-121955714D01*
X109319190Y-121717619D02*
X109295380Y-121765238D01*
X109271571Y-121789047D01*
X109223952Y-121812857D01*
X109081095Y-121812857D01*
X109033476Y-121789047D01*
X109009666Y-121765238D01*
X108985857Y-121717619D01*
X108985857Y-121646190D01*
X109009666Y-121598571D01*
X109033476Y-121574761D01*
X109081095Y-121550952D01*
X109223952Y-121550952D01*
X109271571Y-121574761D01*
X109295380Y-121598571D01*
X109319190Y-121646190D01*
X109319190Y-121717619D01*
X108985857Y-121027142D02*
X108985857Y-120836666D01*
X109319190Y-120955714D02*
X108890619Y-120955714D01*
X108843000Y-120931904D01*
X108819190Y-120884285D01*
X108819190Y-120836666D01*
X109319190Y-120598571D02*
X109295380Y-120646190D01*
X109247761Y-120670000D01*
X108819190Y-120670000D01*
X109319190Y-120193809D02*
X109057285Y-120193809D01*
X109009666Y-120217619D01*
X108985857Y-120265238D01*
X108985857Y-120360476D01*
X109009666Y-120408095D01*
X109295380Y-120193809D02*
X109319190Y-120241428D01*
X109319190Y-120360476D01*
X109295380Y-120408095D01*
X109247761Y-120431904D01*
X109200142Y-120431904D01*
X109152523Y-120408095D01*
X109128714Y-120360476D01*
X109128714Y-120241428D01*
X109104904Y-120193809D01*
X109295380Y-119979523D02*
X109319190Y-119931904D01*
X109319190Y-119836666D01*
X109295380Y-119789047D01*
X109247761Y-119765238D01*
X109223952Y-119765238D01*
X109176333Y-119789047D01*
X109152523Y-119836666D01*
X109152523Y-119908095D01*
X109128714Y-119955714D01*
X109081095Y-119979523D01*
X109057285Y-119979523D01*
X109009666Y-119955714D01*
X108985857Y-119908095D01*
X108985857Y-119836666D01*
X109009666Y-119789047D01*
X109319190Y-119550952D02*
X108819190Y-119550952D01*
X109319190Y-119336666D02*
X109057285Y-119336666D01*
X109009666Y-119360476D01*
X108985857Y-119408095D01*
X108985857Y-119479523D01*
X109009666Y-119527142D01*
X109033476Y-119550952D01*
X114915190Y-116244476D02*
X114915190Y-115934952D01*
X115105666Y-116101619D01*
X115105666Y-116030190D01*
X115129476Y-115982571D01*
X115153285Y-115958761D01*
X115200904Y-115934952D01*
X115319952Y-115934952D01*
X115367571Y-115958761D01*
X115391380Y-115982571D01*
X115415190Y-116030190D01*
X115415190Y-116173047D01*
X115391380Y-116220666D01*
X115367571Y-116244476D01*
X114915190Y-115792095D02*
X115415190Y-115625428D01*
X114915190Y-115458761D01*
X114915190Y-115339714D02*
X114915190Y-115030190D01*
X115105666Y-115196857D01*
X115105666Y-115125428D01*
X115129476Y-115077809D01*
X115153285Y-115054000D01*
X115200904Y-115030190D01*
X115319952Y-115030190D01*
X115367571Y-115054000D01*
X115391380Y-115077809D01*
X115415190Y-115125428D01*
X115415190Y-115268285D01*
X115391380Y-115315904D01*
X115367571Y-115339714D01*
X115224714Y-114815904D02*
X115224714Y-114434952D01*
X115081857Y-114196857D02*
X115224714Y-113815904D01*
X115367571Y-114196857D01*
X114915190Y-113339714D02*
X114915190Y-113577809D01*
X115153285Y-113601619D01*
X115129476Y-113577809D01*
X115105666Y-113530190D01*
X115105666Y-113411142D01*
X115129476Y-113363523D01*
X115153285Y-113339714D01*
X115200904Y-113315904D01*
X115319952Y-113315904D01*
X115367571Y-113339714D01*
X115391380Y-113363523D01*
X115415190Y-113411142D01*
X115415190Y-113530190D01*
X115391380Y-113577809D01*
X115367571Y-113601619D01*
X114915190Y-113173047D02*
X115415190Y-113006380D01*
X114915190Y-112839714D01*
X108819190Y-110878761D02*
X108819190Y-110569238D01*
X109009666Y-110735904D01*
X109009666Y-110664476D01*
X109033476Y-110616857D01*
X109057285Y-110593047D01*
X109104904Y-110569238D01*
X109223952Y-110569238D01*
X109271571Y-110593047D01*
X109295380Y-110616857D01*
X109319190Y-110664476D01*
X109319190Y-110807333D01*
X109295380Y-110854952D01*
X109271571Y-110878761D01*
X108819190Y-110426380D02*
X109319190Y-110259714D01*
X108819190Y-110093047D01*
X108819190Y-109974000D02*
X108819190Y-109664476D01*
X109009666Y-109831142D01*
X109009666Y-109759714D01*
X109033476Y-109712095D01*
X109057285Y-109688285D01*
X109104904Y-109664476D01*
X109223952Y-109664476D01*
X109271571Y-109688285D01*
X109295380Y-109712095D01*
X109319190Y-109759714D01*
X109319190Y-109902571D01*
X109295380Y-109950190D01*
X109271571Y-109974000D01*
X109319190Y-109069238D02*
X108985857Y-109069238D01*
X109081095Y-109069238D02*
X109033476Y-109045428D01*
X109009666Y-109021619D01*
X108985857Y-108974000D01*
X108985857Y-108926380D01*
X109295380Y-108569238D02*
X109319190Y-108616857D01*
X109319190Y-108712095D01*
X109295380Y-108759714D01*
X109247761Y-108783523D01*
X109057285Y-108783523D01*
X109009666Y-108759714D01*
X108985857Y-108712095D01*
X108985857Y-108616857D01*
X109009666Y-108569238D01*
X109057285Y-108545428D01*
X109104904Y-108545428D01*
X109152523Y-108783523D01*
X108985857Y-108116857D02*
X109390619Y-108116857D01*
X109438238Y-108140666D01*
X109462047Y-108164476D01*
X109485857Y-108212095D01*
X109485857Y-108283523D01*
X109462047Y-108331142D01*
X109295380Y-108116857D02*
X109319190Y-108164476D01*
X109319190Y-108259714D01*
X109295380Y-108307333D01*
X109271571Y-108331142D01*
X109223952Y-108354952D01*
X109081095Y-108354952D01*
X109033476Y-108331142D01*
X109009666Y-108307333D01*
X108985857Y-108259714D01*
X108985857Y-108164476D01*
X109009666Y-108116857D01*
X109319190Y-116907428D02*
X109319190Y-117193142D01*
X109319190Y-117050285D02*
X108819190Y-117050285D01*
X108890619Y-117097904D01*
X108938238Y-117145523D01*
X108962047Y-117193142D01*
X108819190Y-116597904D02*
X108819190Y-116550285D01*
X108843000Y-116502666D01*
X108866809Y-116478857D01*
X108914428Y-116455047D01*
X109009666Y-116431238D01*
X109128714Y-116431238D01*
X109223952Y-116455047D01*
X109271571Y-116478857D01*
X109295380Y-116502666D01*
X109319190Y-116550285D01*
X109319190Y-116597904D01*
X109295380Y-116645523D01*
X109271571Y-116669333D01*
X109223952Y-116693142D01*
X109128714Y-116716952D01*
X109009666Y-116716952D01*
X108914428Y-116693142D01*
X108866809Y-116669333D01*
X108843000Y-116645523D01*
X108819190Y-116597904D01*
X108985857Y-116216952D02*
X109319190Y-116216952D01*
X109033476Y-116216952D02*
X109009666Y-116193142D01*
X108985857Y-116145523D01*
X108985857Y-116074095D01*
X109009666Y-116026476D01*
X109057285Y-116002666D01*
X109319190Y-116002666D01*
X109319190Y-114875428D02*
X109319190Y-115161142D01*
X109319190Y-115018285D02*
X108819190Y-115018285D01*
X108890619Y-115065904D01*
X108938238Y-115113523D01*
X108962047Y-115161142D01*
X108819190Y-114565904D02*
X108819190Y-114518285D01*
X108843000Y-114470666D01*
X108866809Y-114446857D01*
X108914428Y-114423047D01*
X109009666Y-114399238D01*
X109128714Y-114399238D01*
X109223952Y-114423047D01*
X109271571Y-114446857D01*
X109295380Y-114470666D01*
X109319190Y-114518285D01*
X109319190Y-114565904D01*
X109295380Y-114613523D01*
X109271571Y-114637333D01*
X109223952Y-114661142D01*
X109128714Y-114684952D01*
X109009666Y-114684952D01*
X108914428Y-114661142D01*
X108866809Y-114637333D01*
X108843000Y-114613523D01*
X108819190Y-114565904D01*
X108985857Y-113970666D02*
X109319190Y-113970666D01*
X108985857Y-114184952D02*
X109247761Y-114184952D01*
X109295380Y-114161142D01*
X109319190Y-114113523D01*
X109319190Y-114042095D01*
X109295380Y-113994476D01*
X109271571Y-113970666D01*
X109319190Y-112605333D02*
X109319190Y-112891047D01*
X109319190Y-112748190D02*
X108819190Y-112748190D01*
X108890619Y-112795809D01*
X108938238Y-112843428D01*
X108962047Y-112891047D01*
X108985857Y-112176761D02*
X109319190Y-112176761D01*
X108985857Y-112391047D02*
X109247761Y-112391047D01*
X109295380Y-112367238D01*
X109319190Y-112319619D01*
X109319190Y-112248190D01*
X109295380Y-112200571D01*
X109271571Y-112176761D01*
D11*
X115316000Y-108204000D02*
X115316000Y-109728000D01*
D10*
X115542190Y-111041619D02*
X115542190Y-111327333D01*
X115542190Y-111184476D02*
X115042190Y-111184476D01*
X115113619Y-111232095D01*
X115161238Y-111279714D01*
X115185047Y-111327333D01*
X115042190Y-110732095D02*
X115042190Y-110684476D01*
X115066000Y-110636857D01*
X115089809Y-110613047D01*
X115137428Y-110589238D01*
X115232666Y-110565428D01*
X115351714Y-110565428D01*
X115446952Y-110589238D01*
X115494571Y-110613047D01*
X115518380Y-110636857D01*
X115542190Y-110684476D01*
X115542190Y-110732095D01*
X115518380Y-110779714D01*
X115494571Y-110803523D01*
X115446952Y-110827333D01*
X115351714Y-110851142D01*
X115232666Y-110851142D01*
X115137428Y-110827333D01*
X115089809Y-110803523D01*
X115066000Y-110779714D01*
X115042190Y-110732095D01*
X115542190Y-110351142D02*
X115042190Y-110351142D01*
X115351714Y-110303523D02*
X115542190Y-110160666D01*
X115208857Y-110160666D02*
X115399333Y-110351142D01*
X120452285Y-99532285D02*
X120618952Y-99532285D01*
X120690380Y-99794190D02*
X120452285Y-99794190D01*
X120452285Y-99294190D01*
X120690380Y-99294190D01*
X120880857Y-99770380D02*
X120952285Y-99794190D01*
X121071333Y-99794190D01*
X121118952Y-99770380D01*
X121142761Y-99746571D01*
X121166571Y-99698952D01*
X121166571Y-99651333D01*
X121142761Y-99603714D01*
X121118952Y-99579904D01*
X121071333Y-99556095D01*
X120976095Y-99532285D01*
X120928476Y-99508476D01*
X120904666Y-99484666D01*
X120880857Y-99437047D01*
X120880857Y-99389428D01*
X120904666Y-99341809D01*
X120928476Y-99318000D01*
X120976095Y-99294190D01*
X121095142Y-99294190D01*
X121166571Y-99318000D01*
X121380857Y-99794190D02*
X121380857Y-99294190D01*
X121571333Y-99294190D01*
X121618952Y-99318000D01*
X121642761Y-99341809D01*
X121666571Y-99389428D01*
X121666571Y-99460857D01*
X121642761Y-99508476D01*
X121618952Y-99532285D01*
X121571333Y-99556095D01*
X121380857Y-99556095D01*
X121880857Y-99603714D02*
X122261809Y-99603714D01*
X122761809Y-99794190D02*
X122476095Y-99794190D01*
X122618952Y-99794190D02*
X122618952Y-99294190D01*
X122571333Y-99365619D01*
X122523714Y-99413238D01*
X122476095Y-99437047D01*
X122952285Y-99341809D02*
X122976095Y-99318000D01*
X123023714Y-99294190D01*
X123142761Y-99294190D01*
X123190380Y-99318000D01*
X123214190Y-99341809D01*
X123238000Y-99389428D01*
X123238000Y-99437047D01*
X123214190Y-99508476D01*
X122928476Y-99794190D01*
X123238000Y-99794190D01*
X123618952Y-99532285D02*
X123452285Y-99532285D01*
X123452285Y-99794190D02*
X123452285Y-99294190D01*
X123690380Y-99294190D01*
X124499904Y-99794190D02*
X124261809Y-99794190D01*
X124261809Y-99294190D01*
X124666571Y-99532285D02*
X124833238Y-99532285D01*
X124904666Y-99794190D02*
X124666571Y-99794190D01*
X124666571Y-99294190D01*
X124904666Y-99294190D01*
X125118952Y-99794190D02*
X125118952Y-99294190D01*
X125238000Y-99294190D01*
X125309428Y-99318000D01*
X125357047Y-99365619D01*
X125380857Y-99413238D01*
X125404666Y-99508476D01*
X125404666Y-99579904D01*
X125380857Y-99675142D01*
X125357047Y-99722761D01*
X125309428Y-99770380D01*
X125238000Y-99794190D01*
X125118952Y-99794190D01*
X126285619Y-99746571D02*
X126261809Y-99770380D01*
X126190380Y-99794190D01*
X126142761Y-99794190D01*
X126071333Y-99770380D01*
X126023714Y-99722761D01*
X125999904Y-99675142D01*
X125976095Y-99579904D01*
X125976095Y-99508476D01*
X125999904Y-99413238D01*
X126023714Y-99365619D01*
X126071333Y-99318000D01*
X126142761Y-99294190D01*
X126190380Y-99294190D01*
X126261809Y-99318000D01*
X126285619Y-99341809D01*
X126571333Y-99794190D02*
X126523714Y-99770380D01*
X126499904Y-99746571D01*
X126476095Y-99698952D01*
X126476095Y-99556095D01*
X126499904Y-99508476D01*
X126523714Y-99484666D01*
X126571333Y-99460857D01*
X126642761Y-99460857D01*
X126690380Y-99484666D01*
X126714190Y-99508476D01*
X126738000Y-99556095D01*
X126738000Y-99698952D01*
X126714190Y-99746571D01*
X126690380Y-99770380D01*
X126642761Y-99794190D01*
X126571333Y-99794190D01*
X126952285Y-99460857D02*
X126952285Y-99794190D01*
X126952285Y-99508476D02*
X126976095Y-99484666D01*
X127023714Y-99460857D01*
X127095142Y-99460857D01*
X127142761Y-99484666D01*
X127166571Y-99532285D01*
X127166571Y-99794190D01*
X127333238Y-99460857D02*
X127523714Y-99460857D01*
X127404666Y-99294190D02*
X127404666Y-99722761D01*
X127428476Y-99770380D01*
X127476095Y-99794190D01*
X127523714Y-99794190D01*
X127690380Y-99794190D02*
X127690380Y-99460857D01*
X127690380Y-99556095D02*
X127714190Y-99508476D01*
X127738000Y-99484666D01*
X127785619Y-99460857D01*
X127833238Y-99460857D01*
X128071333Y-99794190D02*
X128023714Y-99770380D01*
X127999904Y-99746571D01*
X127976095Y-99698952D01*
X127976095Y-99556095D01*
X127999904Y-99508476D01*
X128023714Y-99484666D01*
X128071333Y-99460857D01*
X128142761Y-99460857D01*
X128190380Y-99484666D01*
X128214190Y-99508476D01*
X128238000Y-99556095D01*
X128238000Y-99698952D01*
X128214190Y-99746571D01*
X128190380Y-99770380D01*
X128142761Y-99794190D01*
X128071333Y-99794190D01*
X128523714Y-99794190D02*
X128476095Y-99770380D01*
X128452285Y-99722761D01*
X128452285Y-99294190D01*
X128785619Y-99794190D02*
X128738000Y-99770380D01*
X128714190Y-99722761D01*
X128714190Y-99294190D01*
X129166571Y-99770380D02*
X129118952Y-99794190D01*
X129023714Y-99794190D01*
X128976095Y-99770380D01*
X128952285Y-99722761D01*
X128952285Y-99532285D01*
X128976095Y-99484666D01*
X129023714Y-99460857D01*
X129118952Y-99460857D01*
X129166571Y-99484666D01*
X129190380Y-99532285D01*
X129190380Y-99579904D01*
X128952285Y-99627523D01*
X129404666Y-99794190D02*
X129404666Y-99460857D01*
X129404666Y-99556095D02*
X129428476Y-99508476D01*
X129452285Y-99484666D01*
X129499904Y-99460857D01*
X129547523Y-99460857D01*
X130380857Y-99794190D02*
X130214190Y-99556095D01*
X130095142Y-99794190D02*
X130095142Y-99294190D01*
X130285619Y-99294190D01*
X130333238Y-99318000D01*
X130357047Y-99341809D01*
X130380857Y-99389428D01*
X130380857Y-99460857D01*
X130357047Y-99508476D01*
X130333238Y-99532285D01*
X130285619Y-99556095D01*
X130095142Y-99556095D01*
X130785619Y-99770380D02*
X130738000Y-99794190D01*
X130642761Y-99794190D01*
X130595142Y-99770380D01*
X130571333Y-99722761D01*
X130571333Y-99532285D01*
X130595142Y-99484666D01*
X130642761Y-99460857D01*
X130738000Y-99460857D01*
X130785619Y-99484666D01*
X130809428Y-99532285D01*
X130809428Y-99579904D01*
X130571333Y-99627523D01*
X130976095Y-99460857D02*
X131095142Y-99794190D01*
X131214190Y-99460857D01*
X131761809Y-99341809D02*
X131785619Y-99318000D01*
X131833238Y-99294190D01*
X131952285Y-99294190D01*
X131999904Y-99318000D01*
X132023714Y-99341809D01*
X132047523Y-99389428D01*
X132047523Y-99437047D01*
X132023714Y-99508476D01*
X131738000Y-99794190D01*
X132047523Y-99794190D01*
X133302666Y-99294190D02*
X133588380Y-99294190D01*
X133445523Y-99794190D02*
X133445523Y-99294190D01*
X133755047Y-99746571D02*
X133778857Y-99770380D01*
X133755047Y-99794190D01*
X133731238Y-99770380D01*
X133755047Y-99746571D01*
X133755047Y-99794190D01*
X134540761Y-99532285D02*
X134612190Y-99556095D01*
X134636000Y-99579904D01*
X134659809Y-99627523D01*
X134659809Y-99698952D01*
X134636000Y-99746571D01*
X134612190Y-99770380D01*
X134564571Y-99794190D01*
X134374095Y-99794190D01*
X134374095Y-99294190D01*
X134540761Y-99294190D01*
X134588380Y-99318000D01*
X134612190Y-99341809D01*
X134636000Y-99389428D01*
X134636000Y-99437047D01*
X134612190Y-99484666D01*
X134588380Y-99508476D01*
X134540761Y-99532285D01*
X134374095Y-99532285D01*
X134945523Y-99794190D02*
X134897904Y-99770380D01*
X134874095Y-99746571D01*
X134850285Y-99698952D01*
X134850285Y-99556095D01*
X134874095Y-99508476D01*
X134897904Y-99484666D01*
X134945523Y-99460857D01*
X135016952Y-99460857D01*
X135064571Y-99484666D01*
X135088380Y-99508476D01*
X135112190Y-99556095D01*
X135112190Y-99698952D01*
X135088380Y-99746571D01*
X135064571Y-99770380D01*
X135016952Y-99794190D01*
X134945523Y-99794190D01*
X135540761Y-99460857D02*
X135540761Y-99794190D01*
X135326476Y-99460857D02*
X135326476Y-99722761D01*
X135350285Y-99770380D01*
X135397904Y-99794190D01*
X135469333Y-99794190D01*
X135516952Y-99770380D01*
X135540761Y-99746571D01*
X135850285Y-99794190D02*
X135802666Y-99770380D01*
X135778857Y-99722761D01*
X135778857Y-99294190D01*
X136255047Y-99794190D02*
X136255047Y-99532285D01*
X136231238Y-99484666D01*
X136183619Y-99460857D01*
X136088380Y-99460857D01*
X136040761Y-99484666D01*
X136255047Y-99770380D02*
X136207428Y-99794190D01*
X136088380Y-99794190D01*
X136040761Y-99770380D01*
X136016952Y-99722761D01*
X136016952Y-99675142D01*
X136040761Y-99627523D01*
X136088380Y-99603714D01*
X136207428Y-99603714D01*
X136255047Y-99579904D01*
X136493142Y-99460857D02*
X136493142Y-99794190D01*
X136493142Y-99508476D02*
X136516952Y-99484666D01*
X136564571Y-99460857D01*
X136636000Y-99460857D01*
X136683619Y-99484666D01*
X136707428Y-99532285D01*
X136707428Y-99794190D01*
X137159809Y-99460857D02*
X137159809Y-99865619D01*
X137136000Y-99913238D01*
X137112190Y-99937047D01*
X137064571Y-99960857D01*
X136993142Y-99960857D01*
X136945523Y-99937047D01*
X137159809Y-99770380D02*
X137112190Y-99794190D01*
X137016952Y-99794190D01*
X136969333Y-99770380D01*
X136945523Y-99746571D01*
X136921714Y-99698952D01*
X136921714Y-99556095D01*
X136945523Y-99508476D01*
X136969333Y-99484666D01*
X137016952Y-99460857D01*
X137112190Y-99460857D01*
X137159809Y-99484666D01*
X137588380Y-99770380D02*
X137540761Y-99794190D01*
X137445523Y-99794190D01*
X137397904Y-99770380D01*
X137374095Y-99722761D01*
X137374095Y-99532285D01*
X137397904Y-99484666D01*
X137445523Y-99460857D01*
X137540761Y-99460857D01*
X137588380Y-99484666D01*
X137612190Y-99532285D01*
X137612190Y-99579904D01*
X137374095Y-99627523D01*
X137826476Y-99794190D02*
X137826476Y-99460857D01*
X137826476Y-99556095D02*
X137850285Y-99508476D01*
X137874095Y-99484666D01*
X137921714Y-99460857D01*
X137969333Y-99460857D01*
X111156761Y-103612190D02*
X110918666Y-103612190D01*
X110894857Y-103850285D01*
X110918666Y-103826476D01*
X110966285Y-103802666D01*
X111085333Y-103802666D01*
X111132952Y-103826476D01*
X111156761Y-103850285D01*
X111180571Y-103897904D01*
X111180571Y-104016952D01*
X111156761Y-104064571D01*
X111132952Y-104088380D01*
X111085333Y-104112190D01*
X110966285Y-104112190D01*
X110918666Y-104088380D01*
X110894857Y-104064571D01*
X111323428Y-103612190D02*
X111490095Y-104112190D01*
X111656761Y-103612190D01*
X113922952Y-103636000D02*
X113875333Y-103612190D01*
X113803904Y-103612190D01*
X113732476Y-103636000D01*
X113684857Y-103683619D01*
X113661047Y-103731238D01*
X113637238Y-103826476D01*
X113637238Y-103897904D01*
X113661047Y-103993142D01*
X113684857Y-104040761D01*
X113732476Y-104088380D01*
X113803904Y-104112190D01*
X113851523Y-104112190D01*
X113922952Y-104088380D01*
X113946761Y-104064571D01*
X113946761Y-103897904D01*
X113851523Y-103897904D01*
D11*
X143256000Y-122682000D02*
X143256000Y-124206000D01*
X143256000Y-119126000D02*
X143256000Y-120650000D01*
D10*
X143482190Y-121963619D02*
X143482190Y-122249333D01*
X143482190Y-122106476D02*
X142982190Y-122106476D01*
X143053619Y-122154095D01*
X143101238Y-122201714D01*
X143125047Y-122249333D01*
X142982190Y-121654095D02*
X142982190Y-121606476D01*
X143006000Y-121558857D01*
X143029809Y-121535047D01*
X143077428Y-121511238D01*
X143172666Y-121487428D01*
X143291714Y-121487428D01*
X143386952Y-121511238D01*
X143434571Y-121535047D01*
X143458380Y-121558857D01*
X143482190Y-121606476D01*
X143482190Y-121654095D01*
X143458380Y-121701714D01*
X143434571Y-121725523D01*
X143386952Y-121749333D01*
X143291714Y-121773142D01*
X143172666Y-121773142D01*
X143077428Y-121749333D01*
X143029809Y-121725523D01*
X143006000Y-121701714D01*
X142982190Y-121654095D01*
X143482190Y-121273142D02*
X142982190Y-121273142D01*
X143291714Y-121225523D02*
X143482190Y-121082666D01*
X143148857Y-121082666D02*
X143339333Y-121273142D01*
X142982190Y-118244857D02*
X142982190Y-117935333D01*
X143172666Y-118102000D01*
X143172666Y-118030571D01*
X143196476Y-117982952D01*
X143220285Y-117959142D01*
X143267904Y-117935333D01*
X143386952Y-117935333D01*
X143434571Y-117959142D01*
X143458380Y-117982952D01*
X143482190Y-118030571D01*
X143482190Y-118173428D01*
X143458380Y-118221047D01*
X143434571Y-118244857D01*
X142982190Y-117768666D02*
X142982190Y-117459142D01*
X143172666Y-117625809D01*
X143172666Y-117554380D01*
X143196476Y-117506761D01*
X143220285Y-117482952D01*
X143267904Y-117459142D01*
X143386952Y-117459142D01*
X143434571Y-117482952D01*
X143458380Y-117506761D01*
X143482190Y-117554380D01*
X143482190Y-117697238D01*
X143458380Y-117744857D01*
X143434571Y-117768666D01*
X142982190Y-117149619D02*
X142982190Y-117102000D01*
X143006000Y-117054380D01*
X143029809Y-117030571D01*
X143077428Y-117006761D01*
X143172666Y-116982952D01*
X143291714Y-116982952D01*
X143386952Y-117006761D01*
X143434571Y-117030571D01*
X143458380Y-117054380D01*
X143482190Y-117102000D01*
X143482190Y-117149619D01*
X143458380Y-117197238D01*
X143434571Y-117221047D01*
X143386952Y-117244857D01*
X143291714Y-117268666D01*
X143172666Y-117268666D01*
X143077428Y-117244857D01*
X143029809Y-117221047D01*
X143006000Y-117197238D01*
X142982190Y-117149619D01*
X140350952Y-99802190D02*
X140660476Y-99802190D01*
X140493809Y-99992666D01*
X140565238Y-99992666D01*
X140612857Y-100016476D01*
X140636666Y-100040285D01*
X140660476Y-100087904D01*
X140660476Y-100206952D01*
X140636666Y-100254571D01*
X140612857Y-100278380D01*
X140565238Y-100302190D01*
X140422380Y-100302190D01*
X140374761Y-100278380D01*
X140350952Y-100254571D01*
X140803333Y-99802190D02*
X140970000Y-100302190D01*
X141136666Y-99802190D01*
X141255714Y-99802190D02*
X141565238Y-99802190D01*
X141398571Y-99992666D01*
X141470000Y-99992666D01*
X141517619Y-100016476D01*
X141541428Y-100040285D01*
X141565238Y-100087904D01*
X141565238Y-100206952D01*
X141541428Y-100254571D01*
X141517619Y-100278380D01*
X141470000Y-100302190D01*
X141327142Y-100302190D01*
X141279523Y-100278380D01*
X141255714Y-100254571D01*
X116462952Y-99826000D02*
X116415333Y-99802190D01*
X116343904Y-99802190D01*
X116272476Y-99826000D01*
X116224857Y-99873619D01*
X116201047Y-99921238D01*
X116177238Y-100016476D01*
X116177238Y-100087904D01*
X116201047Y-100183142D01*
X116224857Y-100230761D01*
X116272476Y-100278380D01*
X116343904Y-100302190D01*
X116391523Y-100302190D01*
X116462952Y-100278380D01*
X116486761Y-100254571D01*
X116486761Y-100087904D01*
X116391523Y-100087904D01*
X113661047Y-100302190D02*
X113661047Y-99802190D01*
X113780095Y-99802190D01*
X113851523Y-99826000D01*
X113899142Y-99873619D01*
X113922952Y-99921238D01*
X113946761Y-100016476D01*
X113946761Y-100087904D01*
X113922952Y-100183142D01*
X113899142Y-100230761D01*
X113851523Y-100278380D01*
X113780095Y-100302190D01*
X113661047Y-100302190D01*
X111156761Y-99802190D02*
X110918666Y-99802190D01*
X110894857Y-100040285D01*
X110918666Y-100016476D01*
X110966285Y-99992666D01*
X111085333Y-99992666D01*
X111132952Y-100016476D01*
X111156761Y-100040285D01*
X111180571Y-100087904D01*
X111180571Y-100206952D01*
X111156761Y-100254571D01*
X111132952Y-100278380D01*
X111085333Y-100302190D01*
X110966285Y-100302190D01*
X110918666Y-100278380D01*
X110894857Y-100254571D01*
X111323428Y-99802190D02*
X111490095Y-100302190D01*
X111656761Y-99802190D01*
D11*
%TO.C,C1*%
X111223248Y-113257000D02*
X111745752Y-113257000D01*
X111223248Y-111787000D02*
X111745752Y-111787000D01*
%TO.C,C2*%
X111223248Y-113819000D02*
X111745752Y-113819000D01*
X111223248Y-115289000D02*
X111745752Y-115289000D01*
%TO.C,C3*%
X111223248Y-117321000D02*
X111745752Y-117321000D01*
X111223248Y-115851000D02*
X111745752Y-115851000D01*
%TO.C,J1*%
X109922000Y-106994000D02*
X109922000Y-105664000D01*
X111252000Y-106994000D02*
X109922000Y-106994000D01*
X112522000Y-106994000D02*
X112522000Y-104334000D01*
X112522000Y-104334000D02*
X115122000Y-104334000D01*
X112522000Y-106994000D02*
X115122000Y-106994000D01*
X115122000Y-106994000D02*
X115122000Y-104334000D01*
%TO.C,J2*%
X109922000Y-103184000D02*
X109922000Y-101854000D01*
X111252000Y-103184000D02*
X109922000Y-103184000D01*
X112522000Y-103184000D02*
X112522000Y-100524000D01*
X112522000Y-100524000D02*
X117662000Y-100524000D01*
X112522000Y-103184000D02*
X117662000Y-103184000D01*
X117662000Y-103184000D02*
X117662000Y-100524000D01*
%TO.C,J3*%
X140970000Y-100524000D02*
X142300000Y-100524000D01*
X142300000Y-100524000D02*
X142300000Y-101854000D01*
X142300000Y-103124000D02*
X142300000Y-115884000D01*
X139640000Y-115884000D02*
X142300000Y-115884000D01*
X139640000Y-103124000D02*
X139640000Y-115884000D01*
X139640000Y-103124000D02*
X142300000Y-103124000D01*
%TO.C,R1*%
X117390936Y-107977000D02*
X117845064Y-107977000D01*
X117390936Y-109447000D02*
X117845064Y-109447000D01*
%TO.C,R2*%
X117390936Y-111479000D02*
X117845064Y-111479000D01*
X117390936Y-110009000D02*
X117845064Y-110009000D01*
%TO.C,R3*%
X141197064Y-122401000D02*
X140742936Y-122401000D01*
X141197064Y-120931000D02*
X140742936Y-120931000D01*
%TO.C,R4*%
X140758936Y-120369000D02*
X141213064Y-120369000D01*
X140758936Y-118899000D02*
X141213064Y-118899000D01*
%TO.C,R5*%
X141213064Y-122963000D02*
X140758936Y-122963000D01*
X141213064Y-124433000D02*
X140758936Y-124433000D01*
%TO.C,R6*%
X141197064Y-118337000D02*
X140742936Y-118337000D01*
X141197064Y-116867000D02*
X140742936Y-116867000D01*
D12*
%TO.C,SW1*%
X110246000Y-120920000D02*
X110246000Y-120920000D01*
X110246000Y-120720000D02*
X110246000Y-120720000D01*
D13*
X117046000Y-120920000D02*
X117046000Y-122920000D01*
X111046000Y-120920000D02*
X111046000Y-122920000D01*
X113046000Y-124920000D02*
X115046000Y-124920000D01*
X113046000Y-118920000D02*
X115046000Y-118920000D01*
D12*
X110246000Y-120920000D02*
G75*
G02*
X110246000Y-120720000I0J100000D01*
G01*
X110246000Y-120720000D02*
G75*
G02*
X110246000Y-120920000I0J-100000D01*
G01*
D11*
%TO.C,U1*%
X110606000Y-111084000D02*
X112406000Y-111084000D01*
X112406000Y-107864000D02*
X109956000Y-107864000D01*
%TO.C,U2*%
X118502000Y-112944000D02*
X116052000Y-112944000D01*
X116702000Y-116164000D02*
X118502000Y-116164000D01*
%TO.C,U3*%
X121166000Y-107768000D02*
X120556000Y-107768000D01*
X121166000Y-107768000D02*
X121166000Y-100148000D01*
X121166000Y-124388000D02*
X121166000Y-123768000D01*
X123286000Y-124388000D02*
X121166000Y-124388000D01*
X137406000Y-124388000D02*
X135286000Y-124388000D01*
X137406000Y-123768000D02*
X137406000Y-124388000D01*
X137406000Y-100148000D02*
X137406000Y-107768000D01*
X121166000Y-100148000D02*
X137406000Y-100148000D01*
%TO.C,TP1*%
X119056000Y-105664000D02*
G75*
G03*
X119056000Y-105664000I-1200000J0D01*
G01*
%TD*%
M02*
