%TF.GenerationSoftware,KiCad,Pcbnew,(5.1.9)-1*%
%TF.CreationDate,2021-10-20T11:11:32-07:00*%
%TF.ProjectId,LED-Controller-ESP-12F,4c45442d-436f-46e7-9472-6f6c6c65722d,A*%
%TF.SameCoordinates,Original*%
%TF.FileFunction,Copper,L2,Bot*%
%TF.FilePolarity,Positive*%
%FSLAX46Y46*%
G04 Gerber Fmt 4.6, Leading zero omitted, Abs format (unit mm)*
G04 Created by KiCad (PCBNEW (5.1.9)-1) date 2021-10-20 11:11:32*
%MOMM*%
%LPD*%
G01*
G04 APERTURE LIST*
%TA.AperFunction,ComponentPad*%
%ADD10R,1.700000X1.700000*%
%TD*%
%TA.AperFunction,ComponentPad*%
%ADD11O,1.700000X1.700000*%
%TD*%
%TA.AperFunction,ComponentPad*%
%ADD12C,2.000000*%
%TD*%
%TA.AperFunction,ViaPad*%
%ADD13C,0.800000*%
%TD*%
%TA.AperFunction,Conductor*%
%ADD14C,0.300387*%
%TD*%
%TA.AperFunction,Conductor*%
%ADD15C,0.254000*%
%TD*%
%TA.AperFunction,Conductor*%
%ADD16C,0.100000*%
%TD*%
G04 APERTURE END LIST*
D10*
%TO.P,J1,1*%
%TO.N,5V*%
X111252000Y-105664000D03*
D11*
%TO.P,J1,2*%
%TO.N,GROUND*%
X113792000Y-105664000D03*
%TD*%
D10*
%TO.P,J2,1*%
%TO.N,5V*%
X111252000Y-101854000D03*
D11*
%TO.P,J2,2*%
%TO.N,DATA*%
X113792000Y-101854000D03*
%TO.P,J2,3*%
%TO.N,GROUND*%
X116332000Y-101854000D03*
%TD*%
D10*
%TO.P,J3,1*%
%TO.N,3V3*%
X140970000Y-101854000D03*
D11*
%TO.P,J3,2*%
%TO.N,GROUND*%
X140970000Y-104394000D03*
%TO.P,J3,3*%
%TO.N,RX*%
X140970000Y-106934000D03*
%TO.P,J3,4*%
%TO.N,TX*%
X140970000Y-109474000D03*
%TO.P,J3,5*%
%TO.N,RESET*%
X140970000Y-112014000D03*
%TO.P,J3,6*%
%TO.N,Net-(J3-Pad6)*%
X140970000Y-114554000D03*
%TD*%
D12*
%TO.P,TP1,1*%
%TO.N,GPIO4*%
X117856000Y-105664000D03*
%TD*%
D13*
%TO.N,5V*%
X113792000Y-109474000D03*
X117094000Y-112268000D03*
%TO.N,GROUND*%
X115824000Y-116840000D03*
X134112000Y-121666000D03*
X113792000Y-114554000D03*
%TO.N,GPIO4*%
X133898000Y-114768000D03*
%TD*%
D14*
%TO.N,5V*%
X116586000Y-112268000D02*
X117094000Y-112268000D01*
X113792000Y-109474000D02*
X116586000Y-112268000D01*
%TO.N,GPIO4*%
X126960000Y-114768000D02*
X117856000Y-105664000D01*
X133898000Y-114768000D02*
X126960000Y-114768000D01*
%TD*%
D15*
%TO.N,GROUND*%
X120015000Y-106712569D02*
X119430686Y-106128255D01*
X119491000Y-105825033D01*
X119491000Y-105502967D01*
X119428168Y-105187088D01*
X119304918Y-104889537D01*
X119125987Y-104621748D01*
X118898252Y-104394013D01*
X118630463Y-104215082D01*
X118332912Y-104091832D01*
X118017033Y-104029000D01*
X117694967Y-104029000D01*
X117379088Y-104091832D01*
X117081537Y-104215082D01*
X116813748Y-104394013D01*
X116586013Y-104621748D01*
X116407082Y-104889537D01*
X116283832Y-105187088D01*
X116221000Y-105502967D01*
X116221000Y-105825033D01*
X116283832Y-106140912D01*
X116407082Y-106438463D01*
X116586013Y-106706252D01*
X116813748Y-106933987D01*
X117081537Y-107112918D01*
X117379088Y-107236168D01*
X117694967Y-107299000D01*
X118017033Y-107299000D01*
X118320255Y-107238686D01*
X126377509Y-115295940D01*
X126402098Y-115325902D01*
X126432059Y-115350490D01*
X126521659Y-115424023D01*
X126594570Y-115462994D01*
X126658066Y-115496934D01*
X126806075Y-115541832D01*
X126921427Y-115553193D01*
X126921429Y-115553193D01*
X126959999Y-115556992D01*
X126998569Y-115553193D01*
X133219482Y-115553193D01*
X133238226Y-115571937D01*
X133407744Y-115685205D01*
X133596102Y-115763226D01*
X133796061Y-115803000D01*
X133999939Y-115803000D01*
X134199898Y-115763226D01*
X134388256Y-115685205D01*
X134557774Y-115571937D01*
X134701937Y-115427774D01*
X134815205Y-115258256D01*
X134893226Y-115069898D01*
X134933000Y-114869939D01*
X134933000Y-114666061D01*
X134893226Y-114466102D01*
X134815205Y-114277744D01*
X134701937Y-114108226D01*
X134557774Y-113964063D01*
X134388256Y-113850795D01*
X134199898Y-113772774D01*
X133999939Y-113733000D01*
X133796061Y-113733000D01*
X133596102Y-113772774D01*
X133407744Y-113850795D01*
X133238226Y-113964063D01*
X133219482Y-113982807D01*
X127285238Y-113982807D01*
X121379431Y-108077000D01*
X138430000Y-108077000D01*
X138454776Y-108074560D01*
X138478601Y-108067333D01*
X138500557Y-108055597D01*
X138519803Y-108039803D01*
X138535597Y-108020557D01*
X138547333Y-107998601D01*
X138554560Y-107974776D01*
X138557000Y-107950000D01*
X138557000Y-106787740D01*
X139485000Y-106787740D01*
X139485000Y-107080260D01*
X139542068Y-107367158D01*
X139654010Y-107637411D01*
X139816525Y-107880632D01*
X140023368Y-108087475D01*
X140197760Y-108204000D01*
X140023368Y-108320525D01*
X139816525Y-108527368D01*
X139654010Y-108770589D01*
X139542068Y-109040842D01*
X139485000Y-109327740D01*
X139485000Y-109620260D01*
X139542068Y-109907158D01*
X139654010Y-110177411D01*
X139816525Y-110420632D01*
X140023368Y-110627475D01*
X140197760Y-110744000D01*
X140023368Y-110860525D01*
X139816525Y-111067368D01*
X139654010Y-111310589D01*
X139542068Y-111580842D01*
X139485000Y-111867740D01*
X139485000Y-112160260D01*
X139542068Y-112447158D01*
X139654010Y-112717411D01*
X139816525Y-112960632D01*
X140023368Y-113167475D01*
X140197760Y-113284000D01*
X140023368Y-113400525D01*
X139816525Y-113607368D01*
X139654010Y-113850589D01*
X139542068Y-114120842D01*
X139485000Y-114407740D01*
X139485000Y-114700260D01*
X139542068Y-114987158D01*
X139654010Y-115257411D01*
X139816525Y-115500632D01*
X140023368Y-115707475D01*
X140266589Y-115869990D01*
X140536842Y-115981932D01*
X140823740Y-116039000D01*
X141116260Y-116039000D01*
X141403158Y-115981932D01*
X141673411Y-115869990D01*
X141916632Y-115707475D01*
X142123475Y-115500632D01*
X142285990Y-115257411D01*
X142397932Y-114987158D01*
X142455000Y-114700260D01*
X142455000Y-114407740D01*
X142397932Y-114120842D01*
X142285990Y-113850589D01*
X142123475Y-113607368D01*
X141916632Y-113400525D01*
X141742240Y-113284000D01*
X141916632Y-113167475D01*
X142123475Y-112960632D01*
X142285990Y-112717411D01*
X142397932Y-112447158D01*
X142455000Y-112160260D01*
X142455000Y-111867740D01*
X142397932Y-111580842D01*
X142285990Y-111310589D01*
X142123475Y-111067368D01*
X141916632Y-110860525D01*
X141742240Y-110744000D01*
X141916632Y-110627475D01*
X142123475Y-110420632D01*
X142285990Y-110177411D01*
X142397932Y-109907158D01*
X142455000Y-109620260D01*
X142455000Y-109327740D01*
X142397932Y-109040842D01*
X142285990Y-108770589D01*
X142123475Y-108527368D01*
X141916632Y-108320525D01*
X141742240Y-108204000D01*
X141916632Y-108087475D01*
X142123475Y-107880632D01*
X142285990Y-107637411D01*
X142397932Y-107367158D01*
X142455000Y-107080260D01*
X142455000Y-106787740D01*
X142397932Y-106500842D01*
X142285990Y-106230589D01*
X142123475Y-105987368D01*
X141916632Y-105780525D01*
X141734466Y-105658805D01*
X141851355Y-105589178D01*
X142067588Y-105394269D01*
X142241641Y-105160920D01*
X142366825Y-104898099D01*
X142411476Y-104750890D01*
X142290155Y-104521000D01*
X141097000Y-104521000D01*
X141097000Y-104541000D01*
X140843000Y-104541000D01*
X140843000Y-104521000D01*
X139649845Y-104521000D01*
X139528524Y-104750890D01*
X139573175Y-104898099D01*
X139698359Y-105160920D01*
X139872412Y-105394269D01*
X140088645Y-105589178D01*
X140205534Y-105658805D01*
X140023368Y-105780525D01*
X139816525Y-105987368D01*
X139654010Y-106230589D01*
X139542068Y-106500842D01*
X139485000Y-106787740D01*
X138557000Y-106787740D01*
X138557000Y-101004000D01*
X139481928Y-101004000D01*
X139481928Y-102704000D01*
X139494188Y-102828482D01*
X139530498Y-102948180D01*
X139589463Y-103058494D01*
X139668815Y-103155185D01*
X139765506Y-103234537D01*
X139875820Y-103293502D01*
X139956466Y-103317966D01*
X139872412Y-103393731D01*
X139698359Y-103627080D01*
X139573175Y-103889901D01*
X139528524Y-104037110D01*
X139649845Y-104267000D01*
X140843000Y-104267000D01*
X140843000Y-104247000D01*
X141097000Y-104247000D01*
X141097000Y-104267000D01*
X142290155Y-104267000D01*
X142411476Y-104037110D01*
X142366825Y-103889901D01*
X142241641Y-103627080D01*
X142067588Y-103393731D01*
X141983534Y-103317966D01*
X142064180Y-103293502D01*
X142174494Y-103234537D01*
X142271185Y-103155185D01*
X142350537Y-103058494D01*
X142409502Y-102948180D01*
X142445812Y-102828482D01*
X142458072Y-102704000D01*
X142458072Y-101004000D01*
X142445812Y-100879518D01*
X142409502Y-100759820D01*
X142350537Y-100649506D01*
X142271185Y-100552815D01*
X142174494Y-100473463D01*
X142064180Y-100414498D01*
X141944482Y-100378188D01*
X141820000Y-100365928D01*
X140120000Y-100365928D01*
X139995518Y-100378188D01*
X139875820Y-100414498D01*
X139765506Y-100473463D01*
X139668815Y-100552815D01*
X139589463Y-100649506D01*
X139530498Y-100759820D01*
X139494188Y-100879518D01*
X139481928Y-101004000D01*
X138557000Y-101004000D01*
X138557000Y-99491000D01*
X143333000Y-99491000D01*
X143333001Y-125807000D01*
X108889000Y-125807000D01*
X108889000Y-109372061D01*
X112757000Y-109372061D01*
X112757000Y-109575939D01*
X112796774Y-109775898D01*
X112874795Y-109964256D01*
X112988063Y-110133774D01*
X113132226Y-110277937D01*
X113301744Y-110391205D01*
X113490102Y-110469226D01*
X113690061Y-110509000D01*
X113716570Y-110509000D01*
X116003505Y-112795935D01*
X116028098Y-112825902D01*
X116105608Y-112889512D01*
X116147659Y-112924023D01*
X116216150Y-112960632D01*
X116284066Y-112996934D01*
X116391949Y-113029660D01*
X116434226Y-113071937D01*
X116603744Y-113185205D01*
X116792102Y-113263226D01*
X116992061Y-113303000D01*
X117195939Y-113303000D01*
X117395898Y-113263226D01*
X117584256Y-113185205D01*
X117753774Y-113071937D01*
X117897937Y-112927774D01*
X118011205Y-112758256D01*
X118089226Y-112569898D01*
X118129000Y-112369939D01*
X118129000Y-112166061D01*
X118089226Y-111966102D01*
X118011205Y-111777744D01*
X117897937Y-111608226D01*
X117753774Y-111464063D01*
X117584256Y-111350795D01*
X117395898Y-111272774D01*
X117195939Y-111233000D01*
X116992061Y-111233000D01*
X116792102Y-111272774D01*
X116727828Y-111299398D01*
X114827000Y-109398570D01*
X114827000Y-109372061D01*
X114787226Y-109172102D01*
X114709205Y-108983744D01*
X114595937Y-108814226D01*
X114451774Y-108670063D01*
X114282256Y-108556795D01*
X114093898Y-108478774D01*
X113893939Y-108439000D01*
X113690061Y-108439000D01*
X113490102Y-108478774D01*
X113301744Y-108556795D01*
X113132226Y-108670063D01*
X112988063Y-108814226D01*
X112874795Y-108983744D01*
X112796774Y-109172102D01*
X112757000Y-109372061D01*
X108889000Y-109372061D01*
X108889000Y-104814000D01*
X109763928Y-104814000D01*
X109763928Y-106514000D01*
X109776188Y-106638482D01*
X109812498Y-106758180D01*
X109871463Y-106868494D01*
X109950815Y-106965185D01*
X110047506Y-107044537D01*
X110157820Y-107103502D01*
X110277518Y-107139812D01*
X110402000Y-107152072D01*
X112102000Y-107152072D01*
X112226482Y-107139812D01*
X112346180Y-107103502D01*
X112456494Y-107044537D01*
X112553185Y-106965185D01*
X112632537Y-106868494D01*
X112691502Y-106758180D01*
X112715966Y-106677534D01*
X112791731Y-106761588D01*
X113025080Y-106935641D01*
X113287901Y-107060825D01*
X113435110Y-107105476D01*
X113665000Y-106984155D01*
X113665000Y-105791000D01*
X113919000Y-105791000D01*
X113919000Y-106984155D01*
X114148890Y-107105476D01*
X114296099Y-107060825D01*
X114558920Y-106935641D01*
X114792269Y-106761588D01*
X114987178Y-106545355D01*
X115136157Y-106295252D01*
X115233481Y-106020891D01*
X115112814Y-105791000D01*
X113919000Y-105791000D01*
X113665000Y-105791000D01*
X113645000Y-105791000D01*
X113645000Y-105537000D01*
X113665000Y-105537000D01*
X113665000Y-104343845D01*
X113919000Y-104343845D01*
X113919000Y-105537000D01*
X115112814Y-105537000D01*
X115233481Y-105307109D01*
X115136157Y-105032748D01*
X114987178Y-104782645D01*
X114792269Y-104566412D01*
X114558920Y-104392359D01*
X114296099Y-104267175D01*
X114148890Y-104222524D01*
X113919000Y-104343845D01*
X113665000Y-104343845D01*
X113435110Y-104222524D01*
X113287901Y-104267175D01*
X113025080Y-104392359D01*
X112791731Y-104566412D01*
X112715966Y-104650466D01*
X112691502Y-104569820D01*
X112632537Y-104459506D01*
X112553185Y-104362815D01*
X112456494Y-104283463D01*
X112346180Y-104224498D01*
X112226482Y-104188188D01*
X112102000Y-104175928D01*
X110402000Y-104175928D01*
X110277518Y-104188188D01*
X110157820Y-104224498D01*
X110047506Y-104283463D01*
X109950815Y-104362815D01*
X109871463Y-104459506D01*
X109812498Y-104569820D01*
X109776188Y-104689518D01*
X109763928Y-104814000D01*
X108889000Y-104814000D01*
X108889000Y-101004000D01*
X109763928Y-101004000D01*
X109763928Y-102704000D01*
X109776188Y-102828482D01*
X109812498Y-102948180D01*
X109871463Y-103058494D01*
X109950815Y-103155185D01*
X110047506Y-103234537D01*
X110157820Y-103293502D01*
X110277518Y-103329812D01*
X110402000Y-103342072D01*
X112102000Y-103342072D01*
X112226482Y-103329812D01*
X112346180Y-103293502D01*
X112456494Y-103234537D01*
X112553185Y-103155185D01*
X112632537Y-103058494D01*
X112691502Y-102948180D01*
X112713513Y-102875620D01*
X112845368Y-103007475D01*
X113088589Y-103169990D01*
X113358842Y-103281932D01*
X113645740Y-103339000D01*
X113938260Y-103339000D01*
X114225158Y-103281932D01*
X114495411Y-103169990D01*
X114738632Y-103007475D01*
X114945475Y-102800632D01*
X115067195Y-102618466D01*
X115136822Y-102735355D01*
X115331731Y-102951588D01*
X115565080Y-103125641D01*
X115827901Y-103250825D01*
X115975110Y-103295476D01*
X116205000Y-103174155D01*
X116205000Y-101981000D01*
X116459000Y-101981000D01*
X116459000Y-103174155D01*
X116688890Y-103295476D01*
X116836099Y-103250825D01*
X117098920Y-103125641D01*
X117332269Y-102951588D01*
X117527178Y-102735355D01*
X117676157Y-102485252D01*
X117773481Y-102210891D01*
X117652814Y-101981000D01*
X116459000Y-101981000D01*
X116205000Y-101981000D01*
X116185000Y-101981000D01*
X116185000Y-101727000D01*
X116205000Y-101727000D01*
X116205000Y-100533845D01*
X116459000Y-100533845D01*
X116459000Y-101727000D01*
X117652814Y-101727000D01*
X117773481Y-101497109D01*
X117676157Y-101222748D01*
X117527178Y-100972645D01*
X117332269Y-100756412D01*
X117098920Y-100582359D01*
X116836099Y-100457175D01*
X116688890Y-100412524D01*
X116459000Y-100533845D01*
X116205000Y-100533845D01*
X115975110Y-100412524D01*
X115827901Y-100457175D01*
X115565080Y-100582359D01*
X115331731Y-100756412D01*
X115136822Y-100972645D01*
X115067195Y-101089534D01*
X114945475Y-100907368D01*
X114738632Y-100700525D01*
X114495411Y-100538010D01*
X114225158Y-100426068D01*
X113938260Y-100369000D01*
X113645740Y-100369000D01*
X113358842Y-100426068D01*
X113088589Y-100538010D01*
X112845368Y-100700525D01*
X112713513Y-100832380D01*
X112691502Y-100759820D01*
X112632537Y-100649506D01*
X112553185Y-100552815D01*
X112456494Y-100473463D01*
X112346180Y-100414498D01*
X112226482Y-100378188D01*
X112102000Y-100365928D01*
X110402000Y-100365928D01*
X110277518Y-100378188D01*
X110157820Y-100414498D01*
X110047506Y-100473463D01*
X109950815Y-100552815D01*
X109871463Y-100649506D01*
X109812498Y-100759820D01*
X109776188Y-100879518D01*
X109763928Y-101004000D01*
X108889000Y-101004000D01*
X108889000Y-99491000D01*
X120015000Y-99491000D01*
X120015000Y-106712569D01*
%TA.AperFunction,Conductor*%
D16*
G36*
X120015000Y-106712569D02*
G01*
X119430686Y-106128255D01*
X119491000Y-105825033D01*
X119491000Y-105502967D01*
X119428168Y-105187088D01*
X119304918Y-104889537D01*
X119125987Y-104621748D01*
X118898252Y-104394013D01*
X118630463Y-104215082D01*
X118332912Y-104091832D01*
X118017033Y-104029000D01*
X117694967Y-104029000D01*
X117379088Y-104091832D01*
X117081537Y-104215082D01*
X116813748Y-104394013D01*
X116586013Y-104621748D01*
X116407082Y-104889537D01*
X116283832Y-105187088D01*
X116221000Y-105502967D01*
X116221000Y-105825033D01*
X116283832Y-106140912D01*
X116407082Y-106438463D01*
X116586013Y-106706252D01*
X116813748Y-106933987D01*
X117081537Y-107112918D01*
X117379088Y-107236168D01*
X117694967Y-107299000D01*
X118017033Y-107299000D01*
X118320255Y-107238686D01*
X126377509Y-115295940D01*
X126402098Y-115325902D01*
X126432059Y-115350490D01*
X126521659Y-115424023D01*
X126594570Y-115462994D01*
X126658066Y-115496934D01*
X126806075Y-115541832D01*
X126921427Y-115553193D01*
X126921429Y-115553193D01*
X126959999Y-115556992D01*
X126998569Y-115553193D01*
X133219482Y-115553193D01*
X133238226Y-115571937D01*
X133407744Y-115685205D01*
X133596102Y-115763226D01*
X133796061Y-115803000D01*
X133999939Y-115803000D01*
X134199898Y-115763226D01*
X134388256Y-115685205D01*
X134557774Y-115571937D01*
X134701937Y-115427774D01*
X134815205Y-115258256D01*
X134893226Y-115069898D01*
X134933000Y-114869939D01*
X134933000Y-114666061D01*
X134893226Y-114466102D01*
X134815205Y-114277744D01*
X134701937Y-114108226D01*
X134557774Y-113964063D01*
X134388256Y-113850795D01*
X134199898Y-113772774D01*
X133999939Y-113733000D01*
X133796061Y-113733000D01*
X133596102Y-113772774D01*
X133407744Y-113850795D01*
X133238226Y-113964063D01*
X133219482Y-113982807D01*
X127285238Y-113982807D01*
X121379431Y-108077000D01*
X138430000Y-108077000D01*
X138454776Y-108074560D01*
X138478601Y-108067333D01*
X138500557Y-108055597D01*
X138519803Y-108039803D01*
X138535597Y-108020557D01*
X138547333Y-107998601D01*
X138554560Y-107974776D01*
X138557000Y-107950000D01*
X138557000Y-106787740D01*
X139485000Y-106787740D01*
X139485000Y-107080260D01*
X139542068Y-107367158D01*
X139654010Y-107637411D01*
X139816525Y-107880632D01*
X140023368Y-108087475D01*
X140197760Y-108204000D01*
X140023368Y-108320525D01*
X139816525Y-108527368D01*
X139654010Y-108770589D01*
X139542068Y-109040842D01*
X139485000Y-109327740D01*
X139485000Y-109620260D01*
X139542068Y-109907158D01*
X139654010Y-110177411D01*
X139816525Y-110420632D01*
X140023368Y-110627475D01*
X140197760Y-110744000D01*
X140023368Y-110860525D01*
X139816525Y-111067368D01*
X139654010Y-111310589D01*
X139542068Y-111580842D01*
X139485000Y-111867740D01*
X139485000Y-112160260D01*
X139542068Y-112447158D01*
X139654010Y-112717411D01*
X139816525Y-112960632D01*
X140023368Y-113167475D01*
X140197760Y-113284000D01*
X140023368Y-113400525D01*
X139816525Y-113607368D01*
X139654010Y-113850589D01*
X139542068Y-114120842D01*
X139485000Y-114407740D01*
X139485000Y-114700260D01*
X139542068Y-114987158D01*
X139654010Y-115257411D01*
X139816525Y-115500632D01*
X140023368Y-115707475D01*
X140266589Y-115869990D01*
X140536842Y-115981932D01*
X140823740Y-116039000D01*
X141116260Y-116039000D01*
X141403158Y-115981932D01*
X141673411Y-115869990D01*
X141916632Y-115707475D01*
X142123475Y-115500632D01*
X142285990Y-115257411D01*
X142397932Y-114987158D01*
X142455000Y-114700260D01*
X142455000Y-114407740D01*
X142397932Y-114120842D01*
X142285990Y-113850589D01*
X142123475Y-113607368D01*
X141916632Y-113400525D01*
X141742240Y-113284000D01*
X141916632Y-113167475D01*
X142123475Y-112960632D01*
X142285990Y-112717411D01*
X142397932Y-112447158D01*
X142455000Y-112160260D01*
X142455000Y-111867740D01*
X142397932Y-111580842D01*
X142285990Y-111310589D01*
X142123475Y-111067368D01*
X141916632Y-110860525D01*
X141742240Y-110744000D01*
X141916632Y-110627475D01*
X142123475Y-110420632D01*
X142285990Y-110177411D01*
X142397932Y-109907158D01*
X142455000Y-109620260D01*
X142455000Y-109327740D01*
X142397932Y-109040842D01*
X142285990Y-108770589D01*
X142123475Y-108527368D01*
X141916632Y-108320525D01*
X141742240Y-108204000D01*
X141916632Y-108087475D01*
X142123475Y-107880632D01*
X142285990Y-107637411D01*
X142397932Y-107367158D01*
X142455000Y-107080260D01*
X142455000Y-106787740D01*
X142397932Y-106500842D01*
X142285990Y-106230589D01*
X142123475Y-105987368D01*
X141916632Y-105780525D01*
X141734466Y-105658805D01*
X141851355Y-105589178D01*
X142067588Y-105394269D01*
X142241641Y-105160920D01*
X142366825Y-104898099D01*
X142411476Y-104750890D01*
X142290155Y-104521000D01*
X141097000Y-104521000D01*
X141097000Y-104541000D01*
X140843000Y-104541000D01*
X140843000Y-104521000D01*
X139649845Y-104521000D01*
X139528524Y-104750890D01*
X139573175Y-104898099D01*
X139698359Y-105160920D01*
X139872412Y-105394269D01*
X140088645Y-105589178D01*
X140205534Y-105658805D01*
X140023368Y-105780525D01*
X139816525Y-105987368D01*
X139654010Y-106230589D01*
X139542068Y-106500842D01*
X139485000Y-106787740D01*
X138557000Y-106787740D01*
X138557000Y-101004000D01*
X139481928Y-101004000D01*
X139481928Y-102704000D01*
X139494188Y-102828482D01*
X139530498Y-102948180D01*
X139589463Y-103058494D01*
X139668815Y-103155185D01*
X139765506Y-103234537D01*
X139875820Y-103293502D01*
X139956466Y-103317966D01*
X139872412Y-103393731D01*
X139698359Y-103627080D01*
X139573175Y-103889901D01*
X139528524Y-104037110D01*
X139649845Y-104267000D01*
X140843000Y-104267000D01*
X140843000Y-104247000D01*
X141097000Y-104247000D01*
X141097000Y-104267000D01*
X142290155Y-104267000D01*
X142411476Y-104037110D01*
X142366825Y-103889901D01*
X142241641Y-103627080D01*
X142067588Y-103393731D01*
X141983534Y-103317966D01*
X142064180Y-103293502D01*
X142174494Y-103234537D01*
X142271185Y-103155185D01*
X142350537Y-103058494D01*
X142409502Y-102948180D01*
X142445812Y-102828482D01*
X142458072Y-102704000D01*
X142458072Y-101004000D01*
X142445812Y-100879518D01*
X142409502Y-100759820D01*
X142350537Y-100649506D01*
X142271185Y-100552815D01*
X142174494Y-100473463D01*
X142064180Y-100414498D01*
X141944482Y-100378188D01*
X141820000Y-100365928D01*
X140120000Y-100365928D01*
X139995518Y-100378188D01*
X139875820Y-100414498D01*
X139765506Y-100473463D01*
X139668815Y-100552815D01*
X139589463Y-100649506D01*
X139530498Y-100759820D01*
X139494188Y-100879518D01*
X139481928Y-101004000D01*
X138557000Y-101004000D01*
X138557000Y-99491000D01*
X143333000Y-99491000D01*
X143333001Y-125807000D01*
X108889000Y-125807000D01*
X108889000Y-109372061D01*
X112757000Y-109372061D01*
X112757000Y-109575939D01*
X112796774Y-109775898D01*
X112874795Y-109964256D01*
X112988063Y-110133774D01*
X113132226Y-110277937D01*
X113301744Y-110391205D01*
X113490102Y-110469226D01*
X113690061Y-110509000D01*
X113716570Y-110509000D01*
X116003505Y-112795935D01*
X116028098Y-112825902D01*
X116105608Y-112889512D01*
X116147659Y-112924023D01*
X116216150Y-112960632D01*
X116284066Y-112996934D01*
X116391949Y-113029660D01*
X116434226Y-113071937D01*
X116603744Y-113185205D01*
X116792102Y-113263226D01*
X116992061Y-113303000D01*
X117195939Y-113303000D01*
X117395898Y-113263226D01*
X117584256Y-113185205D01*
X117753774Y-113071937D01*
X117897937Y-112927774D01*
X118011205Y-112758256D01*
X118089226Y-112569898D01*
X118129000Y-112369939D01*
X118129000Y-112166061D01*
X118089226Y-111966102D01*
X118011205Y-111777744D01*
X117897937Y-111608226D01*
X117753774Y-111464063D01*
X117584256Y-111350795D01*
X117395898Y-111272774D01*
X117195939Y-111233000D01*
X116992061Y-111233000D01*
X116792102Y-111272774D01*
X116727828Y-111299398D01*
X114827000Y-109398570D01*
X114827000Y-109372061D01*
X114787226Y-109172102D01*
X114709205Y-108983744D01*
X114595937Y-108814226D01*
X114451774Y-108670063D01*
X114282256Y-108556795D01*
X114093898Y-108478774D01*
X113893939Y-108439000D01*
X113690061Y-108439000D01*
X113490102Y-108478774D01*
X113301744Y-108556795D01*
X113132226Y-108670063D01*
X112988063Y-108814226D01*
X112874795Y-108983744D01*
X112796774Y-109172102D01*
X112757000Y-109372061D01*
X108889000Y-109372061D01*
X108889000Y-104814000D01*
X109763928Y-104814000D01*
X109763928Y-106514000D01*
X109776188Y-106638482D01*
X109812498Y-106758180D01*
X109871463Y-106868494D01*
X109950815Y-106965185D01*
X110047506Y-107044537D01*
X110157820Y-107103502D01*
X110277518Y-107139812D01*
X110402000Y-107152072D01*
X112102000Y-107152072D01*
X112226482Y-107139812D01*
X112346180Y-107103502D01*
X112456494Y-107044537D01*
X112553185Y-106965185D01*
X112632537Y-106868494D01*
X112691502Y-106758180D01*
X112715966Y-106677534D01*
X112791731Y-106761588D01*
X113025080Y-106935641D01*
X113287901Y-107060825D01*
X113435110Y-107105476D01*
X113665000Y-106984155D01*
X113665000Y-105791000D01*
X113919000Y-105791000D01*
X113919000Y-106984155D01*
X114148890Y-107105476D01*
X114296099Y-107060825D01*
X114558920Y-106935641D01*
X114792269Y-106761588D01*
X114987178Y-106545355D01*
X115136157Y-106295252D01*
X115233481Y-106020891D01*
X115112814Y-105791000D01*
X113919000Y-105791000D01*
X113665000Y-105791000D01*
X113645000Y-105791000D01*
X113645000Y-105537000D01*
X113665000Y-105537000D01*
X113665000Y-104343845D01*
X113919000Y-104343845D01*
X113919000Y-105537000D01*
X115112814Y-105537000D01*
X115233481Y-105307109D01*
X115136157Y-105032748D01*
X114987178Y-104782645D01*
X114792269Y-104566412D01*
X114558920Y-104392359D01*
X114296099Y-104267175D01*
X114148890Y-104222524D01*
X113919000Y-104343845D01*
X113665000Y-104343845D01*
X113435110Y-104222524D01*
X113287901Y-104267175D01*
X113025080Y-104392359D01*
X112791731Y-104566412D01*
X112715966Y-104650466D01*
X112691502Y-104569820D01*
X112632537Y-104459506D01*
X112553185Y-104362815D01*
X112456494Y-104283463D01*
X112346180Y-104224498D01*
X112226482Y-104188188D01*
X112102000Y-104175928D01*
X110402000Y-104175928D01*
X110277518Y-104188188D01*
X110157820Y-104224498D01*
X110047506Y-104283463D01*
X109950815Y-104362815D01*
X109871463Y-104459506D01*
X109812498Y-104569820D01*
X109776188Y-104689518D01*
X109763928Y-104814000D01*
X108889000Y-104814000D01*
X108889000Y-101004000D01*
X109763928Y-101004000D01*
X109763928Y-102704000D01*
X109776188Y-102828482D01*
X109812498Y-102948180D01*
X109871463Y-103058494D01*
X109950815Y-103155185D01*
X110047506Y-103234537D01*
X110157820Y-103293502D01*
X110277518Y-103329812D01*
X110402000Y-103342072D01*
X112102000Y-103342072D01*
X112226482Y-103329812D01*
X112346180Y-103293502D01*
X112456494Y-103234537D01*
X112553185Y-103155185D01*
X112632537Y-103058494D01*
X112691502Y-102948180D01*
X112713513Y-102875620D01*
X112845368Y-103007475D01*
X113088589Y-103169990D01*
X113358842Y-103281932D01*
X113645740Y-103339000D01*
X113938260Y-103339000D01*
X114225158Y-103281932D01*
X114495411Y-103169990D01*
X114738632Y-103007475D01*
X114945475Y-102800632D01*
X115067195Y-102618466D01*
X115136822Y-102735355D01*
X115331731Y-102951588D01*
X115565080Y-103125641D01*
X115827901Y-103250825D01*
X115975110Y-103295476D01*
X116205000Y-103174155D01*
X116205000Y-101981000D01*
X116459000Y-101981000D01*
X116459000Y-103174155D01*
X116688890Y-103295476D01*
X116836099Y-103250825D01*
X117098920Y-103125641D01*
X117332269Y-102951588D01*
X117527178Y-102735355D01*
X117676157Y-102485252D01*
X117773481Y-102210891D01*
X117652814Y-101981000D01*
X116459000Y-101981000D01*
X116205000Y-101981000D01*
X116185000Y-101981000D01*
X116185000Y-101727000D01*
X116205000Y-101727000D01*
X116205000Y-100533845D01*
X116459000Y-100533845D01*
X116459000Y-101727000D01*
X117652814Y-101727000D01*
X117773481Y-101497109D01*
X117676157Y-101222748D01*
X117527178Y-100972645D01*
X117332269Y-100756412D01*
X117098920Y-100582359D01*
X116836099Y-100457175D01*
X116688890Y-100412524D01*
X116459000Y-100533845D01*
X116205000Y-100533845D01*
X115975110Y-100412524D01*
X115827901Y-100457175D01*
X115565080Y-100582359D01*
X115331731Y-100756412D01*
X115136822Y-100972645D01*
X115067195Y-101089534D01*
X114945475Y-100907368D01*
X114738632Y-100700525D01*
X114495411Y-100538010D01*
X114225158Y-100426068D01*
X113938260Y-100369000D01*
X113645740Y-100369000D01*
X113358842Y-100426068D01*
X113088589Y-100538010D01*
X112845368Y-100700525D01*
X112713513Y-100832380D01*
X112691502Y-100759820D01*
X112632537Y-100649506D01*
X112553185Y-100552815D01*
X112456494Y-100473463D01*
X112346180Y-100414498D01*
X112226482Y-100378188D01*
X112102000Y-100365928D01*
X110402000Y-100365928D01*
X110277518Y-100378188D01*
X110157820Y-100414498D01*
X110047506Y-100473463D01*
X109950815Y-100552815D01*
X109871463Y-100649506D01*
X109812498Y-100759820D01*
X109776188Y-100879518D01*
X109763928Y-101004000D01*
X108889000Y-101004000D01*
X108889000Y-99491000D01*
X120015000Y-99491000D01*
X120015000Y-106712569D01*
G37*
%TD.AperFunction*%
%TD*%
M02*
