%TF.GenerationSoftware,KiCad,Pcbnew,(5.1.9)-1*%
%TF.CreationDate,2021-10-20T11:11:32-07:00*%
%TF.ProjectId,LED-Controller-ESP-12F,4c45442d-436f-46e7-9472-6f6c6c65722d,A*%
%TF.SameCoordinates,Original*%
%TF.FileFunction,Paste,Top*%
%TF.FilePolarity,Positive*%
%FSLAX46Y46*%
G04 Gerber Fmt 4.6, Leading zero omitted, Abs format (unit mm)*
G04 Created by KiCad (PCBNEW (5.1.9)-1) date 2021-10-20 11:11:32*
%MOMM*%
%LPD*%
G01*
G04 APERTURE LIST*
%ADD10R,2.100000X1.400000*%
%ADD11R,1.060000X0.650000*%
%ADD12R,2.500000X1.000000*%
%ADD13R,1.000000X1.800000*%
G04 APERTURE END LIST*
%TO.C,C1*%
G36*
G01*
X109859500Y-112997000D02*
X109859500Y-112047000D01*
G75*
G02*
X110109500Y-111797000I250000J0D01*
G01*
X110784500Y-111797000D01*
G75*
G02*
X111034500Y-112047000I0J-250000D01*
G01*
X111034500Y-112997000D01*
G75*
G02*
X110784500Y-113247000I-250000J0D01*
G01*
X110109500Y-113247000D01*
G75*
G02*
X109859500Y-112997000I0J250000D01*
G01*
G37*
G36*
G01*
X111934500Y-112997000D02*
X111934500Y-112047000D01*
G75*
G02*
X112184500Y-111797000I250000J0D01*
G01*
X112859500Y-111797000D01*
G75*
G02*
X113109500Y-112047000I0J-250000D01*
G01*
X113109500Y-112997000D01*
G75*
G02*
X112859500Y-113247000I-250000J0D01*
G01*
X112184500Y-113247000D01*
G75*
G02*
X111934500Y-112997000I0J250000D01*
G01*
G37*
%TD*%
%TO.C,C2*%
G36*
G01*
X111934500Y-115029000D02*
X111934500Y-114079000D01*
G75*
G02*
X112184500Y-113829000I250000J0D01*
G01*
X112859500Y-113829000D01*
G75*
G02*
X113109500Y-114079000I0J-250000D01*
G01*
X113109500Y-115029000D01*
G75*
G02*
X112859500Y-115279000I-250000J0D01*
G01*
X112184500Y-115279000D01*
G75*
G02*
X111934500Y-115029000I0J250000D01*
G01*
G37*
G36*
G01*
X109859500Y-115029000D02*
X109859500Y-114079000D01*
G75*
G02*
X110109500Y-113829000I250000J0D01*
G01*
X110784500Y-113829000D01*
G75*
G02*
X111034500Y-114079000I0J-250000D01*
G01*
X111034500Y-115029000D01*
G75*
G02*
X110784500Y-115279000I-250000J0D01*
G01*
X110109500Y-115279000D01*
G75*
G02*
X109859500Y-115029000I0J250000D01*
G01*
G37*
%TD*%
%TO.C,C3*%
G36*
G01*
X109859500Y-117061000D02*
X109859500Y-116111000D01*
G75*
G02*
X110109500Y-115861000I250000J0D01*
G01*
X110784500Y-115861000D01*
G75*
G02*
X111034500Y-116111000I0J-250000D01*
G01*
X111034500Y-117061000D01*
G75*
G02*
X110784500Y-117311000I-250000J0D01*
G01*
X110109500Y-117311000D01*
G75*
G02*
X109859500Y-117061000I0J250000D01*
G01*
G37*
G36*
G01*
X111934500Y-117061000D02*
X111934500Y-116111000D01*
G75*
G02*
X112184500Y-115861000I250000J0D01*
G01*
X112859500Y-115861000D01*
G75*
G02*
X113109500Y-116111000I0J-250000D01*
G01*
X113109500Y-117061000D01*
G75*
G02*
X112859500Y-117311000I-250000J0D01*
G01*
X112184500Y-117311000D01*
G75*
G02*
X111934500Y-117061000I0J250000D01*
G01*
G37*
%TD*%
%TO.C,R1*%
G36*
G01*
X118018000Y-109162001D02*
X118018000Y-108261999D01*
G75*
G02*
X118267999Y-108012000I249999J0D01*
G01*
X118968001Y-108012000D01*
G75*
G02*
X119218000Y-108261999I0J-249999D01*
G01*
X119218000Y-109162001D01*
G75*
G02*
X118968001Y-109412000I-249999J0D01*
G01*
X118267999Y-109412000D01*
G75*
G02*
X118018000Y-109162001I0J249999D01*
G01*
G37*
G36*
G01*
X116018000Y-109162001D02*
X116018000Y-108261999D01*
G75*
G02*
X116267999Y-108012000I249999J0D01*
G01*
X116968001Y-108012000D01*
G75*
G02*
X117218000Y-108261999I0J-249999D01*
G01*
X117218000Y-109162001D01*
G75*
G02*
X116968001Y-109412000I-249999J0D01*
G01*
X116267999Y-109412000D01*
G75*
G02*
X116018000Y-109162001I0J249999D01*
G01*
G37*
%TD*%
%TO.C,R2*%
G36*
G01*
X116018000Y-111194001D02*
X116018000Y-110293999D01*
G75*
G02*
X116267999Y-110044000I249999J0D01*
G01*
X116968001Y-110044000D01*
G75*
G02*
X117218000Y-110293999I0J-249999D01*
G01*
X117218000Y-111194001D01*
G75*
G02*
X116968001Y-111444000I-249999J0D01*
G01*
X116267999Y-111444000D01*
G75*
G02*
X116018000Y-111194001I0J249999D01*
G01*
G37*
G36*
G01*
X118018000Y-111194001D02*
X118018000Y-110293999D01*
G75*
G02*
X118267999Y-110044000I249999J0D01*
G01*
X118968001Y-110044000D01*
G75*
G02*
X119218000Y-110293999I0J-249999D01*
G01*
X119218000Y-111194001D01*
G75*
G02*
X118968001Y-111444000I-249999J0D01*
G01*
X118267999Y-111444000D01*
G75*
G02*
X118018000Y-111194001I0J249999D01*
G01*
G37*
%TD*%
%TO.C,R3*%
G36*
G01*
X140570000Y-121215999D02*
X140570000Y-122116001D01*
G75*
G02*
X140320001Y-122366000I-249999J0D01*
G01*
X139619999Y-122366000D01*
G75*
G02*
X139370000Y-122116001I0J249999D01*
G01*
X139370000Y-121215999D01*
G75*
G02*
X139619999Y-120966000I249999J0D01*
G01*
X140320001Y-120966000D01*
G75*
G02*
X140570000Y-121215999I0J-249999D01*
G01*
G37*
G36*
G01*
X142570000Y-121215999D02*
X142570000Y-122116001D01*
G75*
G02*
X142320001Y-122366000I-249999J0D01*
G01*
X141619999Y-122366000D01*
G75*
G02*
X141370000Y-122116001I0J249999D01*
G01*
X141370000Y-121215999D01*
G75*
G02*
X141619999Y-120966000I249999J0D01*
G01*
X142320001Y-120966000D01*
G75*
G02*
X142570000Y-121215999I0J-249999D01*
G01*
G37*
%TD*%
%TO.C,R4*%
G36*
G01*
X139386000Y-120084001D02*
X139386000Y-119183999D01*
G75*
G02*
X139635999Y-118934000I249999J0D01*
G01*
X140336001Y-118934000D01*
G75*
G02*
X140586000Y-119183999I0J-249999D01*
G01*
X140586000Y-120084001D01*
G75*
G02*
X140336001Y-120334000I-249999J0D01*
G01*
X139635999Y-120334000D01*
G75*
G02*
X139386000Y-120084001I0J249999D01*
G01*
G37*
G36*
G01*
X141386000Y-120084001D02*
X141386000Y-119183999D01*
G75*
G02*
X141635999Y-118934000I249999J0D01*
G01*
X142336001Y-118934000D01*
G75*
G02*
X142586000Y-119183999I0J-249999D01*
G01*
X142586000Y-120084001D01*
G75*
G02*
X142336001Y-120334000I-249999J0D01*
G01*
X141635999Y-120334000D01*
G75*
G02*
X141386000Y-120084001I0J249999D01*
G01*
G37*
%TD*%
%TO.C,R5*%
G36*
G01*
X142586000Y-123247999D02*
X142586000Y-124148001D01*
G75*
G02*
X142336001Y-124398000I-249999J0D01*
G01*
X141635999Y-124398000D01*
G75*
G02*
X141386000Y-124148001I0J249999D01*
G01*
X141386000Y-123247999D01*
G75*
G02*
X141635999Y-122998000I249999J0D01*
G01*
X142336001Y-122998000D01*
G75*
G02*
X142586000Y-123247999I0J-249999D01*
G01*
G37*
G36*
G01*
X140586000Y-123247999D02*
X140586000Y-124148001D01*
G75*
G02*
X140336001Y-124398000I-249999J0D01*
G01*
X139635999Y-124398000D01*
G75*
G02*
X139386000Y-124148001I0J249999D01*
G01*
X139386000Y-123247999D01*
G75*
G02*
X139635999Y-122998000I249999J0D01*
G01*
X140336001Y-122998000D01*
G75*
G02*
X140586000Y-123247999I0J-249999D01*
G01*
G37*
%TD*%
%TO.C,R6*%
G36*
G01*
X140570000Y-117151999D02*
X140570000Y-118052001D01*
G75*
G02*
X140320001Y-118302000I-249999J0D01*
G01*
X139619999Y-118302000D01*
G75*
G02*
X139370000Y-118052001I0J249999D01*
G01*
X139370000Y-117151999D01*
G75*
G02*
X139619999Y-116902000I249999J0D01*
G01*
X140320001Y-116902000D01*
G75*
G02*
X140570000Y-117151999I0J-249999D01*
G01*
G37*
G36*
G01*
X142570000Y-117151999D02*
X142570000Y-118052001D01*
G75*
G02*
X142320001Y-118302000I-249999J0D01*
G01*
X141619999Y-118302000D01*
G75*
G02*
X141370000Y-118052001I0J249999D01*
G01*
X141370000Y-117151999D01*
G75*
G02*
X141619999Y-116902000I249999J0D01*
G01*
X142320001Y-116902000D01*
G75*
G02*
X142570000Y-117151999I0J-249999D01*
G01*
G37*
%TD*%
D10*
%TO.C,SW1*%
X111046000Y-119670000D03*
X117046000Y-119670000D03*
X111046000Y-124170000D03*
X117046000Y-124170000D03*
%TD*%
D11*
%TO.C,U1*%
X112606000Y-108524000D03*
X112606000Y-110424000D03*
X110406000Y-110424000D03*
X110406000Y-109474000D03*
X110406000Y-108524000D03*
%TD*%
%TO.C,U2*%
X116502000Y-113604000D03*
X116502000Y-114554000D03*
X116502000Y-115504000D03*
X118702000Y-115504000D03*
X118702000Y-113604000D03*
%TD*%
D12*
%TO.C,U3*%
X121686000Y-108768000D03*
X121686000Y-110768000D03*
X121686000Y-112768000D03*
X121686000Y-114768000D03*
X121686000Y-116768000D03*
X121686000Y-118768000D03*
X121686000Y-120768000D03*
X121686000Y-122768000D03*
D13*
X124286000Y-124268000D03*
X126286000Y-124268000D03*
X128286000Y-124268000D03*
X130286000Y-124268000D03*
X132286000Y-124268000D03*
X134286000Y-124268000D03*
D12*
X136886000Y-122768000D03*
X136886000Y-120768000D03*
X136886000Y-118768000D03*
X136886000Y-116768000D03*
X136886000Y-114768000D03*
X136886000Y-112768000D03*
X136886000Y-110768000D03*
X136886000Y-108768000D03*
%TD*%
M02*
